<svg xmlns="http://www.w3.org/2000/svg" width="256" height="256" viewBox="0 0 256 256"><path fill="#63666a" d="M88 175.3c7-14.2 15-29.7 24.3-46.7 9.4-17 20-34 31.8-50.7 12-17 21-28 26-34 6-6 10-10 14-13 4-4 11-6 20-7 10-2 17-2 22-2 3 0 6 1 8 3s3 4 3 7c0 2.3 0 4.5-1.2 6.3-1.2 2-3.7 4.5-7.5 8-18.3 17-37.2 41-57 72-19.7 31-35.4 61-47 90.2-5.5 13.2-9 21-10.6 23.4-1.6 2-4 4.3-7.2 6.3s-10 3-20 3c-8 0-13-.3-15-1.3s-4-2-5-3c-1.3-1-4.7-6-10.4-14.5-6-9-14.2-19.6-25.3-31.8-6.3-7-9.5-13-9.5-17.8 0-7 3.3-13 11-18 7-5 13.3-7.8 19-7.8 6 0 12.4 2.6 19.4 7.5 7 4.7 13 11.4 18.7 19.6z"/></svg>
