<svg xmlns="http://www.w3.org/2000/svg" width="256" height="256" viewBox="0 0 256 256"><circle cx="128" cy="128" r="124" fill="#c2bfbc"/><path fill="#333" d="M103.8 155.4c4.2-8.7 9-18 14.7-28.4A312 312 0 0 1 138 96c7-10.2 12.4-17 15.6-20.3s6-6 8.3-8 6-3.5 12-4.3a95 95 0 0 1 13-1.4 6.8 6.8 0 0 1 5 1.8 6 6 0 0 1 2 5 7 7 0 0 1-1 3.8 29 29 0 0 1-5 5q-17 15.2-35 43.4t-28 55c-3.5 8-5.7 13-6.6 14.3a14 14 0 0 1-4.4 4c-2 1-6 1.6-12.2 1.6s-8-1-10-1a14.3 14.3 0 0 1-3-2 98 98 0 0 1-6-9c-3.7-6-9-12-15.7-20-3.6-4.4-5.6-8-5.6-10.8s2-7.8 6.6-11 8.5-4.4 12-4.4 8 2 12 5a45.2 45.2 0 0 1 11.5 12z"/></svg>