<svg xmlns="http://www.w3.org/2000/svg" width="256" height="256" viewBox="0 0 256 256"><circle cx="128" cy="128" r="124" fill="#c2bfbc"/><path fill="none" stroke="#333" stroke-linecap="round" stroke-linejoin="round" stroke-width="17" d="M111 76.6h90M111 128h90m-90 51.4h90"/><path fill="#333" stroke="#333" stroke-miterlimit="10" stroke-width="10" d="M67.5 84.5c1.3-2.6 2.7-5.4 4.4-8.5a92.9 92.9 0 0 1 5.8-9.2 51.9 51.9 0 0 1 4.6-6l2.5-2.4a6.7 6.7 0 0 1 3.6-1.3l3.9-.4a2 2 0 0 1 1.5.5 1.8 1.8 0 0 1 .6 1.5 2.1 2.1 0 0 1-.3 1.1 8.6 8.6 0 0 1-1.5 1.5 62.4 62.4 0 0 0-10.5 12.9 87.5 87.5 0 0 0-8.3 16.4c-1 2.4-1.7 3.9-2 4.3a4.2 4.2 0 0 1-1.3 1.2 9.3 9.3 0 0 1-3.6.5 21.7 21.7 0 0 1-3-.3l-.9-.6a29.2 29.2 0 0 1-1.8-2.7 56.6 56.6 0 0 0-4.7-6 5.9 5.9 0 0 1-1.7-3.2 4.5 4.5 0 0 1 2-3.3 6.2 6.2 0 0 1 3.6-1.3 6.6 6.6 0 0 1 3.6 1.5 13.5 13.5 0 0 1 3.4 3.6zm0 51.4c1.3-2.6 2.7-5.4 4.4-8.5a92.9 92.9 0 0 1 5.8-9.2 51.9 51.9 0 0 1 4.6-6l2.5-2.4a6.7 6.7 0 0 1 3.6-1.3l3.9-.4a2 2 0 0 1 1.5.5 1.8 1.8 0 0 1 .6 1.5 2.1 2.1 0 0 1-.3 1.1 8.6 8.6 0 0 1-1.5 1.5 62.4 62.4 0 0 0-10.4 12.9 87.5 87.5 0 0 0-8.4 16.4c-1 2.4-1.7 3.9-2 4.3a4.2 4.2 0 0 1-1.3 1.2 9.3 9.3 0 0 1-3.6.5 21.7 21.7 0 0 1-3-.3l-.9-.6a29.2 29.2 0 0 1-1.8-2.7 56.6 56.6 0 0 0-4.7-6 5.9 5.9 0 0 1-1.7-3.2 4.5 4.5 0 0 1 2-3.3 6.2 6.2 0 0 1 3.6-1.3 6.6 6.6 0 0 1 3.6 1.5 13.5 13.5 0 0 1 3.4 3.6zm0 51.4c1.3-2.6 2.7-5.4 4.4-8.5a92.9 92.9 0 0 1 5.8-9.2 51.9 51.9 0 0 1 4.6-6l2.5-2.4a6.7 6.7 0 0 1 3.6-1.3l3.9-.4a2 2 0 0 1 1.5.5 1.8 1.8 0 0 1 .6 1.5 2.1 2.1 0 0 1-.3 1.1 8.6 8.6 0 0 1-1.5 1.5A62.4 62.4 0 0 0 82.1 177a87.5 87.5 0 0 0-8.3 16.4c-1 2.4-1.7 3.9-2 4.3a4.2 4.2 0 0 1-1.3 1.2 9.3 9.3 0 0 1-3.6.5 21.7 21.7 0 0 1-3-.3l-.9-.6a29.2 29.2 0 0 1-1.8-2.7 56.6 56.6 0 0 0-4.7-6 5.9 5.9 0 0 1-1.7-3.2 4.5 4.5 0 0 1 2-3.3 6.2 6.2 0 0 1 3.6-1.3 6.6 6.6 0 0 1 3.6 1.5 13.5 13.5 0 0 1 3.4 3.6z"/></svg>