<svg xmlns="http://www.w3.org/2000/svg" width="1100" height="300" data-name="with ta" viewBox="0 0 1100 300"><path fill="#58d439" d="M55 28.4h178.2v178.23H55z"/><path fill="#fff" d="M108.7 127.1a10 10 0 0 1-3.3 2 11 11 0 0 1-3.9.7 9.5 9.5 0 0 1-7.9-3.6q-2.8-3.6-2.8-10.2t2.9-10.2a9.5 9.5 0 0 1 8-3.7 10.9 10.9 0 0 1 3.2.5 11.2 11.2 0 0 1 3 1.4v3.7a10.2 10.2 0 0 0-3-2 8.1 8.1 0 0 0-3.2-.7 5.9 5.9 0 0 0-5.3 2.7q-1.8 2.7-1.8 8.2t1.7 8.2a5.8 5.8 0 0 0 5.3 2.7 7.2 7.2 0 0 0 2.1-.3 4.9 4.9 0 0 0 1.6-.9v-7.2h-3.9v-3h7.3zm23-13.8a7.5 7.5 0 0 0-2.1-1.2 7.3 7.3 0 0 0-2.4-.4 5.8 5.8 0 0 0-4.7 1.9 8.5 8.5 0 0 0-1.6 5.6v10h-3.3v-20h3.3v3.9a6.7 6.7 0 0 1 2.5-3.3 7.2 7.2 0 0 1 4.1-1.1 8.2 8.2 0 0 1 2.3.3 7.3 7.3 0 0 1 2 .9zm21.4 4.3v1.6h-14.2q-.1 4.1 1.6 5.9a6.4 6.4 0 0 0 4.8 1.8 11.7 11.7 0 0 0 3.3-.5 20.3 20.3 0 0 0 3.7-1.5v3.3a22.2 22.2 0 0 1-3.6 1.2 15.7 15.7 0 0 1-3.4.4 9.5 9.5 0 0 1-7.3-2.8 10.8 10.8 0 0 1-2.6-7.7 11 11 0 0 1 2.6-7.7 8.8 8.8 0 0 1 6.9-2.9 7.5 7.5 0 0 1 6 2.6 10 10 0 0 1 2.2 6.3zm-3.3-1a6.4 6.4 0 0 0-1.5-3.6 4.7 4.7 0 0 0-3.7-1.5 5.3 5.3 0 0 0-3.9 1.6 5.6 5.6 0 0 0-1.7 3.5zm25.4 1v1.6h-14.3q-.1 4.1 1.6 5.9a6.4 6.4 0 0 0 4.8 1.8 11.7 11.7 0 0 0 3.3-.5 20.3 20.3 0 0 0 3.7-1.5v3.3a22.2 22.2 0 0 1-3.6 1.2 15.7 15.7 0 0 1-3.4.4 9.5 9.5 0 0 1-7.3-2.8 10.8 10.8 0 0 1-2.6-7.7 11 11 0 0 1 2.6-7.7 8.8 8.8 0 0 1 6.9-2.9 7.5 7.5 0 0 1 6 2.6 10 10 0 0 1 2.3 6.3zm-3.3-1a6.4 6.4 0 0 0-1.5-3.6 4.7 4.7 0 0 0-3.7-1.5 5.3 5.3 0 0 0-3.9 1.6 5.6 5.6 0 0 0-1.7 3.5zm24.2.2v12.4h-3.3v-12.4a6.7 6.7 0 0 0-.9-4 3.5 3.5 0 0 0-3-1.3 4.2 4.2 0 0 0-3.6 1.6 7.7 7.7 0 0 0-1.2 4.7v11.3h-3.3v-19.9h3.2v3a6.2 6.2 0 0 1 2.4-2.6 6.9 6.9 0 0 1 3.6-.9 5.4 5.4 0 0 1 4.6 2q1.5 2.1 1.5 6.1z"/><path fill="#ffcf1d" d="M325.6 28.4h178.2v178.23H325.6z"/><path fill="#fff" d="M349.1 102.5h3.9l6.5 11.8 6.5-11.8h3.9l-8.6 14.7v12h-3.6v-12zm41.5 15.1v1.6h-14.3q-.1 4.1 1.6 5.9a6.4 6.4 0 0 0 4.8 1.8 11.7 11.7 0 0 0 3.3-.5 20.3 20.3 0 0 0 3.7-1.5v3.3a22.2 22.2 0 0 1-3.6 1.2 15.7 15.7 0 0 1-3.4.4 9.5 9.5 0 0 1-7.3-2.8 10.8 10.8 0 0 1-2.6-7.7 11 11 0 0 1 2.6-7.7 8.8 8.8 0 0 1 6.9-2.9 7.5 7.5 0 0 1 6 2.6 10 10 0 0 1 2.3 6.3zm-3.3-1a6.4 6.4 0 0 0-1.5-3.6 4.7 4.7 0 0 0-3.7-1.5 5.3 5.3 0 0 0-3.9 1.6 5.6 5.6 0 0 0-1.7 3.5zm18.2 5.4a5.7 5.7 0 0 0 .8 3.3 2.8 2.8 0 0 0 2.4 1.1h3.9v2.8h-4.2a5.7 5.7 0 0 1-4.6-1.9 8 8 0 0 1-1.6-5.4v-18h-5.3v-2.6h8.6zm22.1 0a5.7 5.7 0 0 0 .8 3.3 2.8 2.8 0 0 0 2.4 1.1h3.9v2.8h-4.2a5.7 5.7 0 0 1-4.6-1.9 8 8 0 0 1-1.6-5.4v-18H419v-2.6h8.6zm20.2-13.3a7.8 7.8 0 0 1 6.4 2.7q2.2 2.7 2.2 7.8t-2.2 7.8a8.9 8.9 0 0 1-12.8 0q-2.2-2.7-2.2-7.8t2.2-7.8a7.7 7.7 0 0 1 6.4-2.7zm0 2.8a4.3 4.3 0 0 0-3.8 2 10.6 10.6 0 0 0-1.3 5.8 10.6 10.6 0 0 0 1.3 5.7 4.7 4.7 0 0 0 7.6 0 10.6 10.6 0 0 0 1.3-5.8 10.6 10.6 0 0 0-1.3-5.8 4.3 4.3 0 0 0-3.8-1.9zm11.1-2.3h3.3l3.5 16.2 2.9-10.4h2.8l2.9 10.4 3.5-16.2h3.2l-4.7 20.1h-3.2l-3.2-11-3.2 11h-3.2z"/><path fill="#fb3a64" d="M596.2 28.4h178.2v178.23H596.2z"/><path fill="#fff" d="M665.8 116.6a5.1 5.1 0 0 1 2.4 1.4 16.7 16.7 0 0 1 2.5 4l3.6 7.3h-3.9l-3.2-6.8a10.6 10.6 0 0 0-2.5-3.7 4.6 4.6 0 0 0-2.9-.8h-3.5v11.3h-3.6v-26.8h7.5q4.4 0 6.8 2a7.1 7.1 0 0 1 2.3 5.8 6.4 6.4 0 0 1-1.4 4.3 6.3 6.3 0 0 1-4.1 2zm-7.4-11.1v9.5h4a5.6 5.6 0 0 0 3.9-1.2 4.6 4.6 0 0 0 1.3-3.6 4.5 4.5 0 0 0-1.4-3.5 5.7 5.7 0 0 0-3.9-1.2zm35.9 12.1v1.6H680q-.1 4.1 1.6 5.9a6.4 6.4 0 0 0 4.8 1.8 11.7 11.7 0 0 0 3.3-.5 20.3 20.3 0 0 0 3.7-1.5v3.3a22.2 22.2 0 0 1-3.6 1.2 15.7 15.7 0 0 1-3.4.4 9.5 9.5 0 0 1-7.3-2.8 10.8 10.8 0 0 1-2.6-7.7 11 11 0 0 1 2.6-7.7 8.8 8.8 0 0 1 6.9-2.9 7.5 7.5 0 0 1 6 2.6 10 10 0 0 1 2.3 6.3zm-3.3-1a6.4 6.4 0 0 0-1.5-3.6 4.7 4.7 0 0 0-3.7-1.5 5.3 5.3 0 0 0-3.9 1.6 5.6 5.6 0 0 0-1.7 3.5zm20.7-4.8v-10.4h3.3v27.9h-3.3v-2.5a5.7 5.7 0 0 1-2.2 2.3 6.3 6.3 0 0 1-3.2.8 6.7 6.7 0 0 1-5.7-2.8q-2.1-2.8-2.1-7.8t2.1-7.7a6.8 6.8 0 0 1 5.7-2.8 6.4 6.4 0 0 1 3.2.8 5.5 5.5 0 0 1 2.2 2.2zm-9.7 7.5a11.1 11.1 0 0 0 1.2 5.8 4 4 0 0 0 3.6 2 4 4 0 0 0 3.6-2 10.9 10.9 0 0 0 1.2-5.8 10.9 10.9 0 0 0-1.2-5.8 4 4 0 0 0-3.6-2 4 4 0 0 0-3.6 2 11.1 11.1 0 0 0-1.2 5.8z"/><path fill="#ccc" d="M1044 29.4v176.2H867.8V29.4H1044m1-1H866.8v178.2H1045V28.4z"/><path d="M904.9 99.6a36 36 0 0 0-3.6 8.1 29 29 0 0 0 0 16.3 36.7 36.7 0 0 0 3.6 8.2H902a37.3 37.3 0 0 1-4-8.3 25.1 25.1 0 0 1 0-16.1 36.5 36.5 0 0 1 4-8.3zm7.2 3h4.9l10.5 21.9v-21.9h3.9v26.7h-4.9L916 107.4v21.9h-3.9zm32.7 6.1a7.8 7.8 0 0 1 6.4 2.7q2.2 2.7 2.2 7.8t-2.2 7.8a8.9 8.9 0 0 1-12.8 0q-2.2-2.7-2.2-7.8t2.2-7.8a7.7 7.7 0 0 1 6.4-2.7zm0 2.8a4.3 4.3 0 0 0-3.8 2 10.6 10.6 0 0 0-1.3 5.8 10.6 10.6 0 0 0 1.3 5.7 4.7 4.7 0 0 0 7.6 0 10.6 10.6 0 0 0 1.3-5.8 10.6 10.6 0 0 0-1.3-5.8 4.3 4.3 0 0 0-3.8-1.9zm29.9 5.3v12.4h-3.3v-12.4a6.7 6.7 0 0 0-.9-4 3.5 3.5 0 0 0-3-1.3 4.2 4.2 0 0 0-3.6 1.6 7.7 7.7 0 0 0-1.2 4.7v11.3h-3.3v-19.9h3.3v3a6.2 6.2 0 0 1 2.4-2.6 6.9 6.9 0 0 1 3.6-.9 5.4 5.4 0 0 1 4.6 2q1.4 2.1 1.4 6.1zm23.3.8v1.6h-14.2q-.1 4.1 1.6 5.9a6.4 6.4 0 0 0 4.8 1.8 11.7 11.7 0 0 0 3.3-.5 20.3 20.3 0 0 0 3.7-1.5v3.3a22.2 22.2 0 0 1-3.6 1.2 15.7 15.7 0 0 1-3.4.4 9.5 9.5 0 0 1-7.3-2.8 10.8 10.8 0 0 1-2.6-7.7 11 11 0 0 1 2.6-7.7 8.8 8.8 0 0 1 6.9-2.9 7.5 7.5 0 0 1 6 2.6 10 10 0 0 1 2.2 6.3zm-3.3-1a6.4 6.4 0 0 0-1.5-3.6 4.7 4.7 0 0 0-3.7-1.5 5.3 5.3 0 0 0-3.9 1.6 5.6 5.6 0 0 0-1.7 3.5zm11.6-17h2.9a36.6 36.6 0 0 1 4 8.3 25.2 25.2 0 0 1 0 16.1 36.5 36.5 0 0 1-4 8.3h-2.9a37.4 37.4 0 0 0 3.6-8.2 28.8 28.8 0 0 0 0-16.3 36.3 36.3 0 0 0-3.6-8.2zM57.9 247.5h3.2l4.2 11v-11h2.6v15.1h-3.2l-4.2-11v11h-2.6zm12.2 9.4a6.3 6.3 0 0 1 1.4-4.4 5.4 5.4 0 0 1 7.7 0 7.4 7.4 0 0 1 0 8.7 5.4 5.4 0 0 1-7.7 0 6.3 6.3 0 0 1-1.4-4.3zm5.2-3.5a1.9 1.9 0 0 0-1.7.9 5.9 5.9 0 0 0 0 5.2 2 2 0 0 0 3.4 0 5.9 5.9 0 0 0 0-5.2 1.9 1.9 0 0 0-1.6-.9zm29.7 1.8v7.4h-3v-6.9a3.3 3.3 0 0 0-.3-1.8 1.3 1.3 0 0 0-1.1-.5 1.4 1.4 0 0 0-1.3.7 3.7 3.7 0 0 0-.5 2v6.5h-2.9v-15.8h2.9v6.2a2.8 2.8 0 0 1 1.1-1.5 3.2 3.2 0 0 1 1.8-.5 2.9 2.9 0 0 1 2.4 1.1 5.2 5.2 0 0 1 .9 3.1zm12.8 6.8l-2.1.6-2.3.2a5.8 5.8 0 0 1-4.4-1.5 6 6 0 0 1-1.5-4.4 6.3 6.3 0 0 1 1.4-4.4 5.8 5.8 0 0 1 7.9-.1 5.9 5.9 0 0 1 1.4 4.2v1.2h-7.7a2.5 2.5 0 0 0 .8 2 3.5 3.5 0 0 0 2.3.7l2-.3a9.3 9.3 0 0 0 2.1-.9zm-2.5-6.4a2.5 2.5 0 0 0-.6-1.8 2.3 2.3 0 0 0-1.7-.6 2.2 2.2 0 0 0-1.6.6 2.8 2.8 0 0 0-.7 1.8zm7.7 2.3v-8.8h-3v-2.3h6v11a3.3 3.3 0 0 0 .4 1.9 1.6 1.6 0 0 0 1.4.6h2.4v2.3H127a3.8 3.8 0 0 1-3-1.1 5.7 5.7 0 0 1-1-3.6zm13.1 3.1v5.9h-3v-15.6h3v1.7a3.5 3.5 0 0 1 1.2-1.5 3.2 3.2 0 0 1 1.8-.5 3.5 3.5 0 0 1 3 1.6 7.7 7.7 0 0 1 1.1 4.4 7.6 7.6 0 0 1-1.1 4.4 3.6 3.6 0 0 1-3.1 1.5 2.9 2.9 0 0 1-1.6-.5 4.1 4.1 0 0 1-1.3-1.4zm4.1-4.1a5.1 5.1 0 0 0-.5-2.6 1.7 1.7 0 0 0-1.5-.9 1.7 1.7 0 0 0-1.5.9 6.2 6.2 0 0 0 0 5.1 1.7 1.7 0 0 0 1.5.9 1.7 1.7 0 0 0 1.5-.9 5.1 5.1 0 0 0 .5-2.5zm27.3-1.7v7.4h-2.9v-6.9a3.4 3.4 0 0 0-.3-1.8 1.3 1.3 0 0 0-1.1-.5 1.4 1.4 0 0 0-1.3.7 3.7 3.7 0 0 0-.5 2v6.5h-2.9v-11.3h2.9v1.7a2.8 2.8 0 0 1 1.1-1.5 3.2 3.2 0 0 1 1.8-.5 2.9 2.9 0 0 1 2.4 1.1 5.2 5.2 0 0 1 .8 3.1zm12.8 6.8l-2.1.6-2.3.2a5.8 5.8 0 0 1-4.4-1.5 6 6 0 0 1-1.5-4.3 6.3 6.3 0 0 1 1.4-4.4 5.8 5.8 0 0 1 7.9-.1 5.9 5.9 0 0 1 1.4 4.2v1.2H173a2.5 2.5 0 0 0 .8 2 3.5 3.5 0 0 0 2.3.7l2-.3a9.3 9.3 0 0 0 2.1-.9zm-2.5-6.4a2.5 2.5 0 0 0-.6-1.8 2.3 2.3 0 0 0-1.7-.6 2.2 2.2 0 0 0-1.6.6 2.8 2.8 0 0 0-.7 1.8zm15 6.4l-2.1.6-2.3.2a5.8 5.8 0 0 1-4.4-1.5 6 6 0 0 1-1.5-4.4 6.3 6.3 0 0 1 1.4-4.4 5.8 5.8 0 0 1 7.9-.1 5.9 5.9 0 0 1 1.4 4.2v1.2h-7.7a2.5 2.5 0 0 0 .8 2 3.5 3.5 0 0 0 2.3.7l2-.3a9.3 9.3 0 0 0 2.1-.9zm-2.5-6.4a2.5 2.5 0 0 0-.6-1.8 2.3 2.3 0 0 0-1.7-.6 2.2 2.2 0 0 0-1.6.6 2.8 2.8 0 0 0-.7 1.8zm11.8-2.7v-6h3v15.8h-3V261a3.6 3.6 0 0 1-1.2 1.5 3.2 3.2 0 0 1-1.8.5 3.5 3.5 0 0 1-3-1.6 7.7 7.7 0 0 1-1.1-4.4 7.6 7.6 0 0 1 1.1-4.4 3.6 3.6 0 0 1 3.1-1.5 2.9 2.9 0 0 1 1.6.5 4.1 4.1 0 0 1 1.3 1.3zM198 257a5.1 5.1 0 0 0 .5 2.6 1.7 1.7 0 0 0 1.5.9 1.7 1.7 0 0 0 1.5-.9 6.2 6.2 0 0 0 0-5.1 1.7 1.7 0 0 0-1.5-.9 1.7 1.7 0 0 0-1.5.9 5.1 5.1 0 0 0-.5 2.5zm19.8 5l-2.1.6-2.3.2a5.8 5.8 0 0 1-4.4-1.5 6 6 0 0 1-1.5-4.4 6.3 6.3 0 0 1 1.4-4.4 5.8 5.8 0 0 1 7.9-.1 5.9 5.9 0 0 1 1.4 4.2v1.2h-7.7a2.5 2.5 0 0 0 .8 2 3.5 3.5 0 0 0 2.3.7l2-.3a9.3 9.3 0 0 0 2.1-.9zm-2.5-6.4a2.5 2.5 0 0 0-.6-1.8 2.3 2.3 0 0 0-1.7-.6 2.2 2.2 0 0 0-1.6.6 2.8 2.8 0 0 0-.7 1.8zm11.8-2.7v-6h3v15.8h-3V261a3.6 3.6 0 0 1-1.2 1.5 3.2 3.2 0 0 1-1.8.5 3.5 3.5 0 0 1-3-1.6 7.7 7.7 0 0 1-1.1-4.4 7.6 7.6 0 0 1 1.1-4.4 3.6 3.6 0 0 1 3.1-1.5 2.9 2.9 0 0 1 1.6.5 4.1 4.1 0 0 1 1.3 1.3zM223 257a5.1 5.1 0 0 0 .5 2.6 1.7 1.7 0 0 0 1.5.9 1.7 1.7 0 0 0 1.5-.9 6.2 6.2 0 0 0 0-5.1 1.7 1.7 0 0 0-1.5-.9 1.7 1.7 0 0 0-1.5.9 5.1 5.1 0 0 0-.5 2.5zM25.4 272.4h2l1.4 12.3 1.7-8.1h2.1l1.7 8.1 1.4-12.3h2l-2.3 15.1h-1.7l-2.1-9-2 9h-1.9zm18.7 3.5a4.4 4.4 0 0 1 3.6 1.5 8.5 8.5 0 0 1 0 8.9 4.4 4.4 0 0 1-3.6 1.5 4.4 4.4 0 0 1-3.6-1.5 8.5 8.5 0 0 1 0-8.9 4.4 4.4 0 0 1 3.6-1.5zm0 1.6a2.4 2.4 0 0 0-2.1 1.1 7.7 7.7 0 0 0 0 6.5 2.6 2.6 0 0 0 4.3 0 7.7 7.7 0 0 0 0-6.5 2.4 2.4 0 0 0-2.2-1.1zm18 1l-1.2-.7-1.4-.2a3.3 3.3 0 0 0-2.7 1.1 4.8 4.8 0 0 0-.9 3.2v5.6h-1.8v-11.3H56v2.2a3.8 3.8 0 0 1 1.4-1.8 4.1 4.1 0 0 1 2.3-.6l1.3.2 1.1.5zm3.2-6.8h1.9v9.1l4.9-4.7h2.3l-4.5 4.3 5.2 7.1h-2.3l-4.2-5.9-1.4 1.4v4.5h-1.9zm13.3 4.5h4.8v9.9h3.7v1.4h-9.3v-1.4h3.7v-8.4h-2.9zm2.9-4.4h1.9v2.4h-1.9zm17 8.7v7h-1.8v-7a3.8 3.8 0 0 0-.5-2.2 2 2 0 0 0-1.7-.7 2.4 2.4 0 0 0-2 .9 4.3 4.3 0 0 0-.7 2.7v6.4h-1.9v-11.4h1.9v1.7a3.5 3.5 0 0 1 1.3-1.5 3.9 3.9 0 0 1 2-.5 3 3 0 0 1 2.6 1.1 5.7 5.7 0 0 1 .8 3.5zm12.4 6.3a5.6 5.6 0 0 1-1.2 3.9 4.6 4.6 0 0 1-3.5 1.3h-1.6l-1.7-.4v-1.8l1.8.7 1.5.2a2.7 2.7 0 0 0 2.2-.8 4 4 0 0 0 .7-2.6V286a3.2 3.2 0 0 1-1.2 1.4 3.6 3.6 0 0 1-1.9.5 3.8 3.8 0 0 1-3.2-1.6 8.3 8.3 0 0 1 0-8.5 3.8 3.8 0 0 1 3.2-1.6 3.7 3.7 0 0 1 1.9.4 3.2 3.2 0 0 1 1.2 1.3v-1.5h1.9zm-1.9-5a6 6 0 0 0-.7-3.2 2.2 2.2 0 0 0-2-1.1 2.3 2.3 0 0 0-2.1 1.1 7.4 7.4 0 0 0 0 6.4 2.4 2.4 0 0 0 2.1 1.1 2.2 2.2 0 0 0 2-1.1 6.1 6.1 0 0 0 .8-3.3zm22.6-5.9a4.4 4.4 0 0 1 3.6 1.5 8.5 8.5 0 0 1 0 8.9 5 5 0 0 1-7.2 0 8.5 8.5 0 0 1 0-8.9 4.4 4.4 0 0 1 3.6-1.5zm0 1.6a2.4 2.4 0 0 0-2.1 1.1 7.7 7.7 0 0 0 0 6.5 2.6 2.6 0 0 0 4.3 0 7.7 7.7 0 0 0 0-6.5 2.4 2.4 0 0 0-2.2-1.1zm18 1l-1.2-.7-1.4-.2a3.3 3.3 0 0 0-2.7 1.1 4.8 4.8 0 0 0-.9 3.2v5.6h-1.9v-11.3h1.9v2.2a3.8 3.8 0 0 1 1.4-1.8 4.1 4.1 0 0 1 2.3-.6l1.3.2 1.1.5zm13.3-2.3h1.8l2 9.2 1.6-5.9h1.6l1.6 5.9 2-9.2h1.8l-2.7 11.4h-1.8l-1.8-6.2-1.8 6.2h-1.8zm23.2 4.8v6.5h-1.9v-1.7a3.8 3.8 0 0 1-1.5 1.5 4.6 4.6 0 0 1-2.2.5 3.9 3.9 0 0 1-2.8-1 3.9 3.9 0 0 1 .2-5.5 6 6 0 0 1 3.7-1h2.5v-.3a2.6 2.6 0 0 0-.7-2 3.2 3.2 0 0 0-2.2-.6l-1.9.3-1.9.8v-1.9l2-.6 1.8-.2a6.3 6.3 0 0 1 2.4.4 3.8 3.8 0 0 1 1.6 1.2 3.1 3.1 0 0 1 .5 1.3 11.4 11.4 0 0 1 .4 2.3zm-3.6.8h-.6a4.3 4.3 0 0 0-2.5.6 1.9 1.9 0 0 0-.8 1.7 2.1 2.1 0 0 0 .6 1.6 2.4 2.4 0 0 0 1.7.6 3 3 0 0 0 2.4-1.1 4.6 4.6 0 0 0 .9-3v-.4zm11.6-8.9v3.2h4.2v1.4h-4.2v6.2a2.5 2.5 0 0 0 .5 1.8 2.2 2.2 0 0 0 1.7.5h2.1v1.5H196a4.2 4.2 0 0 1-3-.8 4 4 0 0 1-.9-2.9v-6.2h-3v-1.4h3V273zm17 14l-1.5.7-1.6.2a5.4 5.4 0 0 1-4.1-1.6 7.2 7.2 0 0 1 0-8.8 5.4 5.4 0 0 1 4.1-1.6l1.6.2 1.6.7v2a5.1 5.1 0 0 0-1.5-1 4.6 4.6 0 0 0-1.7-.3 3.3 3.3 0 0 0-2.7 1.1 6 6 0 0 0 0 6.5 3.3 3.3 0 0 0 2.7 1.1 4.8 4.8 0 0 0 1.7-.3 4.3 4.3 0 0 0 1.4-.9zm12.4-6.4v7h-1.9v-7a3.8 3.8 0 0 0-.5-2.2 2 2 0 0 0-1.7-.7 2.4 2.4 0 0 0-2 .9 4.3 4.3 0 0 0-.7 2.7v6.4h-1.9v-15.9h1.9v6.1a3.5 3.5 0 0 1 1.3-1.5 3.9 3.9 0 0 1 2-.5 3 3 0 0 1 2.6 1.1 5.7 5.7 0 0 1 .9 3.6zm5-4.3h4.8v9.9h3.7v1.4h-9.3v-1.4h3.7v-8.4h-2.9zm2.9-4.4h1.9v2.4h-1.9zm17.1 8.7v7h-1.9v-7a3.8 3.8 0 0 0-.5-2.2 2 2 0 0 0-1.7-.7 2.4 2.4 0 0 0-2 .9 4.3 4.3 0 0 0-.7 2.7v6.4h-1.9v-11.4h1.9v1.7a3.5 3.5 0 0 1 1.3-1.5 3.9 3.9 0 0 1 2-.5 3 3 0 0 1 2.6 1.1 5.7 5.7 0 0 1 .9 3.5zm12.4 6.3a5.5 5.5 0 0 1-1.2 3.9 4.6 4.6 0 0 1-3.5 1.3h-1.6l-1.7-.4v-1.8l1.8.7 1.5.2a2.7 2.7 0 0 0 2.2-.8 4 4 0 0 0 .7-2.6V286a3.2 3.2 0 0 1-1.2 1.4 3.6 3.6 0 0 1-1.9.5 3.8 3.8 0 0 1-3.2-1.6 8.2 8.2 0 0 1 0-8.5 3.8 3.8 0 0 1 3.2-1.6 3.7 3.7 0 0 1 1.9.4 3.2 3.2 0 0 1 1.2 1.3v-1.5h1.9zm-1.9-5a6 6 0 0 0-.7-3.2 2.2 2.2 0 0 0-2-1.1 2.4 2.4 0 0 0-2.1 1.1 7.4 7.4 0 0 0 0 6.4 2.4 2.4 0 0 0 2.1 1.1 2.2 2.2 0 0 0 2-1.1 6.1 6.1 0 0 0 .7-3.3zm88.4-34.3h3v5.8h3.7v-5.8h3v15.1h-3v-6.7h-3.7v6.7h-3zm22.2 14.5l-2.1.6-2.3.2a5.8 5.8 0 0 1-4.4-1.5 6 6 0 0 1-1.5-4.4 6.3 6.3 0 0 1 1.4-4.4 5.8 5.8 0 0 1 7.9-.1 5.9 5.9 0 0 1 1.4 4.2v1.2h-7.7a2.5 2.5 0 0 0 .8 2 3.5 3.5 0 0 0 2.3.7l2-.3a9.3 9.3 0 0 0 2.1-.9zm-2.5-6.4a2.5 2.5 0 0 0-.6-1.8 2.3 2.3 0 0 0-1.7-.6 2.2 2.2 0 0 0-1.6.6 2.8 2.8 0 0 0-.7 1.8zm7.8 2.3v-8.8h-3v-2.3h6v11a3.3 3.3 0 0 0 .4 1.9 1.6 1.6 0 0 0 1.4.6h2.4v2.3h-3.2a3.8 3.8 0 0 1-3-1.1 5.7 5.7 0 0 1-1-3.6zm13 3.1v5.9h-3v-15.6h3v1.7a3.5 3.5 0 0 1 1.2-1.5 3.2 3.2 0 0 1 1.8-.5 3.5 3.5 0 0 1 3 1.6 7.7 7.7 0 0 1 1.1 4.4 7.6 7.6 0 0 1-1.1 4.4 3.6 3.6 0 0 1-3.1 1.5 2.9 2.9 0 0 1-1.6-.5 4.1 4.1 0 0 1-1.3-1.4zm4.1-4.1a5.1 5.1 0 0 0-.5-2.6 1.7 1.7 0 0 0-1.5-.9 1.7 1.7 0 0 0-1.5.9 6.2 6.2 0 0 0 0 5.1 1.7 1.7 0 0 0 1.5.9 1.7 1.7 0 0 0 1.5-.9 5.1 5.1 0 0 0 .6-2.5zm27.3-1.7v7.4h-2.9v-6.9a3.3 3.3 0 0 0-.3-1.8 1.3 1.3 0 0 0-1.1-.5 1.4 1.4 0 0 0-1.3.7 3.7 3.7 0 0 0-.5 2v6.5h-2.9v-11.3h2.9v1.7a2.8 2.8 0 0 1 1.1-1.5 3.2 3.2 0 0 1 1.8-.5 2.9 2.9 0 0 1 2.4 1.1 5.2 5.2 0 0 1 .8 3.1zm12.8 6.8l-2.1.6-2.3.2a5.8 5.8 0 0 1-4.4-1.5 6 6 0 0 1-1.5-4.4 6.3 6.3 0 0 1 1.4-4.4 5.8 5.8 0 0 1 7.9-.1 5.9 5.9 0 0 1 1.4 4.2v1.2h-7.7a2.5 2.5 0 0 0 .8 2 3.5 3.5 0 0 0 2.3.7l2-.3a9.3 9.3 0 0 0 2.1-.9zm-2.5-6.4a2.5 2.5 0 0 0-.6-1.8 2.3 2.3 0 0 0-1.7-.6 2.2 2.2 0 0 0-1.6.6 2.8 2.8 0 0 0-.7 1.8zm15 6.4l-2.1.6-2.3.2a5.8 5.8 0 0 1-4.4-1.5 6 6 0 0 1-1.5-4.4 6.3 6.3 0 0 1 1.4-4.4 5.8 5.8 0 0 1 7.9-.1 5.9 5.9 0 0 1 1.4 4.2v1.2h-7.7a2.5 2.5 0 0 0 .8 2 3.5 3.5 0 0 0 2.3.7l2-.3a9.3 9.3 0 0 0 2.1-.9zm-2.5-6.4a2.5 2.5 0 0 0-.6-1.8 2.3 2.3 0 0 0-1.7-.6 2.2 2.2 0 0 0-1.6.6 2.8 2.8 0 0 0-.7 1.8zm11.9-2.7v-6h3v15.8h-3V261a3.6 3.6 0 0 1-1.2 1.5 3.2 3.2 0 0 1-1.8.5 3.5 3.5 0 0 1-3-1.6 7.7 7.7 0 0 1-1.1-4.4 7.6 7.6 0 0 1 1.1-4.4 3.6 3.6 0 0 1 3.1-1.5 2.9 2.9 0 0 1 1.6.5 4.1 4.1 0 0 1 1.3 1.3zm-4.1 4.1a5.1 5.1 0 0 0 .5 2.6 1.7 1.7 0 0 0 1.5.9 1.7 1.7 0 0 0 1.5-.9 6.2 6.2 0 0 0 0-5.1 1.7 1.7 0 0 0-1.5-.9 1.7 1.7 0 0 0-1.5.9 5.1 5.1 0 0 0-.6 2.5zm19.7 5l-2.1.6-2.3.2a5.8 5.8 0 0 1-4.4-1.5 6 6 0 0 1-1.5-4.4 6.3 6.3 0 0 1 1.4-4.4 5.8 5.8 0 0 1 7.9-.1 5.9 5.9 0 0 1 1.4 4.2v1.2h-7.7a2.5 2.5 0 0 0 .8 2 3.5 3.5 0 0 0 2.3.7l2-.3a9.3 9.3 0 0 0 2.1-.9zm-2.5-6.4a2.5 2.5 0 0 0-.6-1.8 2.3 2.3 0 0 0-1.7-.6 2.2 2.2 0 0 0-1.6.6 2.8 2.8 0 0 0-.7 1.8zm11.9-2.7v-6h3v15.8h-3V261a3.6 3.6 0 0 1-1.2 1.5 3.2 3.2 0 0 1-1.8.5 3.5 3.5 0 0 1-3-1.6 7.7 7.7 0 0 1-1.1-4.4 7.6 7.6 0 0 1 1.1-4.4 3.6 3.6 0 0 1 3-1.6 2.9 2.9 0 0 1 1.6.5 4.1 4.1 0 0 1 1.4 1.4zm-4.1 4.1a5.1 5.1 0 0 0 .5 2.6 1.7 1.7 0 0 0 1.5.9 1.7 1.7 0 0 0 1.5-.9 6.2 6.2 0 0 0 0-5.1 1.7 1.7 0 0 0-1.5-.9 1.7 1.7 0 0 0-1.5.9 5.1 5.1 0 0 0-.6 2.5zm-180.1 15.4h2.5l4.6 15.1h-2.1l-1.1-3.9h-5.3l-1.1 3.9h-2.1zm1.2 1.8l-2.2 7.7h4.3zm16.9 6.3v7H311v-7a3.8 3.8 0 0 0-.5-2.2 2 2 0 0 0-1.7-.7 2.4 2.4 0 0 0-2 .9 4.3 4.3 0 0 0-.7 2.7v6.4h-1.9v-11.4h1.9v1.7a3.5 3.5 0 0 1 1.3-1.5 3.9 3.9 0 0 1 2-.5 3 3 0 0 1 2.6 1.1 5.7 5.7 0 0 1 .9 3.5zm10.5 3.4l-1.2 3.1a30 30 0 0 1-1.3 3.3 3.2 3.2 0 0 1-1.2 1.2 3.3 3.3 0 0 1-1.6.4h-1.5v-1.6h1.1a1.7 1.7 0 0 0 1.3-.5 8.2 8.2 0 0 0 1.2-2.5l-4.4-11.2h2l3.4 8.9 3.3-8.9h2zm7.7-6.3a3.1 3.1 0 0 1 1.2-1.3 3.6 3.6 0 0 1 1.8-.4 3.8 3.8 0 0 1 3.2 1.6 7.1 7.1 0 0 1 1.2 4.3 7.3 7.3 0 0 1-1.2 4.4 3.8 3.8 0 0 1-3.2 1.6 3.6 3.6 0 0 1-1.8-.4 3.2 3.2 0 0 1-1.2-1.3v1.4h-1.9v-15.8h1.9zm5.5 4.2a6.3 6.3 0 0 0-.7-3.3 2.3 2.3 0 0 0-2-1.1 2.3 2.3 0 0 0-2.1 1.1 8 8 0 0 0 0 6.5 2.3 2.3 0 0 0 2.1 1.1 2.3 2.3 0 0 0 2-1.1 6.3 6.3 0 0 0 .6-3.2zm9.4-5.9a4.4 4.4 0 0 1 3.6 1.5 8.5 8.5 0 0 1 0 8.9 5 5 0 0 1-7.2 0 8.5 8.5 0 0 1 0-8.9 4.4 4.4 0 0 1 3.6-1.5zm0 1.6a2.4 2.4 0 0 0-2.1 1.1 7.7 7.7 0 0 0 0 6.5 2.6 2.6 0 0 0 4.3 0 7.7 7.7 0 0 0 0-6.5 2.4 2.4 0 0 0-2.2-1.1zm14.9.1v-5.9h1.9v15.8h-1.9v-1.4a3.2 3.2 0 0 1-1.2 1.3 3.6 3.6 0 0 1-1.8.4 3.8 3.8 0 0 1-3.2-1.6 7.3 7.3 0 0 1-1.2-4.4 7.1 7.1 0 0 1 1.2-4.3 3.8 3.8 0 0 1 3.2-1.6 3.6 3.6 0 0 1 1.8.4 3.1 3.1 0 0 1 1.2 1.3zm-5.5 4.2a6.3 6.3 0 0 0 .7 3.3 2.3 2.3 0 0 0 2 1.1 2.3 2.3 0 0 0 2.1-1.1 7.9 7.9 0 0 0 0-6.5 2.3 2.3 0 0 0-2.1-1.1 2.3 2.3 0 0 0-2 1.1 6.3 6.3 0 0 0-.7 3.2zm18 2.1l-1.2 3.1a30 30 0 0 1-1.3 3.3 3.2 3.2 0 0 1-1.2 1.2 3.3 3.3 0 0 1-1.6.4h-1.5v-1.6h1.1a1.7 1.7 0 0 0 1.3-.5 8.2 8.2 0 0 0 1.2-2.5l-4.4-11.2h2l3.4 8.9 3.3-8.9h2zm27.1 3l-1.5.7-1.6.2a5.4 5.4 0 0 1-4.1-1.6 7.2 7.2 0 0 1 0-8.8 5.4 5.4 0 0 1 4.1-1.6l1.6.2 1.6.7v2a5.1 5.1 0 0 0-1.5-1 4.6 4.6 0 0 0-1.7-.3 3.3 3.3 0 0 0-2.7 1.1 6 6 0 0 0 0 6.5 3.3 3.3 0 0 0 2.7 1.1 4.8 4.8 0 0 0 1.7-.3 4.3 4.3 0 0 0 1.4-.9zm12.4-5.9v6.5H411v-1.7a3.8 3.8 0 0 1-1.5 1.5 4.6 4.6 0 0 1-2.2.5 3.9 3.9 0 0 1-2.8-1 3.9 3.9 0 0 1 .2-5.5 6 6 0 0 1 3.7-1h2.5v-.3a2.6 2.6 0 0 0-.7-2 3.2 3.2 0 0 0-2.2-.6l-1.9.3-1.9.8v-1.9l2-.6 1.8-.2a6.3 6.3 0 0 1 2.4.4 3.8 3.8 0 0 1 1.6 1.2 3.1 3.1 0 0 1 .5 1.3 11.4 11.4 0 0 1 .4 2.3zm-3.6.8h-.6a4.3 4.3 0 0 0-2.5.6 1.9 1.9 0 0 0-.8 1.7 2.1 2.1 0 0 0 .6 1.6 2.4 2.4 0 0 0 1.7.6 3 3 0 0 0 2.4-1.1 4.6 4.6 0 0 0 .9-3v-.4zm16.1-1.3v7h-1.9v-7a3.8 3.8 0 0 0-.5-2.2 2 2 0 0 0-1.7-.7 2.4 2.4 0 0 0-2 .9 4.3 4.3 0 0 0-.7 2.7v6.4h-1.9v-11.4h1.9v1.7a3.5 3.5 0 0 1 1.3-1.5 3.9 3.9 0 0 1 2-.5 3 3 0 0 1 2.6 1.1 5.7 5.7 0 0 1 .9 3.5zm24.9 0v7h-1.9v-7a3.8 3.8 0 0 0-.5-2.2 2 2 0 0 0-1.7-.7 2.4 2.4 0 0 0-2 .9 4.3 4.3 0 0 0-.7 2.7v6.4h-1.9v-15.9h1.9v6.1a3.5 3.5 0 0 1 1.3-1.5 3.9 3.9 0 0 1 2-.5 3 3 0 0 1 2.6 1.1 5.7 5.7 0 0 1 .9 3.6zm13.2.4v.9h-8.1a4.5 4.5 0 0 0 .9 3.3 3.6 3.6 0 0 0 2.7 1l1.9-.3 2.1-.9v1.9l-2.1.7-1.9.2a5.4 5.4 0 0 1-4.1-1.6 6.1 6.1 0 0 1-1.5-4.4 6.2 6.2 0 0 1 1.5-4.3 5 5 0 0 1 3.9-1.6 4.3 4.3 0 0 1 3.4 1.5 5.6 5.6 0 0 1 1.3 3.6zm-1.9-.5a3.6 3.6 0 0 0-.9-2 2.6 2.6 0 0 0-2.1-.9 3 3 0 0 0-2.2.9 3.1 3.1 0 0 0-1 2zm10.4 3a3.2 3.2 0 0 0 .5 1.9 1.6 1.6 0 0 0 1.4.6h2.1v1.6h-2.4a3.2 3.2 0 0 1-2.6-1.1 4.5 4.5 0 0 1-.9-3v-10.3h-3v-1.5h4.9zm9 2.7v5.7h-1.9v-15.6h1.9v1.4a3.2 3.2 0 0 1 1.2-1.3 3.6 3.6 0 0 1 1.8-.4 3.8 3.8 0 0 1 3.2 1.6 7.3 7.3 0 0 1 1.2 4.4 7.1 7.1 0 0 1-1.2 4.3 3.8 3.8 0 0 1-3.2 1.6 3.6 3.6 0 0 1-1.8-.4 3.1 3.1 0 0 1-1.2-1.3zm5.5-4.2a6.3 6.3 0 0 0-.7-3.3 2.2 2.2 0 0 0-2-1.1 2.3 2.3 0 0 0-2.1 1.1 8 8 0 0 0 0 6.5 2.3 2.3 0 0 0 2.1 1.1 2.2 2.2 0 0 0 2-1.1 6.3 6.3 0 0 0 .7-3.3zm21.9-6a4.4 4.4 0 0 1 3.6 1.5 8.5 8.5 0 0 1 0 8.9 5 5 0 0 1-7.2 0 8.5 8.5 0 0 1 0-8.9 4.4 4.4 0 0 1 3.6-1.5zm0 1.6a2.4 2.4 0 0 0-2.1 1.1 7.7 7.7 0 0 0 0 6.5 2.6 2.6 0 0 0 4.3 0 7.7 7.7 0 0 0 0-6.5 2.4 2.4 0 0 0-2.2-1.1zm8.2 5.7v-7h1.9v7a3.8 3.8 0 0 0 .5 2.3 2 2 0 0 0 1.7.7 2.4 2.4 0 0 0 2-.9 4.4 4.4 0 0 0 .7-2.7v-6.4h1.9v11.3h-1.9v-1.7a3.5 3.5 0 0 1-1.4 1.5 3.9 3.9 0 0 1-2 .5 3 3 0 0 1-2.6-1.1 5.8 5.8 0 0 1-.8-3.5zm16.8-10.3v3.2h4.2v1.4h-4.2v6.2a2.5 2.5 0 0 0 .5 1.8 2.2 2.2 0 0 0 1.7.5h2.1v1.5h-2.3a4.2 4.2 0 0 1-3-.8 4 4 0 0 1-.9-2.9v-6.2h-3v-1.4h3V273zm78.3-25.4h3v5.8h3.7v-5.8h3v15.1h-3v-6.7h-3.7v6.7h-3zM634 262l-2.1.6-2.3.2a5.8 5.8 0 0 1-4.4-1.5 6 6 0 0 1-1.5-4.4 6.3 6.3 0 0 1 1.4-4.4 5.8 5.8 0 0 1 7.9-.1 5.9 5.9 0 0 1 1.4 4.2v1.2h-7.7a2.5 2.5 0 0 0 .8 2 3.5 3.5 0 0 0 2.3.7l2-.3a9.3 9.3 0 0 0 2.1-.9zm-2.5-6.4a2.5 2.5 0 0 0-.6-1.8 2.3 2.3 0 0 0-1.7-.6 2.2 2.2 0 0 0-1.6.6 2.8 2.8 0 0 0-.7 1.8zm7.7 2.3v-8.8h-3v-2.3h6v11a3.3 3.3 0 0 0 .4 1.9 1.6 1.6 0 0 0 1.4.6h2.4v2.3h-3.2a3.8 3.8 0 0 1-3-1.1 5.7 5.7 0 0 1-1-3.6zm13.1 3.1v5.9h-3v-15.6h3v1.7a3.5 3.5 0 0 1 1.2-1.5 3.2 3.2 0 0 1 1.8-.5 3.5 3.5 0 0 1 3 1.6 7.7 7.7 0 0 1 1.1 4.4 7.6 7.6 0 0 1-1.1 4.4 3.6 3.6 0 0 1-3.1 1.5 2.9 2.9 0 0 1-1.6-.5 4.1 4.1 0 0 1-1.3-1.4zm4.1-4.1a5.1 5.1 0 0 0-.5-2.6 1.7 1.7 0 0 0-1.5-.9 1.7 1.7 0 0 0-1.5.9 6.2 6.2 0 0 0 0 5.1 1.7 1.7 0 0 0 1.5.9 1.7 1.7 0 0 0 1.5-.9 5.1 5.1 0 0 0 .5-2.5zm23.9-6.6v1h3.5v2.3h-3.5v9.1h-3v-9.1h-2.8v-2.3h2.8v-.8a3.8 3.8 0 0 1 .9-2.8 4.7 4.7 0 0 1 3.2-.8h2.4v2.3h-2.3a1.3 1.3 0 0 0-.9.2 1.4 1.4 0 0 0-.3.9zm16.7 4.1a3.2 3.2 0 0 0-1.1-.7l-1.4-.2a3.9 3.9 0 0 0-1.6.3 2.5 2.5 0 0 0-1.1 1 2.6 2.6 0 0 0-.3.9 10.4 10.4 0 0 0-.1 1.7v5.2h-3v-11.3h3v1.7a3.2 3.2 0 0 1 1.3-1.5 4.1 4.1 0 0 1 2.1-.5h1.2l1.1.4zm1.8 2.5a6.3 6.3 0 0 1 1.4-4.4 5.4 5.4 0 0 1 7.7 0 7.4 7.4 0 0 1 0 8.7 5.4 5.4 0 0 1-7.7 0 6.3 6.3 0 0 1-1.4-4.3zm5.3-3.5a1.9 1.9 0 0 0-1.7.9 5.9 5.9 0 0 0 0 5.2 2 2 0 0 0 3.4 0 5.9 5.9 0 0 0 0-5.2 1.9 1.9 0 0 0-1.8-.9zm13.2-1a2.5 2.5 0 0 1 .9-1.1 2.2 2.2 0 0 1 1.3-.3 2.1 2.1 0 0 1 2 1 10.2 10.2 0 0 1 .6 4.2v6.4h-2.4v-7.3a4.8 4.8 0 0 0-.2-1.7.7.7 0 0 0-.7-.4.7.7 0 0 0-.7.4 4.6 4.6 0 0 0-.2 1.7v7.3h-2.4v-7.3a4.6 4.6 0 0 0-.2-1.7.7.7 0 0 0-.7-.4.7.7 0 0 0-.7.4 4.8 4.8 0 0 0-.2 1.7v7.3h-2.4v-11.3h2.2v1.2a2.2 2.2 0 0 1 .8-1.1 2.2 2.2 0 0 1 2.5 0 1.6 1.6 0 0 1 .5 1zm25.7 10.2h-3v-12.5h-3.8v-2.6h10.7v2.6H743zm9.2-15.1h3.7l4.1 15.1h-3l-.9-3.7h-4l-.9 3.7h-3zm1.8 2.7l-1.4 6.2h2.8zm-182.4 22.2h2.5l4.6 15.1h-2.1l-1.1-3.9h-5.3l-1.1 3.9H567zm1.2 1.8l-2.2 7.7h4.4zm13.6 9.2a3.2 3.2 0 0 0 .5 1.9 1.6 1.6 0 0 0 1.4.6h2.2v1.6H588a3.2 3.2 0 0 1-2.6-1.1 4.5 4.5 0 0 1-.9-3v-10.3h-3v-1.5h4.9zm5.2-7.2h1.8l2 9.2 1.6-5.9h1.6l1.6 5.9 2-9.2h1.8l-2.7 11.4h-1.8l-1.8-6.2-1.8 6.2h-1.8zm23.2 4.8v6.5h-1.9v-1.7a3.8 3.8 0 0 1-1.5 1.5 4.6 4.6 0 0 1-2.2.5 3.9 3.9 0 0 1-2.8-1 3.9 3.9 0 0 1 .2-5.5 6 6 0 0 1 3.7-1h2.5v-.3a2.6 2.6 0 0 0-.7-2 3.2 3.2 0 0 0-2.2-.6l-1.9.3-1.9.8v-1.9l2-.6 1.8-.2a6.3 6.3 0 0 1 2.4.4 3.8 3.8 0 0 1 1.6 1.2 3.1 3.1 0 0 1 .5 1.3 11.4 11.4 0 0 1 .4 2.3zm-3.6.8h-.6a4.3 4.3 0 0 0-2.5.6 1.9 1.9 0 0 0-.8 1.7 2.1 2.1 0 0 0 .6 1.6 2.4 2.4 0 0 0 1.7.6 3 3 0 0 0 2.4-1.1 4.6 4.6 0 0 0 .9-3v-.4zm14.1 2.1l-1.2 3.1a30 30 0 0 1-1.3 3.3 3.2 3.2 0 0 1-1.2 1.2 3.3 3.3 0 0 1-1.6.4h-1.5v-1.6h1.1a1.7 1.7 0 0 0 1.3-.5 8.2 8.2 0 0 0 1.2-2.5l-4.4-11.2h2l3.3 8.9 3.3-8.9h2zm13.6-7.3v1.8l-1.6-.7-1.7-.2a3.5 3.5 0 0 0-1.9.4 1.4 1.4 0 0 0-.6 1.3 1.4 1.4 0 0 0 .5 1.1 6.4 6.4 0 0 0 2.3.7h.8a3.7 3.7 0 0 1 2.1 1.1 3 3 0 0 1 .7 2.1 3.2 3.2 0 0 1-1.2 2.6 5.2 5.2 0 0 1-3.3.9l-1.8-.2-2-.5v-1.9l2 .8 1.8.3a3.2 3.2 0 0 0 1.9-.5 1.6 1.6 0 0 0 .7-1.4q0-1.3-2.5-1.8h-.8a4.5 4.5 0 0 1-2.4-1.1 2.8 2.8 0 0 1-.7-2 3 3 0 0 1 1.1-2.5 4.9 4.9 0 0 1 3.2-.9l1.8.2zm25.8 3.9v7h-1.9v-7a3.8 3.8 0 0 0-.5-2.2 2 2 0 0 0-1.7-.7 2.4 2.4 0 0 0-2 .9 4.3 4.3 0 0 0-.7 2.7v6.4H656v-15.9h1.9v6.1a3.5 3.5 0 0 1 1.3-1.5 3.9 3.9 0 0 1 2-.5 3 3 0 0 1 2.6 1.1 5.7 5.7 0 0 1 .9 3.6zm12.6.5v6.5h-1.9v-1.7a3.8 3.8 0 0 1-1.5 1.5 4.6 4.6 0 0 1-2.2.5 3.9 3.9 0 0 1-2.8-1 3.9 3.9 0 0 1 .2-5.5 6 6 0 0 1 3.7-1h2.5v-.3a2.6 2.6 0 0 0-.7-2 3.2 3.2 0 0 0-2.2-.6l-1.9.3-1.9.8v-1.9l2-.6 1.8-.2a6.3 6.3 0 0 1 2.4.4 3.8 3.8 0 0 1 1.6 1.2 3.1 3.1 0 0 1 .5 1.3 11.4 11.4 0 0 1 .4 2.3zm-3.6.8h-.7a4.3 4.3 0 0 0-2.5.6 1.9 1.9 0 0 0-.8 1.7 2.1 2.1 0 0 0 .6 1.6 2.4 2.4 0 0 0 1.7.6 3 3 0 0 0 2.4-1.1 4.6 4.6 0 0 0 .9-3v-.4zm15.2-5.2v1.8l-1.6-.7-1.7-.2a3.5 3.5 0 0 0-1.9.4 1.4 1.4 0 0 0-.6 1.3 1.4 1.4 0 0 0 .5 1.1 6.4 6.4 0 0 0 2.3.7h.8a3.7 3.7 0 0 1 2.1 1.1 3 3 0 0 1 .7 2.1 3.2 3.2 0 0 1-1.2 2.6 5.2 5.2 0 0 1-3.3.9l-1.8-.2-2-.5v-1.9l2 .8 1.8.3a3.2 3.2 0 0 0 1.9-.5 1.6 1.6 0 0 0 .7-1.4q0-1.3-2.5-1.8h-.8a4.5 4.5 0 0 1-2.4-1.1 2.8 2.8 0 0 1-.7-2 3 3 0 0 1 1.1-2.5 4.9 4.9 0 0 1 3.2-.9l1.8.2zm18.9 9.5v5.7H706v-15.6h1.9v1.4a3.2 3.2 0 0 1 1.2-1.3 3.6 3.6 0 0 1 1.8-.4 3.8 3.8 0 0 1 3.2 1.6 7.3 7.3 0 0 1 1.2 4.4 7.1 7.1 0 0 1-1.2 4.3 3.8 3.8 0 0 1-3.2 1.6 3.6 3.6 0 0 1-1.8-.4 3.1 3.1 0 0 1-1.3-1.3zm5.5-4.2a6.3 6.3 0 0 0-.7-3.3 2.2 2.2 0 0 0-2-1.1 2.3 2.3 0 0 0-2.1 1.1 8 8 0 0 0 0 6.5 2.3 2.3 0 0 0 2.1 1.1 2.2 2.2 0 0 0 2-1.1 6.3 6.3 0 0 0 .7-3.3zm14.9-3.4l-1.2-.7-1.4-.2a3.3 3.3 0 0 0-2.7 1.1 4.8 4.8 0 0 0-.9 3.2v5.6h-1.9v-11.3h1.9v2.2a3.8 3.8 0 0 1 1.4-1.8 4.1 4.1 0 0 1 2.3-.6l1.3.2 1.1.5zm4-2.3h4.8v9.9h3.7v1.4h-9.3v-1.4h3.7v-8.4h-2.9zm2.9-4.4h1.9v2.4h-1.9zm12.7 4.1a4.4 4.4 0 0 1 3.6 1.5 8.5 8.5 0 0 1 0 8.9 5 5 0 0 1-7.2 0 8.5 8.5 0 0 1 0-8.9 4.4 4.4 0 0 1 3.6-1.5zm0 1.6a2.4 2.4 0 0 0-2.1 1.1 7.7 7.7 0 0 0 0 6.5 2.6 2.6 0 0 0 4.3 0 7.7 7.7 0 0 0 0-6.5 2.4 2.4 0 0 0-2.2-1.1zm17.9 1l-1.2-.7-1.4-.2a3.3 3.3 0 0 0-2.7 1.1 4.8 4.8 0 0 0-.9 3.2v5.6h-1.9v-11.3h1.9v2.2a3.8 3.8 0 0 1 1.4-1.8 4.1 4.1 0 0 1 2.3-.6l1.3.2 1.1.5zm4-2.3h4.8v9.9h3.7v1.4h-9.3v-1.4h3.7v-8.4h-2.9zm2.9-4.4h1.9v2.4h-1.9zm12.6 1.1v3.2h4.2v1.4h-4.2v6.2a2.5 2.5 0 0 0 .5 1.8 2.2 2.2 0 0 0 1.7.5h2.1v1.5h-2.3a4.2 4.2 0 0 1-3-.8 4 4 0 0 1-.9-2.9v-6.2h-3v-1.4h3V273zm15 11L799 287a30 30 0 0 1-1.3 3.3 3.2 3.2 0 0 1-1.2 1.2 3.3 3.3 0 0 1-1.6.4h-1.5v-1.6h1.1a1.7 1.7 0 0 0 1.3-.5 8.2 8.2 0 0 0 1.2-2.5l-4.4-11.2h2l3.4 8.9 3.3-8.9h2zM911.1 256a7.6 7.6 0 0 1-3.1-1.8 3.8 3.8 0 0 1-.8-2.5 4.1 4.1 0 0 1 1.3-3.2 5.2 5.2 0 0 1 3.6-1.2l2.1.2 2.1.7v2.9a8.2 8.2 0 0 0-2-1 5.8 5.8 0 0 0-2-.4 2.7 2.7 0 0 0-1.7.4 1.5 1.5 0 0 0-.6 1.2 1.4 1.4 0 0 0 .4 1 5.5 5.5 0 0 0 1.8.9l1.3.5a5.9 5.9 0 0 1 2.7 1.8 4.4 4.4 0 0 1 .9 2.8 4.2 4.2 0 0 1-1.4 3.4 6.3 6.3 0 0 1-4.1 1.1l-2.3-.3-2.2-.8v-3.1a10.1 10.1 0 0 0 2.3 1.3 6.3 6.3 0 0 0 2.2.4 2.6 2.6 0 0 0 1.7-.5 1.7 1.7 0 0 0 .6-1.4 1.9 1.9 0 0 0-.4-1.2 2.7 2.7 0 0 0-1.2-.8zm8.9 2.6v-7.4h3v6.9a3.3 3.3 0 0 0 .3 1.8 1.3 1.3 0 0 0 1.1.5 1.4 1.4 0 0 0 1.3-.7 3.7 3.7 0 0 0 .5-2v-6.5h3v11.4h-3v-1.7a2.8 2.8 0 0 1-1.1 1.5 3.1 3.1 0 0 1-1.8.5 2.9 2.9 0 0 1-2.4-1.1 5.2 5.2 0 0 1-.9-3.2zm21.6 3.4l-1.6.7-1.9.2a5.3 5.3 0 0 1-4.1-1.6 7.2 7.2 0 0 1 0-8.8 5.4 5.4 0 0 1 4.1-1.6l1.8.2 1.7.7v2.7a4.8 4.8 0 0 0-1.4-.9 4.4 4.4 0 0 0-1.6-.3 2.8 2.8 0 0 0-2.2.9 4 4 0 0 0-.8 2.6 3.9 3.9 0 0 0 .8 2.6 2.8 2.8 0 0 0 2.2.9 4.4 4.4 0 0 0 1.6-.3 4.7 4.7 0 0 0 1.4-.9zm12.5 0l-1.6.7-1.9.2a5.3 5.3 0 0 1-4.1-1.6 7.2 7.2 0 0 1 0-8.8 5.4 5.4 0 0 1 4.1-1.6l1.8.2 1.7.7v2.7a4.8 4.8 0 0 0-1.4-.9 4.4 4.4 0 0 0-1.6-.3 2.8 2.8 0 0 0-2.2.9 4 4 0 0 0-.8 2.6 3.9 3.9 0 0 0 .8 2.6 2.8 2.8 0 0 0 2.2.9 4.4 4.4 0 0 0 1.6-.3 4.7 4.7 0 0 0 1.4-.9zm13 0l-2.1.6-2.3.2a5.8 5.8 0 0 1-4.4-1.5 6 6 0 0 1-1.5-4.4 6.3 6.3 0 0 1 1.4-4.4 5.8 5.8 0 0 1 7.9-.1 5.9 5.9 0 0 1 1.4 4.2v1.2h-7.7a2.5 2.5 0 0 0 .8 2 3.5 3.5 0 0 0 2.3.7l2-.3a9.3 9.3 0 0 0 2.1-.9zm-2.5-6.4a2.5 2.5 0 0 0-.6-1.8 2.3 2.3 0 0 0-1.7-.6 2.2 2.2 0 0 0-1.6.6 2.8 2.8 0 0 0-.7 1.8zm13.8-4v2.6l-1.7-.8-1.8-.3a3.1 3.1 0 0 0-1.5.3.9.9 0 0 0-.5.9q0 .8 2.2 1.3h.1l.9.2a4.5 4.5 0 0 1 2.4 1.2 3.4 3.4 0 0 1 .8 2.3 3.1 3.1 0 0 1-1.3 2.7 5.7 5.7 0 0 1-3.5.9l-2.1-.2-2.2-.5v-2.6l2 .9 2 .3a3.3 3.3 0 0 0 1.6-.3 1 1 0 0 0 .5-.9 1 1 0 0 0-.4-.9 5.5 5.5 0 0 0-1.8-.6l-.8-.2a4.8 4.8 0 0 1-2.5-1.2 3.4 3.4 0 0 1 .4-4.8 5.4 5.4 0 0 1 3.3-.9l1.9.2zm12.5 0v2.6l-1.7-.8-1.8-.3a3.1 3.1 0 0 0-1.5.3.9.9 0 0 0-.5.9q0 .8 2.2 1.3h.1l.9.2a4.5 4.5 0 0 1 2.4 1.2 3.4 3.4 0 0 1 .8 2.3 3.1 3.1 0 0 1-1.2 2.6 5.7 5.7 0 0 1-3.5.9l-2.1-.2-2.2-.5v-2.6l2 .9 2 .3a3.3 3.3 0 0 0 1.6-.3 1 1 0 0 0 .5-.9 1 1 0 0 0-.4-.9 5.5 5.5 0 0 0-1.8-.6l-.8-.2a4.8 4.8 0 0 1-2.5-1.2 3.4 3.4 0 0 1 .4-4.8 5.4 5.4 0 0 1 3.3-.9l1.9.2zm7.4-4.1h2.7v6.6l-.3 3.6h-2l-.4-3.6zm0 12.3h2.7v2.9h-2.7zm-128.5 12.6h2.1v5.8h5.6v-5.8h2.1v15.1h-2.1v-7.6h-5.6v7.6h-2.1zm22.5 8.5v.9h-8.1a4.5 4.5 0 0 0 .9 3.3 3.6 3.6 0 0 0 2.7 1l1.9-.3 2.1-.9v1.9l-2.1.7-1.9.2a5.4 5.4 0 0 1-4.1-1.6 6.1 6.1 0 0 1-1.5-4.4 6.2 6.2 0 0 1 1.5-4.3 5 5 0 0 1 3.9-1.6 4.3 4.3 0 0 1 3.4 1.5 5.6 5.6 0 0 1 1.3 3.6zm-1.9-.5a3.6 3.6 0 0 0-.9-2 2.6 2.6 0 0 0-2.1-.9 3 3 0 0 0-2.2.9 3.1 3.1 0 0 0-1 2zm10.3 3a3.2 3.2 0 0 0 .5 1.9 1.6 1.6 0 0 0 1.4.6h2.2v1.6h-2.4a3.2 3.2 0 0 1-2.6-1.1 4.5 4.5 0 0 1-.9-3v-10.3h-3v-1.5h4.9zm9 2.7v5.7h-1.9v-15.6h1.9v1.4a3.2 3.2 0 0 1 1.2-1.3 3.6 3.6 0 0 1 1.8-.4 3.8 3.8 0 0 1 3.2 1.6 7.3 7.3 0 0 1 1.2 4.4 7.1 7.1 0 0 1-1.2 4.3 3.8 3.8 0 0 1-3.2 1.6 3.6 3.6 0 0 1-1.8-.4 3.1 3.1 0 0 1-1.2-1.3zm5.5-4.2a6.3 6.3 0 0 0-.7-3.3 2.2 2.2 0 0 0-2-1.1 2.3 2.3 0 0 0-2.1 1.1 8 8 0 0 0 0 6.5 2.3 2.3 0 0 0 2.1 1.1 2.2 2.2 0 0 0 2-1.1 6.3 6.3 0 0 0 .7-3.3zm6.4-5.7h4.8v9.9h3.7v1.4h-9.3v-1.4h3.7v-8.4h-2.9zm2.9-4.4h1.9v2.4h-1.9zm17 8.7v7h-1.9v-7a3.8 3.8 0 0 0-.5-2.2 2 2 0 0 0-1.7-.7 2.4 2.4 0 0 0-2 .9 4.3 4.3 0 0 0-.7 2.7v6.4h-1.9v-11.4h1.9v1.7a3.5 3.5 0 0 1 1.3-1.5 3.9 3.9 0 0 1 2-.5 3 3 0 0 1 2.6 1.1 5.7 5.7 0 0 1 .9 3.5zm12.4 6.3a5.5 5.5 0 0 1-1.2 3.9 4.6 4.6 0 0 1-3.5 1.3h-1.6l-1.7-.4v-1.8l1.8.7 1.5.2a2.7 2.7 0 0 0 2.2-.8 4 4 0 0 0 .7-2.6V286a3.2 3.2 0 0 1-1.2 1.4 3.6 3.6 0 0 1-1.9.5 3.8 3.8 0 0 1-3.2-1.6 8.2 8.2 0 0 1 0-8.5 3.8 3.8 0 0 1 3.2-1.6 3.7 3.7 0 0 1 1.9.4 3.2 3.2 0 0 1 1.2 1.3v-1.5h1.9zm-1.9-5a6 6 0 0 0-.7-3.2 2.2 2.2 0 0 0-2-1.1 2.4 2.4 0 0 0-2.1 1.1 7.4 7.4 0 0 0 0 6.4 2.4 2.4 0 0 0 2.1 1.1 2.2 2.2 0 0 0 2-1.1 6.1 6.1 0 0 0 .8-3.3zm22.6-5.9a4.4 4.4 0 0 1 3.6 1.5 8.5 8.5 0 0 1 0 8.9 5 5 0 0 1-7.2 0 8.5 8.5 0 0 1 0-8.9 4.4 4.4 0 0 1 3.6-1.5zm0 1.6a2.4 2.4 0 0 0-2.1 1.1 7.7 7.7 0 0 0 0 6.5 2.6 2.6 0 0 0 4.3 0 7.7 7.7 0 0 0 0-6.5 2.4 2.4 0 0 0-2.2-1.1zm12.5-4.6v3.2h4.2v1.4h-4.2v6.2a2.5 2.5 0 0 0 .5 1.8 2.2 2.2 0 0 0 1.7.5h2.1v1.5h-2.3a4.2 4.2 0 0 1-3-.8 4 4 0 0 1-.9-2.9v-6.2h-3v-1.4h3V273zm16.9 7.6v7h-1.9v-7a3.8 3.8 0 0 0-.5-2.2 2 2 0 0 0-1.7-.7 2.4 2.4 0 0 0-2 .9 4.3 4.3 0 0 0-.7 2.7v6.4h-1.9v-15.9h1.9v6.1a3.5 3.5 0 0 1 1.3-1.5 3.9 3.9 0 0 1 2-.5 3 3 0 0 1 2.6 1.1 5.7 5.7 0 0 1 .9 3.6zm13.2.4v.9h-8.1a4.5 4.5 0 0 0 .9 3.3 3.6 3.6 0 0 0 2.7 1l1.9-.3 2.1-.9v1.9l-2.1.7-1.9.2a5.4 5.4 0 0 1-4.1-1.6 6.1 6.1 0 0 1-1.5-4.4 6.2 6.2 0 0 1 1.5-4.3 5 5 0 0 1 3.9-1.6 4.3 4.3 0 0 1 3.4 1.5 5.6 5.6 0 0 1 1.3 3.6zm-1.9-.5a3.6 3.6 0 0 0-.9-2 2.6 2.6 0 0 0-2.1-.9 3 3 0 0 0-2.2.9 3.1 3.1 0 0 0-1 2zm14.8-1.9l-1.2-.7-1.4-.2a3.3 3.3 0 0 0-2.7 1.1 4.8 4.8 0 0 0-.9 3.2v5.6h-1.9v-11.3h1.9v2.2a3.8 3.8 0 0 1 1.4-1.8 4.1 4.1 0 0 1 2.3-.6l1.3.2 1.1.5zm10.6-1.9v1.8l-1.6-.7-1.7-.2a3.5 3.5 0 0 0-1.9.4 1.4 1.4 0 0 0-.6 1.3 1.4 1.4 0 0 0 .5 1.1 6.4 6.4 0 0 0 2.3.7h.8a3.7 3.7 0 0 1 2.1 1.1 3 3 0 0 1 .7 2.1 3.2 3.2 0 0 1-1.2 2.6 5.2 5.2 0 0 1-3.3.9l-1.8-.2-2-.5v-1.9l2 .8 1.8.3a3.2 3.2 0 0 0 1.9-.5 1.6 1.6 0 0 0 .7-1.4q0-1.3-2.5-1.8h-.8a4.5 4.5 0 0 1-2.4-1.1 2.8 2.8 0 0 1-.7-2 3 3 0 0 1 1.1-2.5 4.9 4.9 0 0 1 3.2-.9l1.8.2z"/></svg>