<svg xmlns="http://www.w3.org/2000/svg" width="1100" height="300" viewBox="0 0 1100 300"><title>stickies</title><rect x="55" y="28.4" width="178.2" height="178.23" fill="#58d439"/><path d="M108.7,127.1a10,10,0,0,1-3.3,2,11,11,0,0,1-3.9.7,9.5,9.5,0,0,1-7.9-3.6q-2.8-3.6-2.8-10.2t2.9-10.2a9.5,9.5,0,0,1,8-3.7,10.9,10.9,0,0,1,3.2.5,11.2,11.2,0,0,1,3,1.4v3.7a10.2,10.2,0,0,0-3-2,8.1,8.1,0,0,0-3.2-.7,5.9,5.9,0,0,0-5.3,2.7q-1.8,2.7-1.8,8.2t1.7,8.2a5.8,5.8,0,0,0,5.3,2.7,7.2,7.2,0,0,0,2.1-.3,4.9,4.9,0,0,0,1.6-.9v-7.2h-3.9v-3h7.3Z" fill="#fff"/><path d="M131.7,113.3a7.5,7.5,0,0,0-2.1-1.2,7.3,7.3,0,0,0-2.4-.4,5.8,5.8,0,0,0-4.7,1.9,8.5,8.5,0,0,0-1.6,5.6v10h-3.3V109.2h3.3v3.9a6.7,6.7,0,0,1,2.5-3.3,7.2,7.2,0,0,1,4.1-1.1,8.2,8.2,0,0,1,2.3.3,7.3,7.3,0,0,1,2,.9Z" fill="#fff"/><path d="M153.1,117.6v1.6H138.9q-.1,4.1,1.6,5.9a6.4,6.4,0,0,0,4.8,1.8,11.7,11.7,0,0,0,3.3-.5,20.3,20.3,0,0,0,3.7-1.5v3.3a22.2,22.2,0,0,1-3.6,1.2,15.7,15.7,0,0,1-3.4.4,9.5,9.5,0,0,1-7.3-2.8,10.8,10.8,0,0,1-2.6-7.7,11,11,0,0,1,2.6-7.7,8.8,8.8,0,0,1,6.9-2.9,7.5,7.5,0,0,1,6,2.6A10,10,0,0,1,153.1,117.6Zm-3.3-1a6.4,6.4,0,0,0-1.5-3.6,4.7,4.7,0,0,0-3.7-1.5,5.3,5.3,0,0,0-3.9,1.6,5.6,5.6,0,0,0-1.7,3.5Z" fill="#fff"/><path d="M175.2,117.6v1.6H160.9q-.1,4.1,1.6,5.9a6.4,6.4,0,0,0,4.8,1.8,11.7,11.7,0,0,0,3.3-.5,20.3,20.3,0,0,0,3.7-1.5v3.3a22.2,22.2,0,0,1-3.6,1.2,15.7,15.7,0,0,1-3.4.4A9.5,9.5,0,0,1,160,127a10.8,10.8,0,0,1-2.6-7.7,11,11,0,0,1,2.6-7.7,8.8,8.8,0,0,1,6.9-2.9,7.5,7.5,0,0,1,6,2.6A10,10,0,0,1,175.2,117.6Zm-3.3-1a6.4,6.4,0,0,0-1.5-3.6,4.7,4.7,0,0,0-3.7-1.5,5.3,5.3,0,0,0-3.9,1.6,5.6,5.6,0,0,0-1.7,3.5Z" fill="#fff"/><path d="M196.1,116.8v12.4h-3.3V116.8a6.7,6.7,0,0,0-.9-4,3.5,3.5,0,0,0-3-1.3,4.2,4.2,0,0,0-3.6,1.6,7.7,7.7,0,0,0-1.2,4.7v11.3h-3.3V109.2H184v3a6.2,6.2,0,0,1,2.4-2.6,6.9,6.9,0,0,1,3.6-.9,5.4,5.4,0,0,1,4.6,2Q196.1,112.8,196.1,116.8Z" fill="#fff"/><rect x="325.6" y="28.4" width="178.2" height="178.23" fill="#ffcf1d"/><path d="M349.1,102.5H353l6.5,11.8,6.5-11.8h3.9l-8.6,14.7v12h-3.6v-12Z" fill="#fff"/><path d="M390.6,117.6v1.6H376.3q-.1,4.1,1.6,5.9a6.4,6.4,0,0,0,4.8,1.8,11.7,11.7,0,0,0,3.3-.5,20.3,20.3,0,0,0,3.7-1.5v3.3a22.2,22.2,0,0,1-3.6,1.2,15.7,15.7,0,0,1-3.4.4,9.5,9.5,0,0,1-7.3-2.8,10.8,10.8,0,0,1-2.6-7.7,11,11,0,0,1,2.6-7.7,8.8,8.8,0,0,1,6.9-2.9,7.5,7.5,0,0,1,6,2.6A10,10,0,0,1,390.6,117.6Zm-3.3-1a6.4,6.4,0,0,0-1.5-3.6,4.7,4.7,0,0,0-3.7-1.5,5.3,5.3,0,0,0-3.9,1.6,5.6,5.6,0,0,0-1.7,3.5Z" fill="#fff"/><path d="M405.5,122a5.7,5.7,0,0,0,.8,3.3,2.8,2.8,0,0,0,2.4,1.1h3.9v2.8h-4.2a5.7,5.7,0,0,1-4.6-1.9,8,8,0,0,1-1.6-5.4V103.9h-5.3v-2.6h8.6Z" fill="#fff"/><path d="M427.6,122a5.7,5.7,0,0,0,.8,3.3,2.8,2.8,0,0,0,2.4,1.1h3.9v2.8h-4.2a5.7,5.7,0,0,1-4.6-1.9,8,8,0,0,1-1.6-5.4V103.9H419v-2.6h8.6Z" fill="#fff"/><path d="M447.8,108.7a7.8,7.8,0,0,1,6.4,2.7q2.2,2.7,2.2,7.8t-2.2,7.8a8.9,8.9,0,0,1-12.8,0q-2.2-2.7-2.2-7.8t2.2-7.8A7.7,7.7,0,0,1,447.8,108.7Zm0,2.8a4.3,4.3,0,0,0-3.8,2,10.6,10.6,0,0,0-1.3,5.8A10.6,10.6,0,0,0,444,125a4.7,4.7,0,0,0,7.6,0,10.6,10.6,0,0,0,1.3-5.8,10.6,10.6,0,0,0-1.3-5.8A4.3,4.3,0,0,0,447.8,111.5Z" fill="#fff"/><path d="M458.9,109.2h3.3l3.5,16.2,2.9-10.4h2.8l2.9,10.4,3.5-16.2H481l-4.7,20.1h-3.2l-3.2-11-3.2,11h-3.2Z" fill="#fff"/><rect x="596.2" y="28.4" width="178.2" height="178.23" fill="#fb3a64"/><path d="M665.8,116.6a5.1,5.1,0,0,1,2.4,1.4,16.7,16.7,0,0,1,2.5,4l3.6,7.3h-3.9l-3.2-6.8a10.6,10.6,0,0,0-2.5-3.7,4.6,4.6,0,0,0-2.9-.8h-3.5v11.3h-3.6V102.5h7.5q4.4,0,6.8,2a7.1,7.1,0,0,1,2.3,5.8,6.4,6.4,0,0,1-1.4,4.3A6.3,6.3,0,0,1,665.8,116.6Zm-7.4-11.1V115h4a5.6,5.6,0,0,0,3.9-1.2,4.6,4.6,0,0,0,1.3-3.6,4.5,4.5,0,0,0-1.4-3.5,5.7,5.7,0,0,0-3.9-1.2Z" fill="#fff"/><path d="M694.3,117.6v1.6H680q-.1,4.1,1.6,5.9a6.4,6.4,0,0,0,4.8,1.8,11.7,11.7,0,0,0,3.3-.5,20.3,20.3,0,0,0,3.7-1.5v3.3a22.2,22.2,0,0,1-3.6,1.2,15.7,15.7,0,0,1-3.4.4,9.5,9.5,0,0,1-7.3-2.8,10.8,10.8,0,0,1-2.6-7.7,11,11,0,0,1,2.6-7.7,8.8,8.8,0,0,1,6.9-2.9,7.5,7.5,0,0,1,6,2.6A10,10,0,0,1,694.3,117.6Zm-3.3-1a6.4,6.4,0,0,0-1.5-3.6,4.7,4.7,0,0,0-3.7-1.5,5.3,5.3,0,0,0-3.9,1.6,5.6,5.6,0,0,0-1.7,3.5Z" fill="#fff"/><path d="M711.7,111.8V101.4H715v27.9h-3.3v-2.5a5.7,5.7,0,0,1-2.2,2.3,6.3,6.3,0,0,1-3.2.8,6.7,6.7,0,0,1-5.7-2.8q-2.1-2.8-2.1-7.8t2.1-7.7a6.8,6.8,0,0,1,5.7-2.8,6.4,6.4,0,0,1,3.2.8A5.5,5.5,0,0,1,711.7,111.8Zm-9.7,7.5a11.1,11.1,0,0,0,1.2,5.8,4,4,0,0,0,3.6,2,4,4,0,0,0,3.6-2,10.9,10.9,0,0,0,1.2-5.8,10.9,10.9,0,0,0-1.2-5.8,4,4,0,0,0-3.6-2,4,4,0,0,0-3.6,2A11.1,11.1,0,0,0,702,119.3Z" fill="#fff"/><path d="M1044,29.4V205.6H867.8V29.4H1044m1-1H866.8V206.6H1045V28.4Z" fill="#ccc"/><path d="M904.9,99.6a36,36,0,0,0-3.6,8.1,29,29,0,0,0,0,16.3,36.7,36.7,0,0,0,3.6,8.2h-2.9a37.3,37.3,0,0,1-4-8.3,25.1,25.1,0,0,1,0-16.1,36.5,36.5,0,0,1,4-8.3Z"/><path d="M912.1,102.6H917l10.5,21.9V102.6h3.9v26.7h-4.9l-10.5-21.9v21.9h-3.9Z"/><path d="M944.8,108.7a7.8,7.8,0,0,1,6.4,2.7q2.2,2.7,2.2,7.8t-2.2,7.8a8.9,8.9,0,0,1-12.8,0q-2.2-2.7-2.2-7.8t2.2-7.8A7.7,7.7,0,0,1,944.8,108.7Zm0,2.8a4.3,4.3,0,0,0-3.8,2,10.6,10.6,0,0,0-1.3,5.8A10.6,10.6,0,0,0,941,125a4.7,4.7,0,0,0,7.6,0,10.6,10.6,0,0,0,1.3-5.8,10.6,10.6,0,0,0-1.3-5.8A4.3,4.3,0,0,0,944.8,111.5Z"/><path d="M974.7,116.8v12.4h-3.3V116.8a6.7,6.7,0,0,0-.9-4,3.5,3.5,0,0,0-3-1.3,4.2,4.2,0,0,0-3.6,1.6,7.7,7.7,0,0,0-1.2,4.7v11.3h-3.3V109.2h3.3v3a6.2,6.2,0,0,1,2.4-2.6,6.9,6.9,0,0,1,3.6-.9,5.4,5.4,0,0,1,4.6,2Q974.7,112.8,974.7,116.8Z"/><path d="M998,117.6v1.6H983.8q-.1,4.1,1.6,5.9a6.4,6.4,0,0,0,4.8,1.8,11.7,11.7,0,0,0,3.3-.5,20.3,20.3,0,0,0,3.7-1.5v3.3a22.2,22.2,0,0,1-3.6,1.2,15.7,15.7,0,0,1-3.4.4,9.5,9.5,0,0,1-7.3-2.8,10.8,10.8,0,0,1-2.6-7.7,11,11,0,0,1,2.6-7.7,8.8,8.8,0,0,1,6.9-2.9,7.5,7.5,0,0,1,6,2.6A10,10,0,0,1,998,117.6Zm-3.3-1a6.4,6.4,0,0,0-1.5-3.6,4.7,4.7,0,0,0-3.7-1.5,5.3,5.3,0,0,0-3.9,1.6,5.6,5.6,0,0,0-1.7,3.5Z"/><path d="M1006.3,99.6h2.9a36.6,36.6,0,0,1,4,8.3,25.2,25.2,0,0,1,0,16.1,36.5,36.5,0,0,1-4,8.3h-2.9a37.4,37.4,0,0,0,3.6-8.2,28.8,28.8,0,0,0,0-16.3A36.3,36.3,0,0,0,1006.3,99.6Z"/><path d="M57.9,247.5h3.2l4.2,11v-11h2.6v15.1H64.7l-4.2-11v11H57.9Z"/><path d="M70.1,256.9a6.3,6.3,0,0,1,1.4-4.4,5.4,5.4,0,0,1,7.7,0,7.4,7.4,0,0,1,0,8.7,5.4,5.4,0,0,1-7.7,0A6.3,6.3,0,0,1,70.1,256.9Zm5.2-3.5a1.9,1.9,0,0,0-1.7.9,5.9,5.9,0,0,0,0,5.2,2,2,0,0,0,3.4,0,5.9,5.9,0,0,0,0-5.2A1.9,1.9,0,0,0,75.4,253.4Z"/><path d="M105,255.2v7.4H102v-6.9a3.3,3.3,0,0,0-.3-1.8,1.3,1.3,0,0,0-1.1-.5,1.4,1.4,0,0,0-1.3.7,3.7,3.7,0,0,0-.5,2v6.5H95.9V246.8h2.9V253a2.8,2.8,0,0,1,1.1-1.5,3.2,3.2,0,0,1,1.8-.5,2.9,2.9,0,0,1,2.4,1.1A5.2,5.2,0,0,1,105,255.2Z"/><path d="M117.8,262l-2.1.6-2.3.2a5.8,5.8,0,0,1-4.4-1.5,6,6,0,0,1-1.5-4.4,6.3,6.3,0,0,1,1.4-4.4,5.8,5.8,0,0,1,7.9-.1,5.9,5.9,0,0,1,1.4,4.2v1.2h-7.7a2.5,2.5,0,0,0,.8,2,3.5,3.5,0,0,0,2.3.7l2-.3a9.3,9.3,0,0,0,2.1-.9Zm-2.5-6.4a2.5,2.5,0,0,0-.6-1.8,2.3,2.3,0,0,0-1.7-.6,2.2,2.2,0,0,0-1.6.6,2.8,2.8,0,0,0-.7,1.8Z"/><path d="M123,257.9v-8.8h-3v-2.3h6v11a3.3,3.3,0,0,0,.4,1.9,1.6,1.6,0,0,0,1.4.6h2.4v2.3H127a3.8,3.8,0,0,1-3-1.1A5.7,5.7,0,0,1,123,257.9Z"/><path d="M136.1,261v5.9h-3V251.3h3V253a3.5,3.5,0,0,1,1.2-1.5,3.2,3.2,0,0,1,1.8-.5,3.5,3.5,0,0,1,3,1.6,7.7,7.7,0,0,1,1.1,4.4,7.6,7.6,0,0,1-1.1,4.4,3.6,3.6,0,0,1-3.1,1.5,2.9,2.9,0,0,1-1.6-.5A4.1,4.1,0,0,1,136.1,261Zm4.1-4.1a5.1,5.1,0,0,0-.5-2.6,1.7,1.7,0,0,0-1.5-.9,1.7,1.7,0,0,0-1.5.9,6.2,6.2,0,0,0,0,5.1,1.7,1.7,0,0,0,1.5.9,1.7,1.7,0,0,0,1.5-.9A5.1,5.1,0,0,0,140.2,256.9Z"/><path d="M167.5,255.2v7.4h-2.9v-6.9a3.4,3.4,0,0,0-.3-1.8,1.3,1.3,0,0,0-1.1-.5,1.4,1.4,0,0,0-1.3.7,3.7,3.7,0,0,0-.5,2v6.5h-2.9V251.3h2.9V253a2.8,2.8,0,0,1,1.1-1.5,3.2,3.2,0,0,1,1.8-.5,2.9,2.9,0,0,1,2.4,1.1A5.2,5.2,0,0,1,167.5,255.2Z"/><path d="M180.3,262l-2.1.6-2.3.2a5.8,5.8,0,0,1-4.4-1.5A6,6,0,0,1,170,257a6.3,6.3,0,0,1,1.4-4.4,5.8,5.8,0,0,1,7.9-.1,5.9,5.9,0,0,1,1.4,4.2v1.2h-7.7a2.5,2.5,0,0,0,.8,2,3.5,3.5,0,0,0,2.3.7l2-.3a9.3,9.3,0,0,0,2.1-.9Zm-2.5-6.4a2.5,2.5,0,0,0-.6-1.8,2.3,2.3,0,0,0-1.7-.6,2.2,2.2,0,0,0-1.6.6,2.8,2.8,0,0,0-.7,1.8Z"/><path d="M192.8,262l-2.1.6-2.3.2a5.8,5.8,0,0,1-4.4-1.5,6,6,0,0,1-1.5-4.4,6.3,6.3,0,0,1,1.4-4.4,5.8,5.8,0,0,1,7.9-.1,5.9,5.9,0,0,1,1.4,4.2v1.2h-7.7a2.5,2.5,0,0,0,.8,2,3.5,3.5,0,0,0,2.3.7l2-.3a9.3,9.3,0,0,0,2.1-.9Zm-2.5-6.4a2.5,2.5,0,0,0-.6-1.8,2.3,2.3,0,0,0-1.7-.6,2.2,2.2,0,0,0-1.6.6,2.8,2.8,0,0,0-.7,1.8Z"/><path d="M202.1,252.9v-6h3v15.8h-3v-1.7a3.6,3.6,0,0,1-1.2,1.5,3.2,3.2,0,0,1-1.8.5,3.5,3.5,0,0,1-3-1.6,7.7,7.7,0,0,1-1.1-4.4,7.6,7.6,0,0,1,1.1-4.4,3.6,3.6,0,0,1,3.1-1.5,2.9,2.9,0,0,1,1.6.5A4.1,4.1,0,0,1,202.1,252.9ZM198,257a5.1,5.1,0,0,0,.5,2.6,1.7,1.7,0,0,0,1.5.9,1.7,1.7,0,0,0,1.5-.9,6.2,6.2,0,0,0,0-5.1,1.7,1.7,0,0,0-1.5-.9,1.7,1.7,0,0,0-1.5.9A5.1,5.1,0,0,0,198,257Z"/><path d="M217.8,262l-2.1.6-2.3.2a5.8,5.8,0,0,1-4.4-1.5,6,6,0,0,1-1.5-4.4,6.3,6.3,0,0,1,1.4-4.4,5.8,5.8,0,0,1,7.9-.1,5.9,5.9,0,0,1,1.4,4.2v1.2h-7.7a2.5,2.5,0,0,0,.8,2,3.5,3.5,0,0,0,2.3.7l2-.3a9.3,9.3,0,0,0,2.1-.9Zm-2.5-6.4a2.5,2.5,0,0,0-.6-1.8,2.3,2.3,0,0,0-1.7-.6,2.2,2.2,0,0,0-1.6.6,2.8,2.8,0,0,0-.7,1.8Z"/><path d="M227.1,252.9v-6h3v15.8h-3v-1.7a3.6,3.6,0,0,1-1.2,1.5,3.2,3.2,0,0,1-1.8.5,3.5,3.5,0,0,1-3-1.6,7.7,7.7,0,0,1-1.1-4.4,7.6,7.6,0,0,1,1.1-4.4,3.6,3.6,0,0,1,3.1-1.5,2.9,2.9,0,0,1,1.6.5A4.1,4.1,0,0,1,227.1,252.9ZM223,257a5.1,5.1,0,0,0,.5,2.6,1.7,1.7,0,0,0,1.5.9,1.7,1.7,0,0,0,1.5-.9,6.2,6.2,0,0,0,0-5.1,1.7,1.7,0,0,0-1.5-.9,1.7,1.7,0,0,0-1.5.9A5.1,5.1,0,0,0,223,257Z"/><path d="M25.4,272.4h2l1.4,12.3,1.7-8.1h2.1l1.7,8.1,1.4-12.3h2l-2.3,15.1H33.7l-2.1-9-2,9H27.7Z"/><path d="M44.1,275.9a4.4,4.4,0,0,1,3.6,1.5,8.5,8.5,0,0,1,0,8.9,4.4,4.4,0,0,1-3.6,1.5,4.4,4.4,0,0,1-3.6-1.5,8.5,8.5,0,0,1,0-8.9A4.4,4.4,0,0,1,44.1,275.9Zm0,1.6a2.4,2.4,0,0,0-2.1,1.1,7.7,7.7,0,0,0,0,6.5,2.6,2.6,0,0,0,4.3,0,7.7,7.7,0,0,0,0-6.5A2.4,2.4,0,0,0,44.1,277.5Z"/><path d="M62.1,278.5l-1.2-.7-1.4-.2a3.3,3.3,0,0,0-2.7,1.1,4.8,4.8,0,0,0-.9,3.2v5.6H54.1V276.2h1.9v2.2a3.8,3.8,0,0,1,1.4-1.8,4.1,4.1,0,0,1,2.3-.6l1.3.2,1.1.5Z"/><path d="M65.3,271.7h1.9v9.1l4.9-4.7h2.3l-4.5,4.3,5.2,7.1H72.8l-4.2-5.9L67.2,283v4.5H65.3Z"/><path d="M78.6,276.2h4.8v9.9h3.7v1.4H77.8v-1.4h3.7v-8.4H78.6Zm2.9-4.4h1.9v2.4H81.5Z"/><path d="M98.5,280.5v7H96.7v-7a3.8,3.8,0,0,0-.5-2.2,2,2,0,0,0-1.7-.7,2.4,2.4,0,0,0-2,.9,4.3,4.3,0,0,0-.7,2.7v6.4H89.9V276.2h1.9v1.7a3.5,3.5,0,0,1,1.3-1.5,3.9,3.9,0,0,1,2-.5,3,3,0,0,1,2.6,1.1A5.7,5.7,0,0,1,98.5,280.5Z"/><path d="M110.9,286.8a5.6,5.6,0,0,1-1.2,3.9,4.6,4.6,0,0,1-3.5,1.3h-1.6l-1.7-.4v-1.8l1.8.7,1.5.2a2.7,2.7,0,0,0,2.2-.8,4,4,0,0,0,.7-2.6h0v-1.3a3.2,3.2,0,0,1-1.2,1.4,3.6,3.6,0,0,1-1.9.5,3.8,3.8,0,0,1-3.2-1.6,8.3,8.3,0,0,1,0-8.5,3.8,3.8,0,0,1,3.2-1.6,3.7,3.7,0,0,1,1.9.4,3.2,3.2,0,0,1,1.2,1.3v-1.5h1.9Zm-1.9-5a6,6,0,0,0-.7-3.2,2.2,2.2,0,0,0-2-1.1,2.3,2.3,0,0,0-2.1,1.1,7.4,7.4,0,0,0,0,6.4,2.4,2.4,0,0,0,2.1,1.1,2.2,2.2,0,0,0,2-1.1A6.1,6.1,0,0,0,109.1,281.7Z"/><path d="M131.6,275.9a4.4,4.4,0,0,1,3.6,1.5,8.5,8.5,0,0,1,0,8.9,5,5,0,0,1-7.2,0,8.5,8.5,0,0,1,0-8.9A4.4,4.4,0,0,1,131.6,275.9Zm0,1.6a2.4,2.4,0,0,0-2.1,1.1,7.7,7.7,0,0,0,0,6.5,2.6,2.6,0,0,0,4.3,0,7.7,7.7,0,0,0,0-6.5A2.4,2.4,0,0,0,131.6,277.5Z"/><path d="M149.6,278.5l-1.2-.7-1.4-.2a3.3,3.3,0,0,0-2.7,1.1,4.8,4.8,0,0,0-.9,3.2v5.6h-1.9V276.2h1.9v2.2a3.8,3.8,0,0,1,1.4-1.8,4.1,4.1,0,0,1,2.3-.6l1.3.2,1.1.5Z"/><path d="M162.9,276.2h1.8l2,9.2,1.6-5.9h1.6l1.6,5.9,2-9.2h1.8l-2.7,11.4h-1.8l-1.8-6.2-1.8,6.2h-1.8Z"/><path d="M186.1,281v6.5h-1.9v-1.7a3.8,3.8,0,0,1-1.5,1.5,4.6,4.6,0,0,1-2.2.5,3.9,3.9,0,0,1-2.8-1,3.9,3.9,0,0,1,.2-5.5,6,6,0,0,1,3.7-1h2.5v-.3a2.6,2.6,0,0,0-.7-2,3.2,3.2,0,0,0-2.2-.6l-1.9.3-1.9.8v-1.9l2-.6,1.8-.2a6.3,6.3,0,0,1,2.4.4,3.8,3.8,0,0,1,1.6,1.2,3.1,3.1,0,0,1,.5,1.3A11.4,11.4,0,0,1,186.1,281Zm-3.6.8h-.6a4.3,4.3,0,0,0-2.5.6,1.9,1.9,0,0,0-.8,1.7,2.1,2.1,0,0,0,.6,1.6,2.4,2.4,0,0,0,1.7.6,3,3,0,0,0,2.4-1.1,4.6,4.6,0,0,0,.9-3v-.4Z"/><path d="M194.1,272.9v3.2h4.2v1.4h-4.2v6.2a2.5,2.5,0,0,0,.5,1.8,2.2,2.2,0,0,0,1.7.5h2.1v1.5H196a4.2,4.2,0,0,1-3-.8,4,4,0,0,1-.9-2.9v-6.2h-3v-1.4h3v-3.2Z"/><path d="M211.1,286.9l-1.5.7-1.6.2a5.4,5.4,0,0,1-4.1-1.6,7.2,7.2,0,0,1,0-8.8,5.4,5.4,0,0,1,4.1-1.6l1.6.2,1.6.7v2a5.1,5.1,0,0,0-1.5-1,4.6,4.6,0,0,0-1.7-.3,3.3,3.3,0,0,0-2.7,1.1,6,6,0,0,0,0,6.5,3.3,3.3,0,0,0,2.7,1.1,4.8,4.8,0,0,0,1.7-.3,4.3,4.3,0,0,0,1.4-.9Z"/><path d="M223.5,280.5v7h-1.9v-7a3.8,3.8,0,0,0-.5-2.2,2,2,0,0,0-1.7-.7,2.4,2.4,0,0,0-2,.9,4.3,4.3,0,0,0-.7,2.7v6.4h-1.9V271.7h1.9v6.1a3.5,3.5,0,0,1,1.3-1.5,3.9,3.9,0,0,1,2-.5,3,3,0,0,1,2.6,1.1A5.7,5.7,0,0,1,223.5,280.5Z"/><path d="M228.5,276.2h4.8v9.9H237v1.4h-9.3v-1.4h3.7v-8.4h-2.9Zm2.9-4.4h1.9v2.4h-1.9Z"/><path d="M248.5,280.5v7h-1.9v-7a3.8,3.8,0,0,0-.5-2.2,2,2,0,0,0-1.7-.7,2.4,2.4,0,0,0-2,.9,4.3,4.3,0,0,0-.7,2.7v6.4h-1.9V276.2h1.9v1.7a3.5,3.5,0,0,1,1.3-1.5,3.9,3.9,0,0,1,2-.5,3,3,0,0,1,2.6,1.1A5.7,5.7,0,0,1,248.5,280.5Z"/><path d="M260.9,286.8a5.5,5.5,0,0,1-1.2,3.9,4.6,4.6,0,0,1-3.5,1.3h-1.6l-1.7-.4v-1.8l1.8.7,1.5.2a2.7,2.7,0,0,0,2.2-.8,4,4,0,0,0,.7-2.6h0v-1.3a3.2,3.2,0,0,1-1.2,1.4,3.6,3.6,0,0,1-1.9.5,3.8,3.8,0,0,1-3.2-1.6,8.2,8.2,0,0,1,0-8.5,3.8,3.8,0,0,1,3.2-1.6,3.7,3.7,0,0,1,1.9.4,3.2,3.2,0,0,1,1.2,1.3v-1.5h1.9Zm-1.9-5a6,6,0,0,0-.7-3.2,2.2,2.2,0,0,0-2-1.1,2.4,2.4,0,0,0-2.1,1.1,7.4,7.4,0,0,0,0,6.4,2.4,2.4,0,0,0,2.1,1.1,2.2,2.2,0,0,0,2-1.1A6.1,6.1,0,0,0,259,281.7Z"/><path d="M334.9,247.5h3.2q3.7,0,5.3,1.8T345,255q0,4-1.6,5.8t-5.3,1.8h-3.2Zm3,2.7v9.7h.8a2.8,2.8,0,0,0,2.5-1.1,7,7,0,0,0,.8-3.8,7,7,0,0,0-.7-3.7,2.8,2.8,0,0,0-2.5-1.1Z"/><path d="M347,256.9a6.3,6.3,0,0,1,1.4-4.4,5.4,5.4,0,0,1,7.7,0,7.4,7.4,0,0,1,0,8.7,5.4,5.4,0,0,1-7.7,0A6.3,6.3,0,0,1,347,256.9Zm5.3-3.5a1.9,1.9,0,0,0-1.7.9,5.9,5.9,0,0,0,0,5.2,2,2,0,0,0,3.4,0,5.9,5.9,0,0,0,0-5.2A1.9,1.9,0,0,0,352.2,253.4Z"/><path d="M369.3,255.2v7.4h-2.9v-6.9a3.3,3.3,0,0,0-.3-1.8,1.3,1.3,0,0,0-1.1-.5,1.4,1.4,0,0,0-1.3.7,3.7,3.7,0,0,0-.5,2v6.5h-2.9V251.3h2.9V253a2.8,2.8,0,0,1,1.1-1.5,3.2,3.2,0,0,1,1.8-.5,2.9,2.9,0,0,1,2.4,1.1A5.2,5.2,0,0,1,369.3,255.2Z"/><path d="M382.1,262l-2.1.6-2.3.2a5.8,5.8,0,0,1-4.4-1.5,6,6,0,0,1-1.5-4.4,6.3,6.3,0,0,1,1.4-4.4,5.8,5.8,0,0,1,7.9-.1,5.9,5.9,0,0,1,1.4,4.2v1.2h-7.7a2.5,2.5,0,0,0,.8,2,3.5,3.5,0,0,0,2.3.7l2-.3a9.3,9.3,0,0,0,2.1-.9Zm-2.5-6.4a2.5,2.5,0,0,0-.6-1.8,2.3,2.3,0,0,0-1.7-.6,2.2,2.2,0,0,0-1.6.6,2.8,2.8,0,0,0-.7,1.8Z"/><path d="M396,251.3h2.5l1.3,8.7,1.2-5.7h2.4l1.2,5.7,1.4-8.7h2.5l-2.1,11.4h-2.8l-1.4-5.9-1.4,5.9H398Z"/><path d="M419.7,256.1v6.5h-2.9v-1.3a3.6,3.6,0,0,1-1.4,1.2,4.8,4.8,0,0,1-4.9-.6,3.7,3.7,0,0,1-1.1-2.9,3.4,3.4,0,0,1,1.3-2.9,6.7,6.7,0,0,1,4-.9h2.1v-.5a1.2,1.2,0,0,0-.5-1.1,2.6,2.6,0,0,0-1.5-.4l-2.1.3-2.1.9v-2.5l2-.6,2.1-.2q2.8,0,3.9,1.1T419.7,256.1Zm-4.1,1.1a4.6,4.6,0,0,0-2.3.4,1.6,1.6,0,0,0-.7,1.5,1.6,1.6,0,0,0,1.7,1.7,2.1,2.1,0,0,0,1.8-.9,4.1,4.1,0,0,0,.6-2.5v-.2Z"/><path d="M427.9,248v3.2h3.9v2.3h-3.9v5.4a1.4,1.4,0,0,0,.4,1.1,1.8,1.8,0,0,0,1.2.3h2.3v2.3h-2.5q-2.6,0-3.5-.8a4,4,0,0,1-.9-3v-5.2h-2.9v-2.3H425V248Z"/><path d="M444.2,262l-1.6.7-1.9.2a5.3,5.3,0,0,1-4.1-1.6,7.2,7.2,0,0,1,0-8.8,5.4,5.4,0,0,1,4.1-1.6l1.8.2,1.7.7v2.7a4.8,4.8,0,0,0-1.4-.9,4.4,4.4,0,0,0-1.6-.3,2.8,2.8,0,0,0-2.2.9,4,4,0,0,0-.8,2.6,3.9,3.9,0,0,0,.8,2.6,2.8,2.8,0,0,0,2.2.9,4.4,4.4,0,0,0,1.6-.3,4.7,4.7,0,0,0,1.4-.9Z"/><path d="M456.8,255.2v7.4h-2.9v-6.9a3.3,3.3,0,0,0-.3-1.8,1.3,1.3,0,0,0-1.1-.5,1.4,1.4,0,0,0-1.3.7,3.7,3.7,0,0,0-.5,2v6.5h-2.9V246.8h2.9V253a2.8,2.8,0,0,1,1.1-1.5,3.2,3.2,0,0,1,1.8-.5,2.9,2.9,0,0,1,2.4,1.1A5.2,5.2,0,0,1,456.8,255.2Z"/><path d="M460.7,251.3h5.9v9.1h3.7v2.3H459.9v-2.3h3.7v-6.8h-2.9Zm2.9-5.5h3v3.5h-3Z"/><path d="M481.8,255.2v7.4h-2.9v-6.9a3.3,3.3,0,0,0-.3-1.8,1.3,1.3,0,0,0-1.1-.5,1.4,1.4,0,0,0-1.3.7,3.7,3.7,0,0,0-.5,2v6.5h-2.9V251.3h2.9V253a2.8,2.8,0,0,1,1.1-1.5,3.2,3.2,0,0,1,1.8-.5,2.9,2.9,0,0,1,2.4,1.1A5.2,5.2,0,0,1,481.8,255.2Z"/><path d="M494.5,261.8a5.4,5.4,0,0,1-1.2,3.9,5.5,5.5,0,0,1-4,1.2h-1.8l-1.9-.4v-2.7l1.7.7,1.8.2a2.5,2.5,0,0,0,1.9-.6,2.5,2.5,0,0,0,.6-1.8v-1.2a2.9,2.9,0,0,1-1.2,1.2,3.6,3.6,0,0,1-1.8.4,3.7,3.7,0,0,1-3.1-1.5,6.7,6.7,0,0,1-1.1-4.1,7.1,7.1,0,0,1,1.1-4.3,3.6,3.6,0,0,1,3.1-1.6,3.3,3.3,0,0,1,1.7.5,3.2,3.2,0,0,1,1.2,1.3v-1.4h3Zm-3-5a4.5,4.5,0,0,0-.6-2.4,1.7,1.7,0,0,0-1.5-.9,1.7,1.7,0,0,0-1.5.9,5.5,5.5,0,0,0,0,4.9,1.7,1.7,0,0,0,1.5.9,1.7,1.7,0,0,0,1.5-.9A4.5,4.5,0,0,0,491.6,256.8Z"/><path d="M300.6,287l-1.6.6-1.7.2a5.4,5.4,0,0,1-4.5-2.1,11.2,11.2,0,0,1,0-11.6,5.4,5.4,0,0,1,4.5-2.1l1.7.2,1.6.6V275a5.7,5.7,0,0,0-1.6-.9,4.9,4.9,0,0,0-1.7-.3,3.3,3.3,0,0,0-3,1.5,11.4,11.4,0,0,0,0,9.3,3.3,3.3,0,0,0,3,1.5,4.9,4.9,0,0,0,1.7-.3,5.5,5.5,0,0,0,1.6-.9Z"/><path d="M308.5,275.9a4.4,4.4,0,0,1,3.6,1.5,8.5,8.5,0,0,1,0,8.9,5,5,0,0,1-7.2,0,8.5,8.5,0,0,1,0-8.9A4.4,4.4,0,0,1,308.5,275.9Zm0,1.6a2.4,2.4,0,0,0-2.1,1.1,7.7,7.7,0,0,0,0,6.5,2.6,2.6,0,0,0,4.3,0,7.7,7.7,0,0,0,0-6.5A2.4,2.4,0,0,0,308.5,277.5Z"/><path d="M321.6,277.3a2.6,2.6,0,0,1,.9-1.1,2.3,2.3,0,0,1,1.3-.3,2,2,0,0,1,1.9,1.1,9.6,9.6,0,0,1,.6,4v6.6h-1.7V281a9.6,9.6,0,0,0-.3-3,1,1,0,0,0-1-.6,1.1,1.1,0,0,0-1.1.6,8.7,8.7,0,0,0-.3,2.9v6.5h-1.7V281a8.9,8.9,0,0,0-.3-3,1.1,1.1,0,0,0-1-.6,1,1,0,0,0-1,.6,9,9,0,0,0-.3,2.9v6.5h-1.7V276.2h1.7v1a2.5,2.5,0,0,1,.8-.9,2.1,2.1,0,0,1,1.1-.3,2.2,2.2,0,0,1,1.3.4A2.3,2.3,0,0,1,321.6,277.3Z"/><path d="M338.6,280.9v.9h-8.1a4.5,4.5,0,0,0,.9,3.3,3.6,3.6,0,0,0,2.7,1l1.9-.3,2.1-.9v1.9l-2.1.7-1.9.2a5.4,5.4,0,0,1-4.1-1.6,6.1,6.1,0,0,1-1.5-4.4,6.2,6.2,0,0,1,1.5-4.3,5,5,0,0,1,3.9-1.6,4.3,4.3,0,0,1,3.4,1.5A5.6,5.6,0,0,1,338.6,280.9Zm-1.9-.5a3.6,3.6,0,0,0-.9-2,2.6,2.6,0,0,0-2.1-.9,3,3,0,0,0-2.2.9,3.1,3.1,0,0,0-1,2Z"/><path d="M363,286.9l-1.5.7-1.6.2a5.4,5.4,0,0,1-4.1-1.6,7.2,7.2,0,0,1,0-8.8,5.4,5.4,0,0,1,4.1-1.6l1.6.2,1.6.7v2a5.1,5.1,0,0,0-1.5-1,4.6,4.6,0,0,0-1.7-.3,3.3,3.3,0,0,0-2.7,1.1,6,6,0,0,0,0,6.5,3.3,3.3,0,0,0,2.7,1.1,4.8,4.8,0,0,0,1.7-.3,4.3,4.3,0,0,0,1.4-.9Z"/><path d="M375.4,280.5v7h-1.9v-7a3.8,3.8,0,0,0-.5-2.2,2,2,0,0,0-1.7-.7,2.4,2.4,0,0,0-2,.9,4.3,4.3,0,0,0-.7,2.7v6.4h-1.9V271.7h1.9v6.1a3.5,3.5,0,0,1,1.3-1.5,3.9,3.9,0,0,1,2-.5,3,3,0,0,1,2.6,1.1A5.7,5.7,0,0,1,375.4,280.5Z"/><path d="M388.6,280.9v.9h-8.1a4.5,4.5,0,0,0,.9,3.3,3.6,3.6,0,0,0,2.7,1l1.9-.3,2.1-.9v1.9l-2.1.7-1.9.2a5.4,5.4,0,0,1-4.1-1.6,6.1,6.1,0,0,1-1.5-4.4,6.2,6.2,0,0,1,1.5-4.3,5,5,0,0,1,3.9-1.6,4.3,4.3,0,0,1,3.4,1.5A5.6,5.6,0,0,1,388.6,280.9Zm-1.9-.5a3.6,3.6,0,0,0-.9-2,2.6,2.6,0,0,0-2.1-.9,3,3,0,0,0-2.2.9,3.1,3.1,0,0,0-1,2Z"/><path d="M400.5,286.9l-1.5.7-1.6.2a5.4,5.4,0,0,1-4.1-1.6,7.2,7.2,0,0,1,0-8.8,5.4,5.4,0,0,1,4.1-1.6l1.6.2,1.6.7v2a5.1,5.1,0,0,0-1.5-1,4.6,4.6,0,0,0-1.7-.3,3.3,3.3,0,0,0-2.7,1.1,6,6,0,0,0,0,6.5,3.3,3.3,0,0,0,2.7,1.1,4.8,4.8,0,0,0,1.7-.3,4.3,4.3,0,0,0,1.4-.9Z"/><path d="M404.6,271.7h1.9v9.1l4.9-4.7h2.3l-4.5,4.3,5.2,7.1h-2.3l-4.2-5.9-1.4,1.3v4.5h-1.9Z"/><path d="M434.1,277.3a2.6,2.6,0,0,1,.9-1.1,2.3,2.3,0,0,1,1.3-.3,2,2,0,0,1,1.9,1.1,9.6,9.6,0,0,1,.6,4v6.6H437V281a9.6,9.6,0,0,0-.3-3,1,1,0,0,0-1-.6,1.1,1.1,0,0,0-1.1.6,8.7,8.7,0,0,0-.3,2.9v6.5h-1.7V281a8.9,8.9,0,0,0-.3-3,1.1,1.1,0,0,0-1-.6,1,1,0,0,0-1,.6,9,9,0,0,0-.3,2.9v6.5h-1.7V276.2H430v1a2.5,2.5,0,0,1,.8-.9,2.1,2.1,0,0,1,1.1-.3,2.2,2.2,0,0,1,1.3.4A2.3,2.3,0,0,1,434.1,277.3Z"/><path d="M448.4,283.9l-1.2,3.1a30,30,0,0,1-1.3,3.3,3.2,3.2,0,0,1-1.2,1.2,3.3,3.3,0,0,1-1.6.4h-1.5v-1.6h1.1a1.7,1.7,0,0,0,1.3-.5,8.2,8.2,0,0,0,1.2-2.5l-4.4-11.2h2l3.4,8.9,3.3-8.9h2Z"/><path d="M465.7,276.2h1.9l3.3,9.5,3.3-9.5h1.9l-4,11.4h-2.4Z"/><path d="M480.4,276.2h4.8v9.9h3.7v1.4h-9.3v-1.4h3.7v-8.4h-2.9Zm2.9-4.4h1.9v2.4h-1.9Z"/><path d="M498.4,277.6v-5.9h1.9v15.8h-1.9v-1.4a3.2,3.2,0,0,1-1.2,1.3,3.6,3.6,0,0,1-1.8.4,3.8,3.8,0,0,1-3.2-1.6,7.3,7.3,0,0,1-1.2-4.4,7.1,7.1,0,0,1,1.2-4.3,3.8,3.8,0,0,1,3.2-1.6,3.6,3.6,0,0,1,1.8.4A3.1,3.1,0,0,1,498.4,277.6Zm-5.5,4.2a6.3,6.3,0,0,0,.7,3.3,2.3,2.3,0,0,0,2,1.1,2.3,2.3,0,0,0,2.1-1.1,7.9,7.9,0,0,0,0-6.5,2.3,2.3,0,0,0-2.1-1.1,2.3,2.3,0,0,0-2,1.1A6.3,6.3,0,0,0,492.9,281.8Z"/><path d="M513.5,280.9v.9h-8.1a4.5,4.5,0,0,0,.9,3.3,3.6,3.6,0,0,0,2.7,1l1.9-.3,2.1-.9v1.9l-2.1.7-1.9.2a5.4,5.4,0,0,1-4.1-1.6,6.1,6.1,0,0,1-1.5-4.4,6.2,6.2,0,0,1,1.5-4.3,5,5,0,0,1,3.9-1.6,4.3,4.3,0,0,1,3.4,1.5A5.6,5.6,0,0,1,513.5,280.9Zm-1.9-.5a3.6,3.6,0,0,0-.9-2,2.6,2.6,0,0,0-2.1-.9,3,3,0,0,0-2.2.9,3.1,3.1,0,0,0-1,2Z"/><path d="M520.9,275.9a4.4,4.4,0,0,1,3.6,1.5,8.5,8.5,0,0,1,0,8.9,5,5,0,0,1-7.2,0,8.5,8.5,0,0,1,0-8.9A4.4,4.4,0,0,1,520.9,275.9Zm0,1.6a2.4,2.4,0,0,0-2.1,1.1,7.7,7.7,0,0,0,0,6.5,2.6,2.6,0,0,0,4.3,0,7.7,7.7,0,0,0,0-6.5A2.4,2.4,0,0,0,520.9,277.5Z"/><path d="M537,276.6v1.8l-1.6-.7-1.7-.2a3.5,3.5,0,0,0-1.9.4,1.4,1.4,0,0,0-.6,1.3,1.4,1.4,0,0,0,.5,1.1,6.4,6.4,0,0,0,2.3.7h.8a3.7,3.7,0,0,1,2.1,1.1,3,3,0,0,1,.7,2.1,3.2,3.2,0,0,1-1.2,2.6,5.2,5.2,0,0,1-3.3.9l-1.8-.2-2-.5v-1.9l2,.8,1.8.3a3.2,3.2,0,0,0,1.9-.5,1.6,1.6,0,0,0,.7-1.4q0-1.3-2.5-1.8h-.8a4.5,4.5,0,0,1-2.4-1.1,2.8,2.8,0,0,1-.7-2,3,3,0,0,1,1.1-2.5,4.9,4.9,0,0,1,3.2-.9l1.8.2Z"/><path d="M611.7,247.5h3v5.8h3.7v-5.8h3v15.1h-3v-6.7h-3.7v6.7h-3Z"/><path d="M634,262l-2.1.6-2.3.2a5.8,5.8,0,0,1-4.4-1.5,6,6,0,0,1-1.5-4.4,6.3,6.3,0,0,1,1.4-4.4,5.8,5.8,0,0,1,7.9-.1,5.9,5.9,0,0,1,1.4,4.2v1.2h-7.7a2.5,2.5,0,0,0,.8,2,3.5,3.5,0,0,0,2.3.7l2-.3a9.3,9.3,0,0,0,2.1-.9Zm-2.5-6.4a2.5,2.5,0,0,0-.6-1.8,2.3,2.3,0,0,0-1.7-.6,2.2,2.2,0,0,0-1.6.6,2.8,2.8,0,0,0-.7,1.8Z"/><path d="M639.2,257.9v-8.8h-3v-2.3h6v11a3.3,3.3,0,0,0,.4,1.9,1.6,1.6,0,0,0,1.4.6h2.4v2.3h-3.2a3.8,3.8,0,0,1-3-1.1A5.7,5.7,0,0,1,639.2,257.9Z"/><path d="M652.3,261v5.9h-3V251.3h3V253a3.5,3.5,0,0,1,1.2-1.5,3.2,3.2,0,0,1,1.8-.5,3.5,3.5,0,0,1,3,1.6,7.7,7.7,0,0,1,1.1,4.4,7.6,7.6,0,0,1-1.1,4.4,3.6,3.6,0,0,1-3.1,1.5,2.9,2.9,0,0,1-1.6-.5A4.1,4.1,0,0,1,652.3,261Zm4.1-4.1a5.1,5.1,0,0,0-.5-2.6,1.7,1.7,0,0,0-1.5-.9,1.7,1.7,0,0,0-1.5.9,6.2,6.2,0,0,0,0,5.1,1.7,1.7,0,0,0,1.5.9,1.7,1.7,0,0,0,1.5-.9A5.1,5.1,0,0,0,656.4,256.9Z"/><path d="M680.3,250.3v1h3.5v2.3h-3.5v9.1h-3v-9.1h-2.8v-2.3h2.8v-.8a3.8,3.8,0,0,1,.9-2.8,4.7,4.7,0,0,1,3.2-.8h2.4v2.3h-2.3a1.3,1.3,0,0,0-.9.2A1.4,1.4,0,0,0,680.3,250.3Z"/><path d="M697,254.4a3.2,3.2,0,0,0-1.1-.7l-1.4-.2a3.9,3.9,0,0,0-1.6.3,2.5,2.5,0,0,0-1.1,1,2.6,2.6,0,0,0-.3.9,10.4,10.4,0,0,0-.1,1.7v5.2h-3V251.3h3V253a3.2,3.2,0,0,1,1.3-1.5,4.1,4.1,0,0,1,2.1-.5h1.2l1.1.4Z"/><path d="M698.8,256.9a6.3,6.3,0,0,1,1.4-4.4,5.4,5.4,0,0,1,7.7,0,7.4,7.4,0,0,1,0,8.7,5.4,5.4,0,0,1-7.7,0A6.3,6.3,0,0,1,698.8,256.9Zm5.3-3.5a1.9,1.9,0,0,0-1.7.9,5.9,5.9,0,0,0,0,5.2,2,2,0,0,0,3.4,0,5.9,5.9,0,0,0,0-5.2A1.9,1.9,0,0,0,704,253.4Z"/><path d="M717.3,252.4a2.5,2.5,0,0,1,.9-1.1,2.2,2.2,0,0,1,1.3-.3,2.1,2.1,0,0,1,2,1,10.2,10.2,0,0,1,.6,4.2v6.4h-2.4v-7.3a4.8,4.8,0,0,0-.2-1.7.7.7,0,0,0-.7-.4.7.7,0,0,0-.7.4,4.6,4.6,0,0,0-.2,1.7v7.3h-2.4v-7.3a4.6,4.6,0,0,0-.2-1.7.7.7,0,0,0-.7-.4.7.7,0,0,0-.7.4,4.8,4.8,0,0,0-.2,1.7v7.3h-2.4V251.3h2.2v1.2a2.2,2.2,0,0,1,.8-1.1,2.2,2.2,0,0,1,2.5,0A1.6,1.6,0,0,1,717.3,252.4Z"/><path d="M743,262.6h-3V250.1h-3.8v-2.6h10.7v2.6H743Z"/><path d="M752.2,247.5h3.7l4.1,15.1h-3l-.9-3.7h-4l-.9,3.7h-3Zm1.8,2.7-1.4,6.2h2.8Z"/><path d="M571.6,272.4h2.5l4.6,15.1h-2.1l-1.1-3.9h-5.3l-1.1,3.9H567Zm1.2,1.8-2.2,7.7H575Z"/><path d="M586.4,283.4a3.2,3.2,0,0,0,.5,1.9,1.6,1.6,0,0,0,1.4.6h2.2v1.6H588a3.2,3.2,0,0,1-2.6-1.1,4.5,4.5,0,0,1-.9-3V273.1h-3v-1.5h4.9Z"/><path d="M591.6,276.2h1.8l2,9.2,1.6-5.9h1.6l1.6,5.9,2-9.2h1.8l-2.7,11.4h-1.8l-1.8-6.2-1.8,6.2h-1.8Z"/><path d="M614.8,281v6.5h-1.9v-1.7a3.8,3.8,0,0,1-1.5,1.5,4.6,4.6,0,0,1-2.2.5,3.9,3.9,0,0,1-2.8-1,3.9,3.9,0,0,1,.2-5.5,6,6,0,0,1,3.7-1h2.5v-.3a2.6,2.6,0,0,0-.7-2,3.2,3.2,0,0,0-2.2-.6l-1.9.3-1.9.8v-1.9l2-.6,1.8-.2a6.3,6.3,0,0,1,2.4.4,3.8,3.8,0,0,1,1.6,1.2,3.1,3.1,0,0,1,.5,1.3A11.4,11.4,0,0,1,614.8,281Zm-3.6.8h-.6a4.3,4.3,0,0,0-2.5.6,1.9,1.9,0,0,0-.8,1.7,2.1,2.1,0,0,0,.6,1.6,2.4,2.4,0,0,0,1.7.6,3,3,0,0,0,2.4-1.1,4.6,4.6,0,0,0,.9-3v-.4Z"/><path d="M625.3,283.9l-1.2,3.1a30,30,0,0,1-1.3,3.3,3.2,3.2,0,0,1-1.2,1.2,3.3,3.3,0,0,1-1.6.4h-1.5v-1.6h1.1a1.7,1.7,0,0,0,1.3-.5,8.2,8.2,0,0,0,1.2-2.5l-4.4-11.2h2L623,285l3.3-8.9h2Z"/><path d="M638.9,276.6v1.8l-1.6-.7-1.7-.2a3.5,3.5,0,0,0-1.9.4,1.4,1.4,0,0,0-.6,1.3,1.4,1.4,0,0,0,.5,1.1,6.4,6.4,0,0,0,2.3.7h.8a3.7,3.7,0,0,1,2.1,1.1,3,3,0,0,1,.7,2.1,3.2,3.2,0,0,1-1.2,2.6,5.2,5.2,0,0,1-3.3.9l-1.8-.2-2-.5v-1.9l2,.8,1.8.3a3.2,3.2,0,0,0,1.9-.5,1.6,1.6,0,0,0,.7-1.4q0-1.3-2.5-1.8h-.8a4.5,4.5,0,0,1-2.4-1.1,2.8,2.8,0,0,1-.7-2,3,3,0,0,1,1.1-2.5,4.9,4.9,0,0,1,3.2-.9l1.8.2Z"/><path d="M664.7,280.5v7h-1.9v-7a3.8,3.8,0,0,0-.5-2.2,2,2,0,0,0-1.7-.7,2.4,2.4,0,0,0-2,.9,4.3,4.3,0,0,0-.7,2.7v6.4H656V271.7h1.9v6.1a3.5,3.5,0,0,1,1.3-1.5,3.9,3.9,0,0,1,2-.5,3,3,0,0,1,2.6,1.1A5.7,5.7,0,0,1,664.7,280.5Z"/><path d="M677.3,281v6.5h-1.9v-1.7a3.8,3.8,0,0,1-1.5,1.5,4.6,4.6,0,0,1-2.2.5,3.9,3.9,0,0,1-2.8-1,3.9,3.9,0,0,1,.2-5.5,6,6,0,0,1,3.7-1h2.5v-.3a2.6,2.6,0,0,0-.7-2,3.2,3.2,0,0,0-2.2-.6l-1.9.3-1.9.8v-1.9l2-.6,1.8-.2a6.3,6.3,0,0,1,2.4.4,3.8,3.8,0,0,1,1.6,1.2,3.1,3.1,0,0,1,.5,1.3A11.4,11.4,0,0,1,677.3,281Zm-3.6.8H673a4.3,4.3,0,0,0-2.5.6,1.9,1.9,0,0,0-.8,1.7,2.1,2.1,0,0,0,.6,1.6,2.4,2.4,0,0,0,1.7.6,3,3,0,0,0,2.4-1.1,4.6,4.6,0,0,0,.9-3v-.4Z"/><path d="M688.9,276.6v1.8l-1.6-.7-1.7-.2a3.5,3.5,0,0,0-1.9.4,1.4,1.4,0,0,0-.6,1.3,1.4,1.4,0,0,0,.5,1.1,6.4,6.4,0,0,0,2.3.7h.8a3.7,3.7,0,0,1,2.1,1.1,3,3,0,0,1,.7,2.1,3.2,3.2,0,0,1-1.2,2.6,5.2,5.2,0,0,1-3.3.9l-1.8-.2-2-.5v-1.9l2,.8,1.8.3a3.2,3.2,0,0,0,1.9-.5,1.6,1.6,0,0,0,.7-1.4q0-1.3-2.5-1.8h-.8a4.5,4.5,0,0,1-2.4-1.1,2.8,2.8,0,0,1-.7-2,3,3,0,0,1,1.1-2.5,4.9,4.9,0,0,1,3.2-.9l1.8.2Z"/><path d="M707.8,286.1v5.7H706V276.2h1.9v1.4a3.2,3.2,0,0,1,1.2-1.3,3.6,3.6,0,0,1,1.8-.4,3.8,3.8,0,0,1,3.2,1.6,7.3,7.3,0,0,1,1.2,4.4,7.1,7.1,0,0,1-1.2,4.3,3.8,3.8,0,0,1-3.2,1.6,3.6,3.6,0,0,1-1.8-.4A3.1,3.1,0,0,1,707.8,286.1Zm5.5-4.2a6.3,6.3,0,0,0-.7-3.3,2.2,2.2,0,0,0-2-1.1,2.3,2.3,0,0,0-2.1,1.1,8,8,0,0,0,0,6.5,2.3,2.3,0,0,0,2.1,1.1,2.2,2.2,0,0,0,2-1.1A6.3,6.3,0,0,0,713.3,281.8Z"/><path d="M728.2,278.5l-1.2-.7-1.4-.2a3.3,3.3,0,0,0-2.7,1.1,4.8,4.8,0,0,0-.9,3.2v5.6h-1.9V276.2h1.9v2.2a3.8,3.8,0,0,1,1.4-1.8,4.1,4.1,0,0,1,2.3-.6l1.3.2,1.1.5Z"/><path d="M732.2,276.2H737v9.9h3.7v1.4h-9.3v-1.4h3.7v-8.4h-2.9Zm2.9-4.4H737v2.4h-1.9Z"/><path d="M747.8,275.9a4.4,4.4,0,0,1,3.6,1.5,8.5,8.5,0,0,1,0,8.9,5,5,0,0,1-7.2,0,8.5,8.5,0,0,1,0-8.9A4.4,4.4,0,0,1,747.8,275.9Zm0,1.6a2.4,2.4,0,0,0-2.1,1.1,7.7,7.7,0,0,0,0,6.5,2.6,2.6,0,0,0,4.3,0,7.7,7.7,0,0,0,0-6.5A2.4,2.4,0,0,0,747.8,277.5Z"/><path d="M765.7,278.5l-1.2-.7-1.4-.2a3.3,3.3,0,0,0-2.7,1.1,4.8,4.8,0,0,0-.9,3.2v5.6h-1.9V276.2h1.9v2.2a3.8,3.8,0,0,1,1.4-1.8,4.1,4.1,0,0,1,2.3-.6l1.3.2,1.1.5Z"/><path d="M769.7,276.2h4.8v9.9h3.7v1.4h-9.3v-1.4h3.7v-8.4h-2.9Zm2.9-4.4h1.9v2.4h-1.9Z"/><path d="M785.2,272.9v3.2h4.2v1.4h-4.2v6.2a2.5,2.5,0,0,0,.5,1.8,2.2,2.2,0,0,0,1.7.5h2.1v1.5h-2.3a4.2,4.2,0,0,1-3-.8,4,4,0,0,1-.9-2.9v-6.2h-3v-1.4h3v-3.2Z"/><path d="M800.2,283.9,799,287a30,30,0,0,1-1.3,3.3,3.2,3.2,0,0,1-1.2,1.2,3.3,3.3,0,0,1-1.6.4h-1.5v-1.6h1.1a1.7,1.7,0,0,0,1.3-.5,8.2,8.2,0,0,0,1.2-2.5l-4.4-11.2h2l3.4,8.9,3.3-8.9h2Z"/><path d="M911.1,256a7.6,7.6,0,0,1-3.1-1.8,3.8,3.8,0,0,1-.8-2.5,4.1,4.1,0,0,1,1.3-3.2,5.2,5.2,0,0,1,3.6-1.2l2.1.2,2.1.7v2.9a8.2,8.2,0,0,0-2-1,5.8,5.8,0,0,0-2-.4,2.7,2.7,0,0,0-1.7.4,1.5,1.5,0,0,0-.6,1.2,1.4,1.4,0,0,0,.4,1,5.5,5.5,0,0,0,1.8.9l1.3.5a5.9,5.9,0,0,1,2.7,1.8,4.4,4.4,0,0,1,.9,2.8,4.2,4.2,0,0,1-1.4,3.4,6.3,6.3,0,0,1-4.1,1.1l-2.3-.3-2.2-.8v-3.1a10.1,10.1,0,0,0,2.3,1.3,6.3,6.3,0,0,0,2.2.4,2.6,2.6,0,0,0,1.7-.5,1.7,1.7,0,0,0,.6-1.4,1.9,1.9,0,0,0-.4-1.2,2.7,2.7,0,0,0-1.2-.8Z"/><path d="M920,258.6v-7.4h3v6.9a3.3,3.3,0,0,0,.3,1.8,1.3,1.3,0,0,0,1.1.5,1.4,1.4,0,0,0,1.3-.7,3.7,3.7,0,0,0,.5-2v-6.5h3v11.4h-3v-1.7a2.8,2.8,0,0,1-1.1,1.5,3.1,3.1,0,0,1-1.8.5,2.9,2.9,0,0,1-2.4-1.1A5.2,5.2,0,0,1,920,258.6Z"/><path d="M941.6,262l-1.6.7-1.9.2a5.3,5.3,0,0,1-4.1-1.6,7.2,7.2,0,0,1,0-8.8,5.4,5.4,0,0,1,4.1-1.6l1.8.2,1.7.7v2.7a4.8,4.8,0,0,0-1.4-.9,4.4,4.4,0,0,0-1.6-.3,2.8,2.8,0,0,0-2.2.9,4,4,0,0,0-.8,2.6,3.9,3.9,0,0,0,.8,2.6,2.8,2.8,0,0,0,2.2.9,4.4,4.4,0,0,0,1.6-.3,4.7,4.7,0,0,0,1.4-.9Z"/><path d="M954.1,262l-1.6.7-1.9.2a5.3,5.3,0,0,1-4.1-1.6,7.2,7.2,0,0,1,0-8.8,5.4,5.4,0,0,1,4.1-1.6l1.8.2,1.7.7v2.7a4.8,4.8,0,0,0-1.4-.9,4.4,4.4,0,0,0-1.6-.3,2.8,2.8,0,0,0-2.2.9,4,4,0,0,0-.8,2.6,3.9,3.9,0,0,0,.8,2.6,2.8,2.8,0,0,0,2.2.9,4.4,4.4,0,0,0,1.6-.3,4.7,4.7,0,0,0,1.4-.9Z"/><path d="M967.1,262l-2.1.6-2.3.2a5.8,5.8,0,0,1-4.4-1.5,6,6,0,0,1-1.5-4.4,6.3,6.3,0,0,1,1.4-4.4,5.8,5.8,0,0,1,7.9-.1,5.9,5.9,0,0,1,1.4,4.2v1.2h-7.7a2.5,2.5,0,0,0,.8,2,3.5,3.5,0,0,0,2.3.7l2-.3a9.3,9.3,0,0,0,2.1-.9Zm-2.5-6.4a2.5,2.5,0,0,0-.6-1.8,2.3,2.3,0,0,0-1.7-.6,2.2,2.2,0,0,0-1.6.6,2.8,2.8,0,0,0-.7,1.8Z"/><path d="M978.4,251.6v2.6l-1.7-.8-1.8-.3a3.1,3.1,0,0,0-1.5.3.9.9,0,0,0-.5.9q0,.8,2.2,1.3h.1l.9.2a4.5,4.5,0,0,1,2.4,1.2,3.4,3.4,0,0,1,.8,2.3A3.1,3.1,0,0,1,978,262a5.7,5.7,0,0,1-3.5.9l-2.1-.2-2.2-.5v-2.6l2,.9,2,.3a3.3,3.3,0,0,0,1.6-.3,1,1,0,0,0,.5-.9,1,1,0,0,0-.4-.9,5.5,5.5,0,0,0-1.8-.6l-.8-.2a4.8,4.8,0,0,1-2.5-1.2,3.4,3.4,0,0,1,.4-4.8,5.4,5.4,0,0,1,3.3-.9l1.9.2Z"/><path d="M990.9,251.6v2.6l-1.7-.8-1.8-.3a3.1,3.1,0,0,0-1.5.3.9.9,0,0,0-.5.9q0,.8,2.2,1.3h.1l.9.2a4.5,4.5,0,0,1,2.4,1.2,3.4,3.4,0,0,1,.8,2.3,3.1,3.1,0,0,1-1.2,2.6,5.7,5.7,0,0,1-3.5.9l-2.1-.2-2.2-.5v-2.6l2,.9,2,.3a3.3,3.3,0,0,0,1.6-.3,1,1,0,0,0,.5-.9,1,1,0,0,0-.4-.9,5.5,5.5,0,0,0-1.8-.6l-.8-.2a4.8,4.8,0,0,1-2.5-1.2,3.4,3.4,0,0,1,.4-4.8,5.4,5.4,0,0,1,3.3-.9l1.9.2Z"/><path d="M998.3,247.5h2.7v6.6l-.3,3.6h-2l-.4-3.6Zm0,12.3h2.7v2.9h-2.7Z"/><path d="M869.8,272.4h2.1v5.8h5.6v-5.8h2.1v15.1h-2.1v-7.6h-5.6v7.6h-2.1Z"/><path d="M892.3,280.9v.9h-8.1a4.5,4.5,0,0,0,.9,3.3,3.6,3.6,0,0,0,2.7,1l1.9-.3,2.1-.9v1.9l-2.1.7-1.9.2a5.4,5.4,0,0,1-4.1-1.6,6.1,6.1,0,0,1-1.5-4.4,6.2,6.2,0,0,1,1.5-4.3,5,5,0,0,1,3.9-1.6,4.3,4.3,0,0,1,3.4,1.5A5.6,5.6,0,0,1,892.3,280.9Zm-1.9-.5a3.6,3.6,0,0,0-.9-2,2.6,2.6,0,0,0-2.1-.9,3,3,0,0,0-2.2.9,3.1,3.1,0,0,0-1,2Z"/><path d="M900.7,283.4a3.2,3.2,0,0,0,.5,1.9,1.6,1.6,0,0,0,1.4.6h2.2v1.6h-2.4a3.2,3.2,0,0,1-2.6-1.1,4.5,4.5,0,0,1-.9-3V273.1h-3v-1.5h4.9Z"/><path d="M909.7,286.1v5.7h-1.9V276.2h1.9v1.4a3.2,3.2,0,0,1,1.2-1.3,3.6,3.6,0,0,1,1.8-.4,3.8,3.8,0,0,1,3.2,1.6,7.3,7.3,0,0,1,1.2,4.4,7.1,7.1,0,0,1-1.2,4.3,3.8,3.8,0,0,1-3.2,1.6,3.6,3.6,0,0,1-1.8-.4A3.1,3.1,0,0,1,909.7,286.1Zm5.5-4.2a6.3,6.3,0,0,0-.7-3.3,2.2,2.2,0,0,0-2-1.1,2.3,2.3,0,0,0-2.1,1.1,8,8,0,0,0,0,6.5,2.3,2.3,0,0,0,2.1,1.1,2.2,2.2,0,0,0,2-1.1A6.3,6.3,0,0,0,915.2,281.8Z"/><path d="M921.6,276.2h4.8v9.9h3.7v1.4h-9.3v-1.4h3.7v-8.4h-2.9Zm2.9-4.4h1.9v2.4h-1.9Z"/><path d="M941.5,280.5v7h-1.9v-7a3.8,3.8,0,0,0-.5-2.2,2,2,0,0,0-1.7-.7,2.4,2.4,0,0,0-2,.9,4.3,4.3,0,0,0-.7,2.7v6.4h-1.9V276.2h1.9v1.7a3.5,3.5,0,0,1,1.3-1.5,3.9,3.9,0,0,1,2-.5,3,3,0,0,1,2.6,1.1A5.7,5.7,0,0,1,941.5,280.5Z"/><path d="M953.9,286.8a5.5,5.5,0,0,1-1.2,3.9,4.6,4.6,0,0,1-3.5,1.3h-1.6l-1.7-.4v-1.8l1.8.7,1.5.2a2.7,2.7,0,0,0,2.2-.8,4,4,0,0,0,.7-2.6h0v-1.3a3.2,3.2,0,0,1-1.2,1.4,3.6,3.6,0,0,1-1.9.5,3.8,3.8,0,0,1-3.2-1.6,8.2,8.2,0,0,1,0-8.5,3.8,3.8,0,0,1,3.2-1.6,3.7,3.7,0,0,1,1.9.4,3.2,3.2,0,0,1,1.2,1.3v-1.5h1.9Zm-1.9-5a6,6,0,0,0-.7-3.2,2.2,2.2,0,0,0-2-1.1,2.4,2.4,0,0,0-2.1,1.1,7.4,7.4,0,0,0,0,6.4,2.4,2.4,0,0,0,2.1,1.1,2.2,2.2,0,0,0,2-1.1A6.1,6.1,0,0,0,952.1,281.7Z"/><path d="M974.6,275.9a4.4,4.4,0,0,1,3.6,1.5,8.5,8.5,0,0,1,0,8.9,5,5,0,0,1-7.2,0,8.5,8.5,0,0,1,0-8.9A4.4,4.4,0,0,1,974.6,275.9Zm0,1.6a2.4,2.4,0,0,0-2.1,1.1,7.7,7.7,0,0,0,0,6.5,2.6,2.6,0,0,0,4.3,0,7.7,7.7,0,0,0,0-6.5A2.4,2.4,0,0,0,974.6,277.5Z"/><path d="M987.1,272.9v3.2h4.2v1.4h-4.2v6.2a2.5,2.5,0,0,0,.5,1.8,2.2,2.2,0,0,0,1.7.5h2.1v1.5h-2.3a4.2,4.2,0,0,1-3-.8,4,4,0,0,1-.9-2.9v-6.2h-3v-1.4h3v-3.2Z"/><path d="M1004,280.5v7h-1.9v-7a3.8,3.8,0,0,0-.5-2.2,2,2,0,0,0-1.7-.7,2.4,2.4,0,0,0-2,.9,4.3,4.3,0,0,0-.7,2.7v6.4h-1.9V271.7h1.9v6.1a3.5,3.5,0,0,1,1.3-1.5,3.9,3.9,0,0,1,2-.5,3,3,0,0,1,2.6,1.1A5.7,5.7,0,0,1,1004,280.5Z"/><path d="M1017.2,280.9v.9h-8.1a4.5,4.5,0,0,0,.9,3.3,3.6,3.6,0,0,0,2.7,1l1.9-.3,2.1-.9v1.9l-2.1.7-1.9.2a5.4,5.4,0,0,1-4.1-1.6,6.1,6.1,0,0,1-1.5-4.4,6.2,6.2,0,0,1,1.5-4.3,5,5,0,0,1,3.9-1.6,4.3,4.3,0,0,1,3.4,1.5A5.6,5.6,0,0,1,1017.2,280.9Zm-1.9-.5a3.6,3.6,0,0,0-.9-2,2.6,2.6,0,0,0-2.1-.9,3,3,0,0,0-2.2.9,3.1,3.1,0,0,0-1,2Z"/><path d="M1030.1,278.5l-1.2-.7-1.4-.2a3.3,3.3,0,0,0-2.7,1.1,4.8,4.8,0,0,0-.9,3.2v5.6H1022V276.2h1.9v2.2a3.8,3.8,0,0,1,1.4-1.8,4.1,4.1,0,0,1,2.3-.6l1.3.2,1.1.5Z"/><path d="M1040.7,276.6v1.8l-1.6-.7-1.7-.2a3.5,3.5,0,0,0-1.9.4,1.4,1.4,0,0,0-.6,1.3,1.4,1.4,0,0,0,.5,1.1,6.4,6.4,0,0,0,2.3.7h.8a3.7,3.7,0,0,1,2.1,1.1,3,3,0,0,1,.7,2.1,3.2,3.2,0,0,1-1.2,2.6,5.2,5.2,0,0,1-3.3.9l-1.8-.2-2-.5v-1.9l2,.8,1.8.3a3.2,3.2,0,0,0,1.9-.5,1.6,1.6,0,0,0,.7-1.4q0-1.3-2.5-1.8h-.8a4.5,4.5,0,0,1-2.4-1.1,2.8,2.8,0,0,1-.7-2,3,3,0,0,1,1.1-2.5,4.9,4.9,0,0,1,3.2-.9l1.8.2Z"/></svg>