<svg xmlns="http://www.w3.org/2000/svg" fill-rule="evenodd" stroke-linejoin="round" stroke-miterlimit="2" clip-rule="evenodd" viewBox="0 0 824 224" width="824" height="224"><path fill="#d1fff5" fill-rule="nonzero" d="M312.9 20.05h6.2v183.9h-6.2zM42.552 142.421V51.158H13v119.945h59.103v-28.682H42.552z"/><path fill="#d1fff5" fill-rule="nonzero" d="M133.293 51.158h-83.44v28.683h26.944v91.262h29.551V79.841h26.945V51.158zm46.761 121.684c9.908 0 19.991-3.303 26.075-11.3 6.084 7.997 16.166 11.3 26.075 11.3 20.338 0 41.546-13.907 41.546-46.935V51.158h-29.552v74.749c0 13.906-4.693 18.252-11.647 18.252-6.953 0-11.646-4.346-11.646-18.252V51.158h-29.552v74.749c0 13.906-4.694 18.252-11.647 18.252s-11.647-4.346-11.647-18.252V51.158h-29.551v74.749c0 33.028 21.207 46.935 41.546 46.935z"/><path fill="#00675a" fill-rule="nonzero" d="M392.917 95.882c13.19 0 23.716-1.452 31.46-4.598 1.694 2.541 2.662 5.445 2.662 8.47 0 2.178-.847 3.63-2.42 4.598-1.694.968-4.96 1.452-9.8 1.452h-49.006c-.726-1.694-1.089-3.388-1.089-4.961 0-1.089.363-1.815.968-2.299s1.452-.726 2.541-.726h4.356c.242-5.082.363-18.392.363-39.688 0-11.495-.12-19.844-.484-24.926h-6.655c-.726-1.694-1.089-3.388-1.089-4.961 0-1.089.363-1.815.968-2.299s1.452-.847 2.541-.847h31.218c.605 1.573.968 3.025.968 4.477 0 1.331-.242 2.299-.726 2.904-.605.484-1.33.726-2.54.726h-5.688c-.12 5.082-.242 13.431-.242 24.926 0 21.417.121 34.001.363 37.752h1.331zm64.067-40.051c-2.904 0-5.082 1.21-6.655 3.63-1.573 2.299-2.299 6.413-2.42 12.342h3.146c4.356 0 7.744-.121 10.043-.363 2.3-.363 3.63-.726 4.114-1.331.363-.605.484-1.694.484-3.025 0-3.63-.726-6.292-2.299-8.228-1.452-2.057-3.63-3.025-6.413-3.025zm2.42-10.164c8.107 0 14.157 1.815 17.787 5.566 3.751 3.751 5.566 9.559 5.566 17.666 0 3.993-.726 6.776-2.299 8.47-1.573 1.694-5.082 2.541-10.406 2.541H448.03c.121 5.203 1.331 9.196 3.51 12.1 2.177 3.025 6.17 4.477 11.615 4.477s11.132-1.573 16.82-4.719c2.056 1.936 3.145 4.114 3.145 6.534 0 3.146-2.42 5.324-7.018 6.534s-10.043 1.815-16.214 1.815c-10.769 0-18.513-2.178-23.353-6.413-4.84-4.356-7.26-11.495-7.26-21.538 0-10.285 2.662-18.392 8.107-24.321 5.445-5.808 12.826-8.712 22.022-8.712zm67.349 55.539c-2.904 1.573-6.292 2.904-10.043 3.993-3.751 1.21-7.381 1.815-10.769 1.815-5.687 0-9.801-1.331-12.463-3.993-2.662-2.662-3.993-6.292-3.993-11.132 0-6.655 2.299-11.616 6.776-14.762 4.598-3.267 11.858-4.84 21.659-4.84h6.413c-.363-6.05-1.331-10.285-3.025-12.463-1.573-2.299-4.114-3.388-7.381-3.388-1.815 0-3.751.242-5.929.726-1.331 2.662-2.178 3.993-2.42 4.114-.242.242-1.694.605-4.114 1.089-2.42.605-4.235.363-5.203-.484-1.089-.968-2.057-2.541-3.146-4.84-.968-2.299-1.573-4.235-1.573-5.808 0-.968.484-1.694 1.21-2.299.847-.484 3.872-1.089 8.954-1.694 5.203-.726 10.648-.968 16.456-.968 7.018 0 12.463 1.21 16.335 3.509 3.993 2.42 5.929 7.018 5.929 13.915v15.609c0 8.712.363 14.036 1.089 16.093.847 1.936 2.178 2.783 4.114 2.299.484 1.089.847 2.178.847 3.267 0 1.815-1.089 3.146-3.146 3.993-2.178.968-4.961 1.452-8.591 1.452-1.573 0-2.783-.242-3.751-.605-.847-.363-2.299-1.936-4.235-4.598zm-2.42-19.602c-2.783-.605-5.687-.847-8.591-.847-3.267 0-5.687.605-7.139 1.694-1.331 1.089-2.057 3.146-2.057 6.171 0 2.783.726 4.719 2.057 6.05 1.452 1.452 3.509 2.057 6.171 2.057 2.057 0 3.993-.363 5.566-1.331 1.694-.847 2.783-2.178 3.267-3.872s.726-3.872.726-6.534v-3.388zm28.074-31.339c0-1.452.484-2.299 1.573-2.783.968-.484 7.502-.847 19.481-1.21.242 1.694.242 3.993 0 6.897 4.961-2.904 9.438-4.84 13.431-5.929 4.114-.968 7.623-1.573 10.648-1.573 1.452 0 2.42.242 2.904.605.484.242.726 1.089.726 2.299 0 2.178-.363 4.356-1.089 6.776-.605 2.299-1.452 3.872-2.42 4.477-.968.726-2.42 1.21-4.477 1.452-2.178.363-3.388.484-3.63.242-.363-.121-1.452-1.452-3.388-3.872-2.904 0-5.203.968-6.655 3.146-1.573 2.057-2.42 7.502-2.42 16.214 0 7.986.121 14.883.363 20.691h9.196c.726 1.331 1.089 2.783 1.089 4.356 0 1.452-.242 2.42-.847 2.904-.605.605-1.694.847-3.267.847h-30.25c-.605-1.694-.968-3.267-.968-4.719 0-1.21.242-2.057.847-2.541.484-.605 1.331-.847 2.541-.847h4.356c.242-5.808.363-12.463.363-20.086 0-11.132-.605-17.545-1.573-19.602-1.089-2.057-2.904-3.025-5.566-3.025-.605-1.573-.968-3.146-.968-4.719zm73.639 2.783a52.834 52.834 0 0 1 12.342-5.687c3.993-1.089 7.26-1.694 10.043-1.694 5.445 0 9.68 1.331 12.342 3.751 2.662 2.42 3.993 7.381 3.993 14.762 0 19.36.363 29.766 1.089 31.339.726 1.452 2.299 2.178 4.598 2.178.605 1.452.968 2.904.968 4.477 0 1.331-.484 2.299-1.452 2.904-.968.484-2.662.726-5.324.726-6.292 0-10.406-.121-12.1-.242-1.694-.242-2.783-.847-3.509-1.936-.605-1.089-.847-2.904-.847-5.445V77.248c0-7.986-.726-13.431-2.299-16.093-1.452-2.783-3.872-4.114-7.139-4.114-2.783 0-4.961.726-6.655 2.42-1.573 1.573-2.42 5.082-2.42 10.285v11.858c0 4.961.121 10.285.363 16.093h7.018c.605 1.331.968 2.783.968 4.356 0 1.452-.242 2.42-.847 2.904-.605.605-1.694.847-3.388.847h-27.83c-.605-1.694-.968-3.267-.968-4.719 0-1.21.242-2.057.847-2.541.484-.605 1.331-.847 2.541-.847h4.356a541.26 541.26 0 0 0 .363-20.086c0-11.132-.605-17.545-1.573-19.602-1.089-2.057-2.904-3.025-5.566-3.025-.605-1.573-.968-3.146-.968-4.719 0-1.452.484-2.299 1.573-2.783.968-.484 7.502-.847 19.481-1.21.242 1.694.242 3.993 0 6.776zM369.927 140.71l5.93-17.787c1.935.605 3.871 1.331 5.565 2.299 1.694.968 3.025 2.057 3.872 3.267s1.331 4.235 1.331 9.075v3.146h19.965c.726 1.573.968 3.267.968 5.082 0 1.452-.242 2.42-.726 2.904-.605.605-1.694.847-3.267.847h-16.94v23.353c0 6.776.605 11.374 1.694 13.794 1.21 2.42 3.025 3.751 5.687 3.751 2.662.121 5.93-.726 9.801-2.783 1.09 1.573 1.694 3.267 1.694 5.324 0 2.662-1.452 4.477-4.235 5.324-2.783.968-7.26 1.452-13.189 1.452-6.413 0-11.132-1.331-13.915-3.872-2.783-2.662-4.114-7.623-4.114-15.125v-10.285c0-6.534-.242-13.552-.605-20.933h-6.05c-.726-1.694-1.089-3.388-1.089-5.203 0-1.331.363-2.299.847-2.783.484-.605 1.452-.847 2.662-.847h4.114zm48.279-1.331c0-1.452-.121-3.388-.242-5.808-.121-2.299-.363-4.235-.847-5.929s-1.21-2.783-2.3-3.267c-1.088-.484-2.42-.726-4.234-.726-.726-1.573-.968-3.267-.968-4.84 0-1.694.605-2.662 1.815-3.146s5.203-.726 11.858-.726c4.235 0 7.018.242 8.59.484 1.453.363 2.42.968 2.663 1.936.242.847.363 2.178.363 3.751v23.474c2.42-1.452 5.445-2.662 8.833-3.872 3.509-1.089 6.897-1.694 10.406-1.694 5.082 0 9.075 1.331 11.737 3.751 2.662 2.42 4.114 7.381 4.114 14.762 0 19.36.363 29.766.968 31.339.726 1.452 2.299 2.178 4.598 2.178.605 1.452.968 2.904.968 4.477 0 1.331-.484 2.299-1.452 2.904-.847.484-2.662.726-5.203.726-6.413 0-10.406-.121-12.1-.242-1.694-.242-2.904-.847-3.51-1.936-.604-1.089-.967-2.904-.967-5.445v-20.933c0-7.986-.726-13.431-2.178-16.093-1.573-2.783-3.872-4.114-7.26-4.114-2.783 0-4.961.726-6.534 2.42-1.694 1.573-2.42 5.082-2.42 10.285v11.858c0 4.961 0 10.285.242 16.093h7.018c.726 1.331.968 2.783.968 4.356 0 1.452-.242 2.42-.847 2.904-.484.605-1.694.847-3.267.847h-27.83c-.726-1.694-1.09-3.267-1.09-4.719 0-1.21.243-2.057.848-2.541.484-.605 1.452-.847 2.662-.847h4.235c.242-6.534.363-12.584.363-18.271v-33.396zm91.482 9.801c-2.904 0-5.082 1.21-6.655 3.63-1.573 2.299-2.299 6.413-2.42 12.342h3.146c4.356 0 7.744-.121 10.043-.363 2.299-.363 3.63-.726 4.114-1.331.363-.605.484-1.694.484-3.025 0-3.63-.726-6.292-2.299-8.228-1.452-2.057-3.63-3.025-6.413-3.025zm2.42-10.164c8.107 0 14.157 1.815 17.787 5.566 3.751 3.751 5.566 9.559 5.566 17.666 0 3.993-.726 6.776-2.299 8.47-1.573 1.694-5.082 2.541-10.406 2.541h-22.022c.121 5.203 1.331 9.196 3.509 12.1 2.178 3.025 6.171 4.477 11.616 4.477 5.445 0 11.132-1.573 16.819-4.719 2.057 1.936 3.146 4.114 3.146 6.534 0 3.146-2.42 5.324-7.018 6.534S518.763 200 512.592 200c-10.769 0-18.513-2.178-23.353-6.413-4.84-4.356-7.26-11.495-7.26-21.538 0-10.285 2.662-18.392 8.107-24.321 5.445-5.808 12.826-8.712 22.022-8.712zm169.667-20.57c.726 1.573 1.089 3.025 1.089 4.477 0 1.331-.242 2.299-.847 2.904-.484.484-1.331.726-2.42.726h-2.904c-2.178 8.47-5.324 21.296-9.438 38.599-4.114 17.303-7.018 27.467-8.712 30.492-1.694 3.146-5.566 4.598-11.495 4.598-6.897 0-10.769-.242-11.495-.605-.605-.484-2.541-10.164-5.687-29.282-3.146-19.118-4.84-28.677-4.961-28.677-.242 0-1.815 8.228-4.84 24.684-2.904 16.456-5.324 26.257-7.018 29.282-1.694 3.146-5.566 4.598-11.495 4.598-6.171 0-9.68-.242-10.406-.605-.605-.484-3.267-10.648-7.744-30.492-4.598-19.844-8.228-34.001-10.89-42.592h-4.961c-.726-1.694-1.089-3.388-1.089-4.961 0-1.089.363-1.815.968-2.299.484-.484 1.452-.847 2.541-.847h29.403c.605 1.573.968 3.025.968 4.477 0 1.331-.242 2.299-.726 2.904-.605.484-1.331.726-2.541.726h-2.904c.484 5.082 2.178 15.851 5.082 32.186 3.025 16.335 4.84 24.563 5.566 24.563s3.025-10.648 6.655-31.823c3.63-21.054 5.808-31.944 6.413-32.307.726-.484 5.203-.726 13.552-.726 3.025 0 5.082.605 6.171 1.815 1.089 1.21 3.388 11.979 6.897 32.307 3.509 20.449 5.687 30.734 6.413 30.734s2.42-8.107 5.082-24.321c2.783-16.214 4.235-26.983 4.598-32.428h-4.961c-.726-1.694-1.089-3.388-1.089-4.961 0-1.089.242-1.815.847-2.299s1.452-.847 2.662-.847h23.716zm26.435 30.734c-2.904 0-5.082 1.21-6.655 3.63-1.573 2.299-2.299 6.413-2.42 12.342h3.146c4.356 0 7.744-.121 10.043-.363 2.299-.363 3.63-.726 4.114-1.331.363-.605.484-1.694.484-3.025 0-3.63-.726-6.292-2.299-8.228-1.452-2.057-3.63-3.025-6.413-3.025zm2.42-10.164c8.107 0 14.157 1.815 17.787 5.566 3.751 3.751 5.566 9.559 5.566 17.666 0 3.993-.726 6.776-2.299 8.47-1.573 1.694-5.082 2.541-10.406 2.541h-22.022c.121 5.203 1.331 9.196 3.509 12.1 2.178 3.025 6.171 4.477 11.616 4.477 5.445 0 11.132-1.573 16.819-4.719 2.057 1.936 3.146 4.114 3.146 6.534 0 3.146-2.42 5.324-7.018 6.534S717.285 200 711.114 200c-10.769 0-18.513-2.178-23.353-6.413-4.84-4.356-7.26-11.495-7.26-21.538 0-10.285 2.662-18.392 8.107-24.321 5.445-5.808 12.826-8.712 22.022-8.712zm51.619 47.916c1.089 1.089 2.42 1.815 4.114 2.299 1.573.605 3.388.847 5.203.847 3.267 0 5.808-1.089 7.502-3.267 1.815-2.178 2.662-7.623 2.662-16.214 0-7.865-.847-13.31-2.42-16.577-1.694-3.146-4.114-4.84-7.381-4.84-2.057 0-3.872.484-5.324 1.452s-2.541 2.42-3.267 4.477c-.726 2.057-1.089 5.929-1.089 11.858v19.965zm-16.577-16.214c0-17.908-.121-29.161-.242-33.759-.121-4.477-.484-7.623-.847-9.317-.484-1.694-1.21-2.783-2.299-3.267s-2.541-.726-4.235-.726c-.726-1.573-1.089-3.267-1.089-4.84 0-1.694.605-2.662 1.936-3.146 1.21-.484 5.203-.726 11.858-.726 4.235 0 7.018.242 8.591.484 1.452.363 2.299.968 2.541 1.936.242.847.363 2.178.363 3.751l-.968 22.022c2.299-1.21 5.082-2.178 8.107-3.025 3.025-.726 6.292-1.089 9.801-1.089 6.413 0 11.616 2.057 15.488 6.05 3.751 3.993 5.687 10.89 5.687 20.691 0 11.495-2.662 20.086-8.107 25.894-5.445 5.808-12.705 8.712-22.022 8.712-3.146 0-6.05-.242-8.712-.847-2.541-.484-4.598-1.089-5.929-1.694l-2.541 1.815c-3.509 0-5.687-.242-6.534-.726-.968-.605-1.452-1.694-1.452-3.509 0-1.573.121-5.203.242-11.011.242-5.687.363-10.285.363-13.673z"/></svg>