<svg xmlns="http://www.w3.org/2000/svg" width="824" height="224" viewBox="0 0 824 224"><path fill="#D1FFF5" d="M213.9 108.4v.5c0 30.7 22.9 56.3 55.5 56.3v39.8c-30.3 0-56.1-12.5-73.6-32.3l12.5 29.2h-44.9l-14.7-38h-77.1l-14.7 38h-43.9l16.3-38.1c42.7-19 90.6-35.1 142.4-47.4-.1-1.9-.2-3.7-.2-5.6v-.5c0-52.1 41.1-94.8 97.9-94.8v37.2c-32.7-.1-55.5 24.9-55.5 55.7zm-48.5-6.7c-12.1 1.6-25.2 3.5-38.7 5.7l-16.6-43-19 49.1c-14.7 2.7-29.6 5.7-44.1 8.9l45-105.2h37.4l36 84.5zm147.5-84.2h6.2v183.9h-6.2z"/><path d="M366.3 20.4h16.5v60h37.4v15h-53.9v-75zm58.6 46.6v-.2c0-16.4 11.7-29.9 28.4-29.9 19.2 0 28 14.9 28 31.2 0 1.3-.1 2.8-.2 4.3h-40c1.6 7.4 6.7 11.2 14 11.2 5.5 0 9.4-1.7 13.9-5.9l9.3 8.2c-5.4 6.6-13.1 10.7-23.5 10.7-17.1.1-29.9-12-29.9-29.6zm40.5-4.8c-1-7.3-5.2-12.2-12.1-12.2-6.7 0-11.1 4.8-12.4 12.2h24.5zm22.4 16.7v-.2c0-12.5 9.5-18.3 23.1-18.3 5.8 0 10 1 14 2.4v-1c0-6.7-4.2-10.5-12.3-10.5-6.2 0-10.6 1.2-15.9 3.1l-4-12.4c6.3-2.8 12.5-4.6 22.3-4.6 8.9 0 15.3 2.4 19.4 6.4 4.3 4.3 6.2 10.6 6.2 18.3v33.3h-15.7v-6.2c-4 4.4-9.4 7.3-17.4 7.3-10.8 0-19.7-6.2-19.7-17.6zm37.4-3.7v-2.9c-2.8-1.3-6.4-2.1-10.4-2.1-7 0-11.2 2.8-11.2 7.9v.2c0 4.4 3.6 7 8.9 7 7.5-.1 12.7-4.2 12.7-10.1zm27.3-37.2h16.3v11.6c3.3-7.9 8.7-13.1 18.3-12.6v17h-.9c-10.8 0-17.5 6.5-17.5 20.2v21.2h-16.3v-57.4zm42.6 0h16.3v8.1c3.7-4.8 8.6-9.2 16.8-9.2 12.3 0 19.5 8.1 19.5 21.3v37.2h-16.3v-32c0-7.7-3.6-11.7-9.9-11.7s-10.2 4-10.2 11.7v32h-16.3v-57.4zm-227.8 147.5v-27.2h-6.9v-13.9h6.9v-14.7h16.3v14.7h13.5v13.9h-13.5v24.5c0 3.7 1.6 5.6 5.2 5.6 3 0 5.7-.8 8-2v13.1c-3.4 2-7.4 3.3-12.9 3.3-9.9 0-16.6-4-16.6-17.3zm39.6-61.9h16.3v28.9c3.7-4.8 8.6-9.2 16.8-9.2 12.3 0 19.5 8.1 19.5 21.3v37.2h-16.3v-32c0-7.7-3.6-11.7-9.9-11.7s-10.2 4-10.2 11.7v32h-16.3v-78.2zm61.8 49.8v-.2c0-16.4 11.7-29.9 28.4-29.9 19.2 0 28 14.9 28 31.2 0 1.3-.1 2.8-.2 4.3h-40c1.6 7.4 6.7 11.2 14 11.2 5.5 0 9.4-1.7 13.9-5.9l9.3 8.2c-5.4 6.6-13.1 10.7-23.5 10.7-17.1.1-29.9-12-29.9-29.6zm40.5-4.8c-1-7.3-5.2-12.2-12.1-12.2-6.7 0-11.1 4.8-12.4 12.2h24.5zm51.8-41.8h17.7l15.5 50.8 16.8-51h14.1l16.8 51 15.5-50.8h17.2l-25.6 75.5h-14.4l-16.9-49.1-16.9 49.1h-14.4l-25.4-75.5zm112.3 46.6v-.2c0-16.4 11.7-29.9 28.4-29.9 19.2 0 28 14.9 28 31.2 0 1.3-.1 2.8-.2 4.3h-40c1.6 7.4 6.7 11.2 14 11.2 5.5 0 9.4-1.7 13.9-5.9l9.3 8.2c-5.4 6.6-13.1 10.7-23.5 10.7-17.1.1-29.9-12-29.9-29.6zm40.5-4.8c-1-7.3-5.2-12.2-12.1-12.2-6.7 0-11.1 4.8-12.4 12.2h24.5zm42.1 25.7v7.5h-16.3v-78.2h16.3v29c4-5.4 9.4-9.3 17.9-9.3 13.4 0 26.1 10.5 26.1 29.7v.2c0 19.2-12.5 29.7-26.1 29.7-8.7 0-14-4-17.9-8.6zm27.8-21.1v-.2c0-9.5-6.4-15.9-14-15.9s-13.9 6.3-13.9 15.9v.2c0 9.5 6.3 15.9 13.9 15.9s14-6.3 14-15.9z" fill="#00675A"/></svg>