<svg xmlns="http://www.w3.org/2000/svg" width="512" height="512" data-name="Layer 1" viewBox="0 0 512 512"><defs><linearGradient id="a" x1="256" x2="256" y1="15.55" y2="496.45" gradientUnits="userSpaceOnUse"><stop offset="0" stop-color="#e6e3ff"/><stop offset="1" stop-color="#9d98c7"/></linearGradient><linearGradient id="b" x1="256" x2="256" y1="33.22" y2="478.78" gradientUnits="userSpaceOnUse"><stop offset="0" stop-color="#5e54af"/><stop offset="1" stop-color="#3c3670"/></linearGradient><clipPath id="c"><path fill="none" d="M98.5 413.5L33.2 256 98.5 98.5 256 33.2l157.5 65.3L478.8 256l-65.3 157.5L256 478.8 98.5 413.5z"/></clipPath></defs><path fill="url(#a)" d="M86 426L15.5 256 86 86l170-70.5L426 86l70.5 170L426 426l-170 70.5L86 426z"/><path fill="url(#b)" d="M98.5 413.5L33.2 256 98.5 98.5 256 33.2l157.5 65.3L478.8 256l-65.3 157.5L256 478.8 98.5 413.5z"/><g fill="#fff" clip-path="url(#c)"><path d="M186.7 311h139.4v22.44H186.7zM82 366h46v64H73v-55.2l9-8.8z"/><path d="M127.1 357.9h18.1v79.75h-18.1zm303.5 8.1H384v64h55v-55.2l-8.4-8.8z"/><path d="M385.7 437.6h-18.1v-79.75h18.1zM345 338H167a17 17 0 0 0-17 17v118a17 17 0 0 0 17 17h178a17 17 0 0 0 17-17V355a17 17 0 0 0-17-17zm-151 33.5a8.5 8.5 0 0 1-8.5 8.5h-14a8.5 8.5 0 0 1-8.5-8.5v-12a8.5 8.5 0 0 1 8.5-8.5h14a8.5 8.5 0 0 1 8.5 8.5zm43 0a8.5 8.5 0 0 1-8.5 8.5h-14a8.5 8.5 0 0 1-8.5-8.5v-12a8.5 8.5 0 0 1 8.5-8.5h14a8.5 8.5 0 0 1 8.5 8.5zM350 422a7 7 0 0 1-7 7h-68a7 7 0 0 1-7-7v-63a7 7 0 0 1 7-7h68a7 7 0 0 1 7 7z"/><path d="M340.8 356h-62.6a5.2 5.2 0 0 0-5.2 5.2v57.6a5.2 5.2 0 0 0 5.2 5.2h62.6a5.2 5.2 0 0 0 5.2-5.2v-57.6a5.2 5.2 0 0 0-5.2-5.2zm-57.3 14.9a5.5 5.5 0 1 1 5.5-5.5 5.5 5.5 0 0 1-5.5 5.5zm51 0a5.5 5.5 0 1 1 5.5-5.5 5.5 5.5 0 0 1-5.6 5.5zm-78.5-205c-21.5 0-38.9 9.6-38.9 21.3s17.4 21.3 38.9 21.3 38.9-9.6 38.9-21.3-17.4-21.3-38.9-21.3zm113.1 84.6a5.5 5.5 0 0 1-5.5-5.4 5.4 5.4 0 0 1 5.4-5.4c11 0 13-2 13-13.2v-106a5.5 5.5 0 0 1 11 0v106c0 17.1-7 24-23.9 24z"/><rect width="39.9" height="9.87" x="367.2" y="136.6" rx="4.1" ry="4.1" transform="rotate(-180 387.1 141.55)"/><rect width="25.1" height="9.87" x="374.6" y="150.8" rx="4.1" ry="4.1" transform="rotate(-180 387.1 155.7)"/><rect width="25.1" height="9.87" x="374.6" y="122.4" rx="4.1" ry="4.1" transform="rotate(180 387.1 127.35)"/><path d="M362.5 267.6H352v-46.33h10.5zm10.6-4.8h-10.5v-36.66h10.5zm-228.9-11.5c-16.9 0-23.2-6.9-23.2-23.9v-106a5 5 0 1 1 10 0v106c0 11.2 1.8 13.2 12.9 13.2a5.6 5.6 0 0 1 5.6 5.4 5.2 5.2 0 0 1-5.3 5.3z"/><rect width="39.9" height="9.87" x="104.9" y="137.8" rx="4.1" ry="4.1"/><rect width="25.1" height="9.87" x="112.3" y="152" rx="4.1" ry="4.1"/><rect width="25.1" height="9.87" x="112.3" y="123.7" rx="4.1" ry="4.1"/><path d="M149.5 222.4H160v46.33h-10.5zm-10.5 4.8h10.5v36.66H139zM298.9 204a20 20 0 1 0 20 20 20 20 0 0 0-20-20zm0 30.6a10.6 10.6 0 1 1 10.6-10.6 10.6 10.6 0 0 1-10.6 10.6z"/><path d="M335.9 184H175.7c-5.9 0-10.7 5.4-10.7 11.3v100.8c0 5.9 4.8 9.9 10.7 9.9h160.2c5.9 0 11.1-4.7 11.1-10.6V194.6c0-5.9-5.1-10.6-11.1-10.6zm-148.4 40a25.2 25.2 0 1 1 25.2 25.2 25.2 25.2 0 0 1-25.2-25.2zM305 286h-98v-14h98zm-6.1-36.7a25.2 25.2 0 1 1 25.2-25.3 25.2 25.2 0 0 1-25.2 25.3z"/><path d="M212.7 204a20 20 0 1 0 20 20 20 20 0 0 0-20-20zm0 30.6a10.6 10.6 0 1 1 10.7-10.6 10.6 10.6 0 0 1-10.7 10.6z"/></g></svg>