<svg xmlns="http://www.w3.org/2000/svg" width="72" height="257.5" viewBox="0 0 72 257.5"><style type="text/css">.st0{fill:#A8A6AF;} .st1{fill:#FFFFFF;} .st2{fill:none;stroke:#D9D8E3;stroke-width:5;stroke-linecap:round;stroke-linejoin:round;} .st3{fill:#D9D8E3;} .st4{fill:none;stroke:#D9D8E3;stroke-width:5;stroke-linecap:round;stroke-linejoin:round;stroke-dasharray:3,9;} .st5{fill:none;stroke:#D9D8E3;stroke-width:5;stroke-linecap:round;stroke-linejoin:round;stroke-dasharray:3,8;}</style><circle class="st0" cx="18.6" cy="18.8" r="11.3"/><circle class="st1" cx="18.6" cy="18.8" r="6.9"/><circle class="st0" cx="32.6" cy="238.8" r="11.3"/><circle class="st1" cx="32.6" cy="238.8" r="6.9"/><circle class="st0" cx="35.6" cy="75.8" r="11.3"/><circle class="st1" cx="35.6" cy="75.8" r="6.9"/><path class="st2" d="M36 18h25"/><path class="st3" d="M52.5 25.5l6.8-7-6.8-7h5.8l6.8 7-6.8 7z"/><circle class="st0" cx="56.6" cy="196.8" r="11.3"/><circle class="st1" cx="56.6" cy="196.8" r="6.9"/><path class="st2" d="M53.6 161.8l2.4 17.7"/><path class="st3" d="M48.2 172.5l7.6 5.8 5.9-7.6.7 5.7-5.8 7.6-7.6-5.8z"/><path class="st2" d="M18.5 34.5v2"/><path class="st4" d="M18.5 45.5v8"/><path class="st2" d="M18.5 57.5v2"/><path class="st3" d="M12 51.5l6.5 6.8 6.5-6.8v5.7l-6.5 6.8-6.5-6.8z"/><path class="st5" d="M50.3 75.5c6.3 0 15.7 4.4 15.7 21.6s-9.4 20.9-21.5 24.7c-7.6 2.4-22.6 4.9-30.8 6.1"/><path class="st3" d="M22.2 117.9l-7 9.7 9.7 7.1-7.1 1.1-9.7-7 7-9.8z"/><path class="st5" d="M21.3 227.4s-13.3-10.8-16.6-21.4c0 0-3.7-24.7 7.7-28.9 11.3-4.3 19.3-.7 21.7 11.7 1.7 8.7-4.7 13.1-9.8 15.9"/><path class="st3" d="M28.7 192.4l-3.3 11.5 11.5 3.3-6.2 3.5-11.6-3.3 3.3-11.5z"/><circle class="st0" cx="49.6" cy="146.8" r="11.3"/><circle class="st1" cx="49.6" cy="146.8" r="6.9"/></svg>