<svg xmlns="http://www.w3.org/2000/svg" width="1100" height="300" viewBox="0 0 1100 300"><path fill="#58d439" d="M55 28.4h178.2v178.23H55z"/><path fill="#fff" d="M108.7 127.1a11.2 11.2 0 0 1-3.3 2 10 10 0 0 1-3.9.7 9.3 9.3 0 0 1-7.9-3.7c-1.9-2.4-2.9-5.8-2.9-10.2s1-7.8 2.9-10.2a9.7 9.7 0 0 1 8-3.7 11.3 11.3 0 0 1 3.2.5 10.5 10.5 0 0 1 3 1.5v3.7a11 11 0 0 0-3-2.1 8.7 8.7 0 0 0-3.2-.6 5.9 5.9 0 0 0-5.3 2.7c-1.2 1.8-1.8 4.6-1.8 8.2s.6 6.5 1.7 8.3a5.8 5.8 0 0 0 5.3 2.6 6.8 6.8 0 0 0 2.1-.2 5.1 5.1 0 0 0 1.6-.9v-7.2h-3.9v-3h7.4zm23-13.8a9.4 9.4 0 0 0-2.2-1.2 8.8 8.8 0 0 0-2.4-.3 5.8 5.8 0 0 0-4.7 1.9 8.5 8.5 0 0 0-1.6 5.6v10h-3.3v-20.1h3.3v3.9a6.2 6.2 0 0 1 2.5-3.2 7.1 7.1 0 0 1 4.1-1.2 8.5 8.5 0 0 1 2.3.3 6.2 6.2 0 0 1 2 1zm21.4 4.3v1.6h-14.2c-.1 2.7.4 4.7 1.5 5.9a6.6 6.6 0 0 0 4.9 1.8 13.9 13.9 0 0 0 3.3-.5 25.3 25.3 0 0 0 3.6-1.5v3.2a16.9 16.9 0 0 1-3.6 1.2 13.7 13.7 0 0 1-3.4.4 9.9 9.9 0 0 1-7.3-2.8 11.2 11.2 0 0 1-2.6-7.7c0-3.2.8-5.8 2.6-7.7a8.8 8.8 0 0 1 6.8-2.9 7.7 7.7 0 0 1 6.1 2.6 9.7 9.7 0 0 1 2.3 6.4zm-3.3-1a5.8 5.8 0 0 0-1.5-3.6 4.5 4.5 0 0 0-3.7-1.5 5 5 0 0 0-3.9 1.6 5.1 5.1 0 0 0-1.7 3.5zm25.4 1v1.6h-14.3c-.1 2.7.5 4.7 1.6 5.9a6.5 6.5 0 0 0 4.8 1.8 12.6 12.6 0 0 0 3.3-.5 22.1 22.1 0 0 0 3.7-1.5v3.2a19 19 0 0 1-3.6 1.2 13.7 13.7 0 0 1-3.4.4 9.7 9.7 0 0 1-7.3-2.7c-1.8-1.9-2.6-4.5-2.6-7.7a11.2 11.2 0 0 1 2.5-7.7 9.1 9.1 0 0 1 6.9-2.9 7.7 7.7 0 0 1 6.1 2.6 10.3 10.3 0 0 1 2.3 6.3zm-3.3-1a5.8 5.8 0 0 0-1.5-3.6 4.7 4.7 0 0 0-3.7-1.5 5 5 0 0 0-3.9 1.6 5.1 5.1 0 0 0-1.7 3.5zm24.2.2v12.5h-3.3v-12.5a6.5 6.5 0 0 0-1-3.9 3.3 3.3 0 0 0-3-1.3 4.1 4.1 0 0 0-3.5 1.6 7.3 7.3 0 0 0-1.3 4.7v11.4h-3.3v-20.1h3.3v3a6.7 6.7 0 0 1 2.4-2.6 6.9 6.9 0 0 1 3.6-.9 5.7 5.7 0 0 1 4.6 2 10.4 10.4 0 0 1 1.5 6.1z"/><path fill="#ffcf1d" d="M325.6 28.4h178.2v178.23H325.6z"/><path fill="#fff" d="M349.1 102.5h3.9l6.5 11.8 6.5-11.8h3.9l-8.6 14.8v12h-3.6v-12zm41.5 15.1v1.6h-14.3c-.1 2.7.5 4.7 1.6 5.9a6.2 6.2 0 0 0 4.8 1.8 12.6 12.6 0 0 0 3.3-.5 22.1 22.1 0 0 0 3.7-1.5v3.2a21.7 21.7 0 0 1-3.6 1.2 13.7 13.7 0 0 1-3.4.4 9.7 9.7 0 0 1-7.3-2.8 10.8 10.8 0 0 1-2.7-7.7 11.2 11.2 0 0 1 2.6-7.7 8.8 8.8 0 0 1 6.9-2.9 7.4 7.4 0 0 1 6 2.6 9.8 9.8 0 0 1 2.4 6.4zm-3.3-1a5.8 5.8 0 0 0-1.5-3.6 4.7 4.7 0 0 0-3.7-1.5 5.4 5.4 0 0 0-4 1.6 5 5 0 0 0-1.6 3.5zm18.2 5.4a6.3 6.3 0 0 0 .8 3.4 3 3 0 0 0 2.4 1.1h3.9v2.8h-4.2a5.9 5.9 0 0 1-4.6-1.9 8.1 8.1 0 0 1-1.6-5.4v-18.1h-5.3v-2.6h8.6zm22.1 0a6.3 6.3 0 0 0 .8 3.4 2.8 2.8 0 0 0 2.4 1.1h3.9v2.8h-4.2a5.9 5.9 0 0 1-4.6-1.9 8.1 8.1 0 0 1-1.6-5.4v-18.1H419v-2.6h8.6zm20.2-13.3a7.8 7.8 0 0 1 6.4 2.7c1.5 1.8 2.2 4.4 2.2 7.9s-.7 6-2.2 7.8a8.9 8.9 0 0 1-12.8 0c-1.4-1.8-2.2-4.4-2.2-7.8s.8-6.1 2.2-7.9a7.8 7.8 0 0 1 6.4-2.7zm0 2.8a4.3 4.3 0 0 0-3.8 2 11.1 11.1 0 0 0-1.3 5.8 10.9 10.9 0 0 0 1.3 5.7 4.3 4.3 0 0 0 3.8 2 4.2 4.2 0 0 0 3.8-2 10 10 0 0 0 1.3-5.7c0-2.6-.4-4.5-1.3-5.8a4.2 4.2 0 0 0-3.8-2zm11.1-2.3h3.2l3.5 16.2 2.9-10.3h2.8l2.9 10.3 3.5-16.2h3.3l-4.7 20.1h-3.2l-3.2-11-3.2 11h-3.1z"/><path fill="#fb3a64" d="M596.2 28.4h178.2v178.23H596.2z"/><path fill="#fff" d="M665.8 116.6a5.8 5.8 0 0 1 2.4 1.4 21.3 21.3 0 0 1 2.4 4l3.7 7.3h-3.9l-3.2-6.8a11.5 11.5 0 0 0-2.5-3.7 4.3 4.3 0 0 0-2.9-.8h-3.4v11.3h-3.7v-26.8h7.5c2.9 0 5.2.7 6.7 2a7.1 7.1 0 0 1 2.4 5.8 6.3 6.3 0 0 1-1.5 4.3 5.9 5.9 0 0 1-4 2zm-7.4-11.1v9.5h3.9a5.5 5.5 0 0 0 3.9-1.2 4.7 4.7 0 0 0 1.3-3.5 4.6 4.6 0 0 0-1.4-3.6 5.7 5.7 0 0 0-3.9-1.2zm35.9 12.1v1.6H680c-.1 2.7.5 4.7 1.6 5.9a6.3 6.3 0 0 0 4.8 1.8 12.6 12.6 0 0 0 3.3-.5 22.1 22.1 0 0 0 3.7-1.5v3.2a21.7 21.7 0 0 1-3.6 1.2 13.7 13.7 0 0 1-3.4.4 9.7 9.7 0 0 1-7.3-2.8c-1.8-1.9-2.6-4.5-2.6-7.7a11.2 11.2 0 0 1 2.5-7.7 9 9 0 0 1 6.9-2.9 7.7 7.7 0 0 1 6.1 2.6 10.3 10.3 0 0 1 2.3 6.4zm-3.3-1a5.8 5.8 0 0 0-1.5-3.6 4.7 4.7 0 0 0-3.7-1.5 5.4 5.4 0 0 0-4 1.6 5.4 5.4 0 0 0-1.6 3.5zm20.7-4.8v-10.4h3.3v27.9h-3.3v-2.6a5.4 5.4 0 0 1-2.2 2.3 6.6 6.6 0 0 1-3.2.8 6.9 6.9 0 0 1-5.7-2.8 12.9 12.9 0 0 1-2.1-7.8 12.6 12.6 0 0 1 2.1-7.7 6.7 6.7 0 0 1 5.7-2.8 6.3 6.3 0 0 1 3.2.8 4.9 4.9 0 0 1 2.2 2.3zm-9.7 7.5a11 11 0 0 0 1.2 5.7 4 4 0 0 0 3.6 2 4.3 4.3 0 0 0 3.7-2 11 11 0 0 0 1.2-5.7 11.2 11.2 0 0 0-1.2-5.8 4.3 4.3 0 0 0-3.7-2 4 4 0 0 0-3.6 2 11.2 11.2 0 0 0-1.2 5.8z"/><path fill="#ccc" d="M1044 29.4v176.2H867.8V29.4H1044m1-1H866.8v178.2H1045V28.4z"/><path d="M904.9 99.6a43.9 43.9 0 0 0-3.5 8.2 28.3 28.3 0 0 0 0 16.3 41.3 41.3 0 0 0 3.5 8.2h-2.8a33.1 33.1 0 0 1-4-8.3 23.8 23.8 0 0 1 0-16.1 34.8 34.8 0 0 1 4-8.3zm7.2 3h4.9l10.5 22v-22h3.8v26.7h-4.9l-10.5-22v22h-3.8zm32.7 6.1a7.8 7.8 0 0 1 6.4 2.7c1.5 1.8 2.2 4.4 2.2 7.9s-.7 6-2.2 7.8-3.6 2.7-6.4 2.7a7.6 7.6 0 0 1-6.3-2.7c-1.5-1.8-2.2-4.4-2.2-7.8s.7-6.1 2.2-7.9a7.6 7.6 0 0 1 6.3-2.7zm0 2.8a4.4 4.4 0 0 0-3.8 2 11.1 11.1 0 0 0-1.3 5.8 10.9 10.9 0 0 0 1.3 5.7 4.4 4.4 0 0 0 3.8 2 4.2 4.2 0 0 0 3.8-2 10 10 0 0 0 1.3-5.7c0-2.6-.4-4.5-1.3-5.8a4.2 4.2 0 0 0-3.8-2zm29.9 5.3v12.5h-3.3v-12.5a5.9 5.9 0 0 0-1-3.9 3.2 3.2 0 0 0-2.9-1.3 4.1 4.1 0 0 0-3.6 1.6 8 8 0 0 0-1.2 4.7v11.4h-3.3v-20.1h3.3v3a6.7 6.7 0 0 1 2.4-2.6 6.5 6.5 0 0 1 3.5-.9 5.4 5.4 0 0 1 4.6 2 10.4 10.4 0 0 1 1.5 6.1zm23.3.8v1.6h-14.2c-.1 2.7.4 4.7 1.5 5.9a6.5 6.5 0 0 0 4.8 1.8 12.6 12.6 0 0 0 3.3-.5 22.1 22.1 0 0 0 3.7-1.5v3.2a19 19 0 0 1-3.6 1.2 13.7 13.7 0 0 1-3.4.4 9.9 9.9 0 0 1-7.3-2.8c-1.8-1.9-2.6-4.5-2.6-7.7a11.2 11.2 0 0 1 2.5-7.7 9.1 9.1 0 0 1 6.9-2.9 7.7 7.7 0 0 1 6.1 2.6 10.3 10.3 0 0 1 2.3 6.4zm-3.3-1a5.8 5.8 0 0 0-1.5-3.6 4.5 4.5 0 0 0-3.7-1.5 5 5 0 0 0-3.9 1.6 5.1 5.1 0 0 0-1.7 3.5zm11.6-17h2.8a39.8 39.8 0 0 1 4.1 8.3 25.6 25.6 0 0 1 0 16.1 37.5 37.5 0 0 1-4.1 8.3h-2.8a33.7 33.7 0 0 0 3.5-8.2 28.3 28.3 0 0 0 0-16.3 33.7 33.7 0 0 0-3.5-8.2zM123.5 247.5h3.7l4.1 15.1h-3l-.9-3.7h-4l-.9 3.7h-3zm1.9 2.7l-1.4 6.2h2.8zm7.3 5.1h10.7v2.7h-10.7zm12.4-.2c0-2.6.4-4.6 1.3-5.9a4.5 4.5 0 0 1 4-2 4.5 4.5 0 0 1 3.9 2 10.5 10.5 0 0 1 1.4 5.9 10.3 10.3 0 0 1-1.4 5.8 4.5 4.5 0 0 1-3.9 2 4.5 4.5 0 0 1-4-2 10.4 10.4 0 0 1-1.3-5.8zm5.3-5.2a1.7 1.7 0 0 0-1.7 1.2 9.9 9.9 0 0 0-.5 4 9.6 9.6 0 0 0 .5 3.9 1.7 1.7 0 0 0 1.7 1.2 1.7 1.7 0 0 0 1.6-1.2 9.3 9.3 0 0 0 .6-3.9 9.5 9.5 0 0 0-.6-4 1.7 1.7 0 0 0-1.6-1.2zm7.4-2.4h3v6l4.7-6h3.4l-4.8 5.9 4.9 9.2h-3.3l-3.6-6.8-1.3 1.7v5.1h-3zm-101 24.9h2.8l6 12.4v-12.4h2.1v15.1h-2.8L59 275.1v12.4h-2.2zm18.6 3.5a4.3 4.3 0 0 1 3.6 1.5 7 7 0 0 1 1.3 4.4 7.1 7.1 0 0 1-1.3 4.5 5.1 5.1 0 0 1-7.2 0 6.5 6.5 0 0 1-1.3-4.5 6.4 6.4 0 0 1 1.3-4.4 4.3 4.3 0 0 1 3.6-1.5zm0 1.6a2.3 2.3 0 0 0-2.2 1.1 6.6 6.6 0 0 0-.7 3.2 6.8 6.8 0 0 0 .7 3.3 2.3 2.3 0 0 0 2.2 1.1 2.2 2.2 0 0 0 2.1-1.1 5.7 5.7 0 0 0 .8-3.3 5.6 5.6 0 0 0-.8-3.2 2.2 2.2 0 0 0-2.1-1.1zm29.4 3v7h-1.9v-7a4.6 4.6 0 0 0-.5-2.3 2.2 2.2 0 0 0-1.7-.7 2.4 2.4 0 0 0-2 .9 4.3 4.3 0 0 0-.7 2.7v6.4h-1.9v-15.8H98v6.2a3.2 3.2 0 0 1 1.3-1.5 4.6 4.6 0 0 1 2-.5 3 3 0 0 1 2.6 1.1 5.6 5.6 0 0 1 .9 3.5zm13.2.4v.9h-8.1c0 1.5.2 2.6.9 3.3a3.3 3.3 0 0 0 2.7 1l1.9-.3a8 8 0 0 0 2.1-.8v1.8l-2.1.7-1.9.2a5.1 5.1 0 0 1-4.1-1.6 6 6 0 0 1-1.5-4.4 6.5 6.5 0 0 1 1.4-4.3 5 5 0 0 1 3.9-1.6 4.1 4.1 0 0 1 3.4 1.5 5.3 5.3 0 0 1 1.4 3.6zm-1.9-.5a3.9 3.9 0 0 0-.8-2.1 3.3 3.3 0 0 0-4.4.1 2.7 2.7 0 0 0-.9 2zm10.3 3a3.3 3.3 0 0 0 .5 1.9 1.5 1.5 0 0 0 1.3.6h2.2v1.6h-2.3a2.9 2.9 0 0 1-2.6-1.1 4.5 4.5 0 0 1-1-3v-10.3h-2.9v-1.4h4.8zm9 2.7v5.7h-1.9v-15.6h1.9v1.4a3.3 3.3 0 0 1 1.3-1.3 3.4 3.4 0 0 1 1.8-.4 3.8 3.8 0 0 1 3.2 1.6 7 7 0 0 1 1.2 4.4 6.9 6.9 0 0 1-1.2 4.3 3.8 3.8 0 0 1-3.2 1.6 4.1 4.1 0 0 1-1.9-.4 3.7 3.7 0 0 1-1.2-1.3zm5.5-4.3a5.6 5.6 0 0 0-.7-3.2 2 2 0 0 0-2-1.1 2.3 2.3 0 0 0-2.1 1.1 6.6 6.6 0 0 0-.7 3.2 6.8 6.8 0 0 0 .7 3.3 2.3 2.3 0 0 0 2.1 1.1 2 2 0 0 0 2-1.1 5.8 5.8 0 0 0 .7-3.3zm26.4-1.3v7h-1.9v-7a4.6 4.6 0 0 0-.5-2.3 2.4 2.4 0 0 0-1.7-.7 2.3 2.3 0 0 0-2 .9 4.3 4.3 0 0 0-.7 2.7v6.4h-1.9v-11.3h1.9v1.7a2.8 2.8 0 0 1 1.3-1.5 4.2 4.2 0 0 1 2-.5 3.2 3.2 0 0 1 2.6 1.1 5.6 5.6 0 0 1 .9 3.5zm13.2.4v.9h-8.1a4.1 4.1 0 0 0 .9 3.3 3.3 3.3 0 0 0 2.7 1l1.9-.3a6.4 6.4 0 0 0 2-.8v1.8l-2 .7-1.9.2a5.4 5.4 0 0 1-4.2-1.6 6.4 6.4 0 0 1-1.4-4.4 6 6 0 0 1 1.4-4.3 5 5 0 0 1 3.9-1.6 4.1 4.1 0 0 1 3.4 1.5 5.3 5.3 0 0 1 1.4 3.6zm-1.9-.5a4 4 0 0 0-.9-2.1 2.9 2.9 0 0 0-2.1-.8 2.9 2.9 0 0 0-2.2.9 2.7 2.7 0 0 0-.9 2zm14.4.5v.9h-8.1a4.1 4.1 0 0 0 .9 3.3 3.3 3.3 0 0 0 2.7 1l1.9-.3a6.4 6.4 0 0 0 2-.8v1.8l-2 .7-1.9.2a5.4 5.4 0 0 1-4.2-1.6 7.5 7.5 0 0 1 0-8.7 5 5 0 0 1 3.9-1.6 4.2 4.2 0 0 1 3.4 1.5 5.3 5.3 0 0 1 1.4 3.6zm-1.9-.5a4 4 0 0 0-.9-2.1 2.9 2.9 0 0 0-2.1-.8 2.9 2.9 0 0 0-2.2.9 2.7 2.7 0 0 0-.9 2zm11.7-2.8v-5.9h1.9v15.8h-1.9v-1.4a3.7 3.7 0 0 1-1.2 1.3 3.9 3.9 0 0 1-1.8.4 3.8 3.8 0 0 1-3.3-1.6 7.2 7.2 0 0 1-1.2-4.4 6.9 6.9 0 0 1 1.2-4.3 3.8 3.8 0 0 1 3.3-1.6 3.9 3.9 0 0 1 1.8.4 3.7 3.7 0 0 1 1.2 1.3zm-5.5 4.2a5.8 5.8 0 0 0 .7 3.3 2.1 2.1 0 0 0 2 1.1 2.3 2.3 0 0 0 2.1-1.1 5.8 5.8 0 0 0 .7-3.3 5.6 5.6 0 0 0-.7-3.2 2.3 2.3 0 0 0-2.1-1.1 2.1 2.1 0 0 0-2 1.1 5.6 5.6 0 0 0-.7 3.2zm20.6-.9v.9h-8a4.1 4.1 0 0 0 .9 3.3 3.3 3.3 0 0 0 2.7 1l1.9-.3a6.4 6.4 0 0 0 2-.8v1.8l-2 .7-1.9.2a5.4 5.4 0 0 1-4.2-1.6 6 6 0 0 1-1.5-4.4 6.1 6.1 0 0 1 1.5-4.3 5 5 0 0 1 3.9-1.6 4.2 4.2 0 0 1 3.4 1.5 5.2 5.2 0 0 1 1.3 3.6zm-1.8-.5a4 4 0 0 0-.9-2.1 2.9 2.9 0 0 0-2.1-.8 2.9 2.9 0 0 0-2.2.9 3.2 3.2 0 0 0-1 2zm11.7-2.8v-5.9h1.9v15.8h-1.9v-1.4a3.3 3.3 0 0 1-1.3 1.3 3.3 3.3 0 0 1-1.7.4 3.8 3.8 0 0 1-3.3-1.6 7.2 7.2 0 0 1-1.2-4.4 6.9 6.9 0 0 1 1.2-4.3 3.8 3.8 0 0 1 3.3-1.6 3.9 3.9 0 0 1 1.8.4 3.7 3.7 0 0 1 1.2 1.3zm-5.5 4.2a5.8 5.8 0 0 0 .7 3.3 2.1 2.1 0 0 0 2 1.1 2.3 2.3 0 0 0 2.1-1.1 5.8 5.8 0 0 0 .7-3.3 5.6 5.6 0 0 0-.7-3.2 2.3 2.3 0 0 0-2.1-1.1 2.1 2.1 0 0 0-2 1.1 5.6 5.6 0 0 0-.7 3.2zm178.1-34.3h3.6l4.1 15.1h-3l-.9-3.7h-4l-.9 3.7h-3zm1.8 2.7l-1.4 6.2h2.8zm17.1 5v7.4h-2.9v-6.9a4 4 0 0 0-.4-1.8 1.3 1.3 0 0 0-1.1-.5 1.6 1.6 0 0 0-1.3.7 4 4 0 0 0-.4 2v6.5h-3v-15.8h3v6.2a2.4 2.4 0 0 1 1-1.5 3.6 3.6 0 0 1 1.9-.5 2.8 2.8 0 0 1 2.4 1.1 5.2 5.2 0 0 1 .8 3.1zm6.5-7.7h2.8v6.6l-.4 3.6h-2l-.4-3.6zm0 12.2h2.8v2.9h-2.8zm-115.9 12.7h2v5.8h5.6v-5.8h2.1v15.1h-2.1v-7.6h-5.6v7.6h-2zm22.4 8.5v.9h-8a4.5 4.5 0 0 0 .8 3.3 3.7 3.7 0 0 0 2.8 1 5.7 5.7 0 0 0 1.8-.3 6 6 0 0 0 2.1-.8v1.8l-2 .7-1.9.2a5.4 5.4 0 0 1-4.2-1.6 6 6 0 0 1-1.5-4.4 6.1 6.1 0 0 1 1.5-4.3 5 5 0 0 1 3.9-1.6 4.2 4.2 0 0 1 3.4 1.5 5.2 5.2 0 0 1 1.3 3.6zm-1.8-.5a4 4 0 0 0-.9-2.1 2.9 2.9 0 0 0-2.1-.8 2.9 2.9 0 0 0-2.2.9 3.2 3.2 0 0 0-1 2zm10.3 3a3.4 3.4 0 0 0 .4 1.9 1.7 1.7 0 0 0 1.4.6h2.2v1.6h-2.4a3 3 0 0 1-2.6-1.1 4.5 4.5 0 0 1-.9-3v-10.3h-3v-1.4h4.9zm9 2.7v5.7h-1.9v-15.6h1.9v1.4a3.7 3.7 0 0 1 1.2-1.3 3.4 3.4 0 0 1 1.8-.4 3.5 3.5 0 0 1 3.2 1.6 7 7 0 0 1 1.2 4.4 6.9 6.9 0 0 1-1.2 4.3 3.6 3.6 0 0 1-3.2 1.6 3.4 3.4 0 0 1-1.8-.4 3.7 3.7 0 0 1-1.2-1.3zm5.5-4.3a6.6 6.6 0 0 0-.7-3.2 2.3 2.3 0 0 0-2.1-1.1 2 2 0 0 0-2 1.1 5.6 5.6 0 0 0-.7 3.2 5.8 5.8 0 0 0 .7 3.3 2 2 0 0 0 2 1.1 2.3 2.3 0 0 0 2.1-1.1 6.8 6.8 0 0 0 .7-3.3zm26.4-10.1v1.6h-2.1a2 2 0 0 0-1.4.4 2.7 2.7 0 0 0-.4 1.5v1h3.9v1.4h-3.9v9.9H376v-9.9h-3.1v-1.4h3.1v-.8a4.3 4.3 0 0 1 .8-2.8 3.7 3.7 0 0 1 2.7-.9zm13.5 6.8l-1.2-.7-1.4-.2a3.4 3.4 0 0 0-2.7 1.1 4.9 4.9 0 0 0-.9 3.2v5.6h-1.9v-11.3h1.9v2.2a4.5 4.5 0 0 1 1.4-1.9 4.6 4.6 0 0 1 2.3-.6 2.7 2.7 0 0 1 1.3.2l1.2.5zm7-2.6a4.3 4.3 0 0 1 3.6 1.5 6.4 6.4 0 0 1 1.3 4.4 6.5 6.5 0 0 1-1.3 4.5 5.1 5.1 0 0 1-7.2 0 7.1 7.1 0 0 1-1.2-4.5 7 7 0 0 1 1.2-4.4 4.3 4.3 0 0 1 3.6-1.5zm0 1.6a2.2 2.2 0 0 0-2.1 1.1 5.6 5.6 0 0 0-.8 3.2 5.7 5.7 0 0 0 .8 3.3 2.2 2.2 0 0 0 2.1 1.1 2.3 2.3 0 0 0 2.2-1.1 5.8 5.8 0 0 0 .7-3.3 5.6 5.6 0 0 0-.7-3.2 2.3 2.3 0 0 0-2.2-1.1zm13.1-.2a2.4 2.4 0 0 1 .9-1.1 2.5 2.5 0 0 1 1.3-.3 2 2 0 0 1 1.9 1 9.5 9.5 0 0 1 .6 4v6.6h-1.7V281a8.8 8.8 0 0 0-.3-3c-.2-.4-.5-.5-1-.5a1.1 1.1 0 0 0-1.1.6 8.5 8.5 0 0 0-.3 2.9v6.5h-1.7V281a8.8 8.8 0 0 0-.3-3c-.2-.4-.5-.5-1-.5a1.1 1.1 0 0 0-1.1.6 14.8 14.8 0 0 0-.2 2.9v6.5h-1.7v-11.3h1.7v.9a2.4 2.4 0 0 1 .8-.9 2 2 0 0 1 1.1-.3 2.5 2.5 0 0 1 1.3.3 2.3 2.3 0 0 1 .8 1.1zm28.9 3.7v6.5h-1.9v-1.7a3.6 3.6 0 0 1-1.5 1.5 4.8 4.8 0 0 1-2.2.5 3.7 3.7 0 0 1-2.8-1 3.3 3.3 0 0 1-1-2.6 3.4 3.4 0 0 1 1.3-2.9 6.3 6.3 0 0 1 3.7-1h2.5v-.2a2.3 2.3 0 0 0-.7-2 3.2 3.2 0 0 0-2.2-.6l-1.9.2-1.9.8v-1.8l2-.6 1.8-.2a6.2 6.2 0 0 1 2.5.4 4 4 0 0 1 1.6 1.3 3.3 3.3 0 0 1 .5 1.2 10.9 10.9 0 0 1 .2 2.2zm-3.6.8h-.7a4 4 0 0 0-2.4.6 1.8 1.8 0 0 0-.8 1.7 2.1 2.1 0 0 0 .6 1.6 2.3 2.3 0 0 0 1.7.5 3 3 0 0 0 2.4-1 4.5 4.5 0 0 0 .9-3v-.4zm16-1.3v7h-1.9v-7a4.6 4.6 0 0 0-.5-2.3 2.2 2.2 0 0 0-1.7-.7 2.4 2.4 0 0 0-2 .9 4.3 4.3 0 0 0-.7 2.7v6.4h-1.9v-11.3h1.9v1.7a3.2 3.2 0 0 1 1.3-1.5 4.6 4.6 0 0 1 2.1-.5 3 3 0 0 1 2.5 1.1 5.6 5.6 0 0 1 .9 3.5zm10.5 3.4c-.3.8-.7 1.8-1.1 3.1a25.2 25.2 0 0 1-1.4 3.2 2.3 2.3 0 0 1-1.2 1.2 2.7 2.7 0 0 1-1.6.4h-1.5v-1.5h1.1a1.7 1.7 0 0 0 1.3-.5 8 8 0 0 0 1.2-2.5l-4.4-11.1h2l3.3 8.8 3.3-8.8h2zm7.7-6.3a3.7 3.7 0 0 1 1.2-1.3 3.4 3.4 0 0 1 1.8-.4 3.6 3.6 0 0 1 3.2 1.6 6.9 6.9 0 0 1 1.2 4.3 7.2 7.2 0 0 1-1.2 4.4 3.6 3.6 0 0 1-3.2 1.6 3.4 3.4 0 0 1-1.8-.4 3.7 3.7 0 0 1-1.2-1.3v1.4h-1.9v-15.8h1.9zm5.4 4.2a6.7 6.7 0 0 0-.6-3.2 2.3 2.3 0 0 0-2.1-1.1 2 2 0 0 0-2 1.1 5.6 5.6 0 0 0-.7 3.2 5.8 5.8 0 0 0 .7 3.3 2 2 0 0 0 2 1.1 2.3 2.3 0 0 0 2.1-1.1 6.9 6.9 0 0 0 .6-3.3zm9.5-5.9a4.5 4.5 0 0 1 3.6 1.5 7 7 0 0 1 1.2 4.4 7.1 7.1 0 0 1-1.2 4.5 5.1 5.1 0 0 1-7.2 0 6.5 6.5 0 0 1-1.3-4.5 6.4 6.4 0 0 1 1.3-4.4 4.3 4.3 0 0 1 3.6-1.5zm0 1.6a2.3 2.3 0 0 0-2.2 1.1 5.6 5.6 0 0 0-.7 3.2 5.8 5.8 0 0 0 .7 3.3 2.3 2.3 0 0 0 2.2 1.1 2.3 2.3 0 0 0 2.1-1.1 5.7 5.7 0 0 0 .8-3.3 5.6 5.6 0 0 0-.8-3.2 2.3 2.3 0 0 0-2.1-1.1zm14.9.1v-5.9h1.9v15.8h-1.9v-1.4a3.7 3.7 0 0 1-1.2 1.3 3.4 3.4 0 0 1-1.8.4 3.5 3.5 0 0 1-3.2-1.6 7.2 7.2 0 0 1-1.2-4.4 6.9 6.9 0 0 1 1.2-4.3 3.6 3.6 0 0 1 3.2-1.6 3.4 3.4 0 0 1 1.8.4 3.7 3.7 0 0 1 1.2 1.3zm-5.5 4.2a6.8 6.8 0 0 0 .7 3.3 2.3 2.3 0 0 0 2.1 1.1 2.1 2.1 0 0 0 2-1.1 5.8 5.8 0 0 0 .7-3.3 5.6 5.6 0 0 0-.7-3.2 2.1 2.1 0 0 0-2-1.1 2.3 2.3 0 0 0-2.1 1.1 6.6 6.6 0 0 0-.7 3.2zm18 2.1l-1.2 3.1a18.3 18.3 0 0 1-1.3 3.2 2.3 2.3 0 0 1-1.2 1.2 2.7 2.7 0 0 1-1.6.4h-1.5v-1.5h1.1a1.9 1.9 0 0 0 1.3-.5 8 8 0 0 0 1.2-2.5l-4.4-11.1h2l3.3 8.8 3.3-8.8h2zm107.1-36.4h3.2c2.5 0 4.3.6 5.3 1.7s1.7 3.2 1.7 5.8-.6 4.6-1.7 5.8-2.8 1.8-5.3 1.8h-3.2zm3 2.7v9.7h.8a2.8 2.8 0 0 0 2.5-1.1 6.9 6.9 0 0 0 .8-3.8 6.8 6.8 0 0 0-.8-3.7 2.6 2.6 0 0 0-2.5-1.1zm9.1 6.7a6.5 6.5 0 0 1 1.4-4.3 5 5 0 0 1 3.9-1.6 4.8 4.8 0 0 1 3.8 1.6 6.5 6.5 0 0 1 1.4 4.3 6.6 6.6 0 0 1-1.4 4.4 4.8 4.8 0 0 1-3.8 1.6 5 5 0 0 1-3.9-1.6 6.6 6.6 0 0 1-1.4-4.4zm5.3-3.5a1.9 1.9 0 0 0-1.7.9 5 5 0 0 0-.6 2.6 5.1 5.1 0 0 0 .6 2.7 1.9 1.9 0 0 0 1.7.9 1.8 1.8 0 0 0 1.6-.9 5.1 5.1 0 0 0 .6-2.7 5 5 0 0 0-.6-2.6 1.8 1.8 0 0 0-1.6-.9zm7.8 5.2v-7.3h3v6.9a3.4 3.4 0 0 0 .3 1.7 1.4 1.4 0 0 0 1.2.6 1.5 1.5 0 0 0 1.2-.7 3.9 3.9 0 0 0 .5-2v-6.5h3v11.3h-3v-1.7a2.8 2.8 0 0 1-1.1 1.5 3.5 3.5 0 0 1-1.8.5 2.8 2.8 0 0 1-2.4-1.1 4.9 4.9 0 0 1-.9-3.2zm15.4-5.7a3 3 0 0 1 1.3-1.4 2.2 2.2 0 0 1 1.6-.5 3.6 3.6 0 0 1 3.1 1.5 7.9 7.9 0 0 1 1.1 4.4 7.7 7.7 0 0 1-1.1 4.4 3.3 3.3 0 0 1-3 1.6 3.5 3.5 0 0 1-1.8-.5 3.1 3.1 0 0 1-1.2-1.5v1.7h-3v-15.8h3zm4.1 4.1a6 6 0 0 0-.5-2.6 1.8 1.8 0 0 0-1.5-.9 1.8 1.8 0 0 0-1.6.9 6 6 0 0 0-.5 2.6 5.5 5.5 0 0 0 .5 2.5 1.7 1.7 0 0 0 1.6 1 1.7 1.7 0 0 0 1.5-1 5.5 5.5 0 0 0 .5-2.5zm7.8.9v-8.8h-3v-2.3h6v11.1a3.2 3.2 0 0 0 .4 1.9 2 2 0 0 0 1.4.5h2.4v2.3h-3.2a4.2 4.2 0 0 1-3.1-1.1 5.6 5.6 0 0 1-.9-3.6zm19.8 4.1l-2.1.7-2.3.2a5.3 5.3 0 0 1-5.9-5.9 6.2 6.2 0 0 1 1.5-4.4 4.8 4.8 0 0 1 3.9-1.6 5 5 0 0 1 3.9 1.5 5.6 5.6 0 0 1 1.4 4.2v1.2h-7.7a2.8 2.8 0 0 0 .8 2 4 4 0 0 0 2.4.6 7.1 7.1 0 0 0 2-.2 9.7 9.7 0 0 0 2.1-1zm-2.6-6.3a2.4 2.4 0 0 0-.6-1.8 2.1 2.1 0 0 0-1.7-.6 2.1 2.1 0 0 0-1.6.6 3 3 0 0 0-.7 1.8zm20.8-8.2h3.7l4 15.1h-2.9l-1-3.7h-4l-.9 3.7h-3zm1.8 2.7l-1.4 6.2h2.8zm17.1 5v7.4h-2.9v-6.9a3 3 0 0 0-.4-1.8 1.3 1.3 0 0 0-1.1-.5 1.7 1.7 0 0 0-1.3.7 4 4 0 0 0-.4 2v6.5h-3v-15.8h3v6.2a2.4 2.4 0 0 1 1-1.5 4.1 4.1 0 0 1 1.9-.5 2.6 2.6 0 0 1 2.4 1.1 4.6 4.6 0 0 1 .8 3.1zm6.6-7.7h2.7v6.6l-.4 3.6h-2l-.3-3.6zm0 12.2h2.7v2.9h-2.7zm-159.7 12.7h2v5.8h5.6v-5.8h2.1v15.1h-2.1v-7.6h-5.6v7.6h-2zm22.4 8.5v.9h-8a4.5 4.5 0 0 0 .8 3.3 3.7 3.7 0 0 0 2.8 1 5.7 5.7 0 0 0 1.8-.3 6 6 0 0 0 2.1-.8v1.8l-2 .7-2 .2a5.3 5.3 0 0 1-4.1-1.6 6 6 0 0 1-1.5-4.4 6.1 6.1 0 0 1 1.5-4.3 5 5 0 0 1 3.9-1.6 4.2 4.2 0 0 1 3.4 1.5 5.2 5.2 0 0 1 1.3 3.6zm-1.8-.5a4 4 0 0 0-.9-2.1 2.9 2.9 0 0 0-2.1-.8 2.9 2.9 0 0 0-2.2.9 3.2 3.2 0 0 0-1 2zm10.3 3a3.4 3.4 0 0 0 .4 1.9 1.7 1.7 0 0 0 1.4.6h2.2v1.6H613a3 3 0 0 1-2.6-1.1 4.5 4.5 0 0 1-.9-3v-10.3h-3v-1.4h4.9zm9 2.7v5.7h-1.9v-15.6h1.9v1.4a3.7 3.7 0 0 1 1.2-1.3 3.4 3.4 0 0 1 1.8-.4 3.6 3.6 0 0 1 3.2 1.6 7 7 0 0 1 1.2 4.4 6.9 6.9 0 0 1-1.2 4.3 3.6 3.6 0 0 1-3.2 1.6 3.4 3.4 0 0 1-1.8-.4 3.7 3.7 0 0 1-1.2-1.3zm5.4-4.3a6.7 6.7 0 0 0-.6-3.2 2.3 2.3 0 0 0-2.1-1.1 2 2 0 0 0-2 1.1 5.6 5.6 0 0 0-.7 3.2 5.8 5.8 0 0 0 .7 3.3 2 2 0 0 0 2 1.1 2.3 2.3 0 0 0 2.1-1.1 6.9 6.9 0 0 0 .6-3.3zm26.5-10.1v1.6h-2.1a1.8 1.8 0 0 0-1.4.4 2.7 2.7 0 0 0-.4 1.5v1h3.9v1.4h-3.9v9.9h-1.8v-9.9h-3.1v-1.4h3.1v-.8a4.3 4.3 0 0 1 .8-2.8 3.7 3.7 0 0 1 2.7-.9zm13.5 6.8l-1.3-.7-1.3-.2a3.4 3.4 0 0 0-2.7 1.1 4.9 4.9 0 0 0-.9 3.2v5.6h-1.9v-11.3h1.9v2.2a4.5 4.5 0 0 1 1.4-1.9 4.4 4.4 0 0 1 2.3-.6 2.7 2.7 0 0 1 1.3.2l1.2.5zm7-2.6a4.3 4.3 0 0 1 3.6 1.5 7 7 0 0 1 1.3 4.4 7.1 7.1 0 0 1-1.3 4.5 5.1 5.1 0 0 1-7.2 0 7.1 7.1 0 0 1-1.3-4.5 7 7 0 0 1 1.3-4.4 4.3 4.3 0 0 1 3.6-1.5zm0 1.6a2.3 2.3 0 0 0-2.2 1.1 6.6 6.6 0 0 0-.7 3.2 6.8 6.8 0 0 0 .7 3.3 2.3 2.3 0 0 0 2.2 1.1 2.4 2.4 0 0 0 2.2-1.1 6.8 6.8 0 0 0 .7-3.3 6.6 6.6 0 0 0-.7-3.2 2.4 2.4 0 0 0-2.2-1.1zm13.1-.2a2.4 2.4 0 0 1 .9-1.1 2.5 2.5 0 0 1 1.3-.3 2 2 0 0 1 1.9 1 9.9 9.9 0 0 1 .5 4v6.6h-1.7V281a9.9 9.9 0 0 0-.2-3c-.2-.4-.5-.5-1-.5a1.1 1.1 0 0 0-1.1.6 8.5 8.5 0 0 0-.3 2.9v6.5h-1.7V281a8.8 8.8 0 0 0-.3-3c-.2-.4-.5-.5-1-.5a1.1 1.1 0 0 0-1.1.6 8.5 8.5 0 0 0-.3 2.9v6.5h-1.6v-11.3h1.6v.9a2.6 2.6 0 0 1 .9-.9 2 2 0 0 1 1.1-.3 2.5 2.5 0 0 1 1.3.3 3.1 3.1 0 0 1 .8 1.1zm24.4-4.4v3.3h4.2v1.4h-4.2v6.2a2.5 2.5 0 0 0 .4 1.7 2.2 2.2 0 0 0 1.7.5h2.1v1.5h-2.3a4.2 4.2 0 0 1-2.9-.8 4 4 0 0 1-.9-2.9v-6.2h-3v-1.4h3v-3.3zm17.6 8v.9h-8.1c0 1.5.2 2.6.9 3.3a3.3 3.3 0 0 0 2.7 1l1.9-.3a8 8 0 0 0 2.1-.8v1.8l-2.1.7-1.9.2a5.1 5.1 0 0 1-4.1-1.6 6 6 0 0 1-1.5-4.4 6.5 6.5 0 0 1 1.4-4.3 5 5 0 0 1 3.9-1.6 4.4 4.4 0 0 1 3.5 1.5 5.7 5.7 0 0 1 1.3 3.6zm-1.9-.5a3.9 3.9 0 0 0-.8-2.1 2.9 2.9 0 0 0-2.2-.8 3.1 3.1 0 0 0-2.2.9 2.7 2.7 0 0 0-.9 2zm13.8.6v6.5h-1.9v-1.7a3.6 3.6 0 0 1-1.5 1.5 5.1 5.1 0 0 1-2.2.5 3.7 3.7 0 0 1-2.8-1 3.3 3.3 0 0 1-1-2.6 3.6 3.6 0 0 1 1.2-2.9 6.6 6.6 0 0 1 3.8-1h2.5v-.2a2.7 2.7 0 0 0-.7-2 3.4 3.4 0 0 0-2.2-.6l-1.9.2-1.9.8v-1.8l2-.6 1.8-.2a5.5 5.5 0 0 1 2.4.4 4.3 4.3 0 0 1 1.7 1.3 3.3 3.3 0 0 1 .5 1.2 10.9 10.9 0 0 1 .2 2.2zm-3.7.8h-.6a3.8 3.8 0 0 0-2.4.6 2.1 2.1 0 0 0-.2 3.3 2.2 2.2 0 0 0 1.7.5 3 3 0 0 0 2.4-1 4.5 4.5 0 0 0 .9-3v-.4zm16.2 5.1l-1.6.7-1.6.2a5.1 5.1 0 0 1-4.1-1.6 6 6 0 0 1-1.5-4.4 5.9 5.9 0 0 1 1.5-4.3 5.1 5.1 0 0 1 4.1-1.6l1.6.2a5.6 5.6 0 0 1 1.6.7v1.9a6 6 0 0 0-1.5-.9 4.7 4.7 0 0 0-1.7-.3 3.1 3.1 0 0 0-2.7 1.1 5.1 5.1 0 0 0-.9 3.2 5.4 5.4 0 0 0 .9 3.3 3.4 3.4 0 0 0 2.7 1.1 4.3 4.3 0 0 0 1.7-.3 4.6 4.6 0 0 0 1.5-.9zm12.4-6.4v7h-1.9v-7a4.6 4.6 0 0 0-.5-2.3 2.4 2.4 0 0 0-1.7-.7 2.3 2.3 0 0 0-2 .9 4.3 4.3 0 0 0-.7 2.7v6.4H756v-15.8h1.9v6.2a2.8 2.8 0 0 1 1.3-1.5 4.2 4.2 0 0 1 2-.5 3.2 3.2 0 0 1 2.6 1.1 5.6 5.6 0 0 1 .9 3.5zm13.2.4v.9h-8.1a4.1 4.1 0 0 0 .9 3.3 3.3 3.3 0 0 0 2.7 1l1.9-.3a6.4 6.4 0 0 0 2-.8v1.8l-2 .7-1.9.2a5 5 0 0 1-4.1-1.6 7.3 7.3 0 0 1-.1-8.7 5 5 0 0 1 3.9-1.6 4.1 4.1 0 0 1 3.4 1.5 5.3 5.3 0 0 1 1.4 3.6zm-1.9-.5a4 4 0 0 0-.9-2.1 2.6 2.6 0 0 0-2.1-.8 2.9 2.9 0 0 0-2.2.9 2.7 2.7 0 0 0-.9 2zm14.7-1.9l-1.2-.7-1.4-.2a3.3 3.3 0 0 0-2.6 1.1 4.9 4.9 0 0 0-.9 3.2v5.6h-1.9v-11.3h1.9v2.2a3.8 3.8 0 0 1 1.4-1.9 4.1 4.1 0 0 1 2.3-.6 3 3 0 0 1 1.3.2l1.1.5zM911.1 256a8.4 8.4 0 0 1-3.1-1.8 4.2 4.2 0 0 1-.8-2.6 3.9 3.9 0 0 1 1.3-3.2 5.2 5.2 0 0 1 3.6-1.2l2.1.2 2.1.7v3a7.8 7.8 0 0 0-2-1.1 6.3 6.3 0 0 0-1.9-.3 2.9 2.9 0 0 0-1.7.4 1.5 1.5 0 0 0-.6 1.3 1.4 1.4 0 0 0 .5 1 3.6 3.6 0 0 0 1.7.9l1.3.5a5.4 5.4 0 0 1 2.7 1.8 4.1 4.1 0 0 1 .8 2.8 4.2 4.2 0 0 1-1.3 3.4 6.7 6.7 0 0 1-4.1 1.1 8.3 8.3 0 0 1-2.2-.3 5.8 5.8 0 0 1-2.2-.8v-3.1a8.9 8.9 0 0 0 2.3 1.3 5.7 5.7 0 0 0 2.2.4 2.3 2.3 0 0 0 1.7-.5 1.7 1.7 0 0 0 .6-1.4 1.9 1.9 0 0 0-.4-1.2 2.8 2.8 0 0 0-1.2-.8zm8.9 2.6v-7.3h3v6.9a3.4 3.4 0 0 0 .3 1.7 1.3 1.3 0 0 0 1.2.6 1.5 1.5 0 0 0 1.2-.7 3.9 3.9 0 0 0 .5-2v-6.5h2.9v11.3h-2.9v-1.7a2.8 2.8 0 0 1-1.1 1.5 3.5 3.5 0 0 1-1.8.5 3.1 3.1 0 0 1-2.5-1.1 5.6 5.6 0 0 1-.8-3.2zm21.6 3.4l-1.6.7-1.8.2a5.1 5.1 0 0 1-4.1-1.6 6 6 0 0 1-1.5-4.4 6.3 6.3 0 0 1 1.5-4.4 5.4 5.4 0 0 1 4.1-1.5 5.5 5.5 0 0 1 1.8.2 5.2 5.2 0 0 1 1.6.6v2.8a4.2 4.2 0 0 0-1.4-.9 4.1 4.1 0 0 0-1.6-.3 2.7 2.7 0 0 0-2.2.9 4 4 0 0 0-.8 2.6 4.3 4.3 0 0 0 .8 2.7 2.7 2.7 0 0 0 2.2.9 4.1 4.1 0 0 0 1.6-.3 4.2 4.2 0 0 0 1.4-.9zm12.5 0l-1.6.7-1.8.2a5.1 5.1 0 0 1-4.1-1.6 6 6 0 0 1-1.5-4.4 6.3 6.3 0 0 1 1.5-4.4 5.4 5.4 0 0 1 4.1-1.5 5.5 5.5 0 0 1 1.8.2 5.2 5.2 0 0 1 1.6.6v2.8a4.2 4.2 0 0 0-1.4-.9 4.1 4.1 0 0 0-1.6-.3 2.7 2.7 0 0 0-2.2.9 4 4 0 0 0-.8 2.6 4.3 4.3 0 0 0 .8 2.7 2.7 2.7 0 0 0 2.2.9 4.1 4.1 0 0 0 1.6-.3 4.2 4.2 0 0 0 1.4-.9zm13 0l-2.2.7-2.2.2a5.3 5.3 0 0 1-5.9-5.9 6.2 6.2 0 0 1 1.5-4.4 4.7 4.7 0 0 1 3.9-1.6 5 5 0 0 1 3.9 1.5 5.6 5.6 0 0 1 1.4 4.2v1.2h-7.7a2.5 2.5 0 0 0 .8 2 3.8 3.8 0 0 0 2.4.6 7.1 7.1 0 0 0 2-.2 9.7 9.7 0 0 0 2.1-1zm-2.6-6.3a2.4 2.4 0 0 0-.6-1.8 2.2 2.2 0 0 0-1.7-.6 2.1 2.1 0 0 0-1.6.6 2.5 2.5 0 0 0-.7 1.8zm13.9-4.1v2.6l-1.7-.8a5.7 5.7 0 0 0-1.8-.3 3.3 3.3 0 0 0-1.5.3 1.1 1.1 0 0 0-.5.9c0 .5.8 1 2.2 1.3h.1l.9.2a4.7 4.7 0 0 1 2.3 1.3 3.4 3.4 0 0 1 .8 2.3 3 3 0 0 1-1.2 2.6 5.3 5.3 0 0 1-3.4.9l-2.1-.2-2.2-.5v-2.6a5.6 5.6 0 0 0 2 .8 6.9 6.9 0 0 0 2 .3 3.5 3.5 0 0 0 1.6-.3 1 1 0 0 0 .5-.8 1 1 0 0 0-.4-.9 5.8 5.8 0 0 0-1.8-.7h-.8a4.5 4.5 0 0 1-2.5-1.3 2.9 2.9 0 0 1-.8-2.2 3 3 0 0 1 1.2-2.5 5.4 5.4 0 0 1 3.3-.9h2zm12.5 0v2.6l-1.7-.8a5.7 5.7 0 0 0-1.8-.3 3.3 3.3 0 0 0-1.5.3 1.1 1.1 0 0 0-.5.9c0 .5.7 1 2.2 1.3h.1l.9.2a4.7 4.7 0 0 1 2.3 1.3 3.4 3.4 0 0 1 .8 2.3 3 3 0 0 1-1.2 2.6 5.3 5.3 0 0 1-3.4.9l-2.1-.2-2.2-.5v-2.6a5.6 5.6 0 0 0 2 .8 6.9 6.9 0 0 0 2 .3 3.5 3.5 0 0 0 1.6-.3 1 1 0 0 0 .5-.8 1 1 0 0 0-.4-.9 5.8 5.8 0 0 0-1.8-.7h-.8a4.5 4.5 0 0 1-2.5-1.3 2.9 2.9 0 0 1-.8-2.2 3 3 0 0 1 1.2-2.5 5.4 5.4 0 0 1 3.3-.9h2zm7.4-4.1h2.7v6.6l-.4 3.6h-2l-.3-3.6zm0 12.2h2.7v2.9h-2.7zm-128.5 12.7h2.1v5.8h5.6v-5.8h2v15.1h-2v-7.6h-5.6v7.6h-2.1zm22.5 8.5v.9h-8.1a4.1 4.1 0 0 0 .9 3.3 3.3 3.3 0 0 0 2.7 1l1.9-.3a6.4 6.4 0 0 0 2-.8v1.8l-2 .7-1.9.2a5.4 5.4 0 0 1-4.2-1.6 6.4 6.4 0 0 1-1.4-4.4 6 6 0 0 1 1.4-4.3 5 5 0 0 1 3.9-1.6 4.1 4.1 0 0 1 3.4 1.5 5.3 5.3 0 0 1 1.4 3.6zm-1.9-.5a4 4 0 0 0-.9-2.1 2.9 2.9 0 0 0-2.1-.8 2.9 2.9 0 0 0-2.2.9 2.7 2.7 0 0 0-.9 2zm10.3 3a2.7 2.7 0 0 0 .5 1.9 1.5 1.5 0 0 0 1.3.6h2.2v1.6h-2.4a3.1 3.1 0 0 1-2.6-1.1 4.5 4.5 0 0 1-.9-3v-10.3h-3v-1.4h4.9zm9 2.7v5.7h-1.9v-15.6h1.9v1.4a3.7 3.7 0 0 1 1.2-1.3 3.9 3.9 0 0 1 1.8-.4 3.8 3.8 0 0 1 3.3 1.6 7.7 7.7 0 0 1 1.1 4.4 7.6 7.6 0 0 1-1.1 4.3 3.8 3.8 0 0 1-3.3 1.6 3.4 3.4 0 0 1-1.8-.4 3.7 3.7 0 0 1-1.2-1.3zm5.5-4.3a6.6 6.6 0 0 0-.7-3.2 2.1 2.1 0 0 0-2-1.1 2.3 2.3 0 0 0-2.1 1.1 5.6 5.6 0 0 0-.7 3.2 5.8 5.8 0 0 0 .7 3.3 2.3 2.3 0 0 0 2.1 1.1 2.1 2.1 0 0 0 2-1.1 6.8 6.8 0 0 0 .7-3.3zm6.4-5.6h4.8v9.9h3.7v1.4h-9.3v-1.4h3.7v-8.4h-2.9zm2.9-4.4h1.9v2.3h-1.9zm17 8.7v7h-1.8v-7a3.7 3.7 0 0 0-.6-2.3 2.1 2.1 0 0 0-1.7-.7 2.5 2.5 0 0 0-2 .9 5.1 5.1 0 0 0-.7 2.7v6.4h-1.8v-11.3h1.8v1.7a3.4 3.4 0 0 1 1.4-1.5 3.9 3.9 0 0 1 2-.5 3.2 3.2 0 0 1 2.6 1.1 5.7 5.7 0 0 1 .8 3.5zm12.4 6.3a5.7 5.7 0 0 1-1.2 3.9 4.7 4.7 0 0 1-3.5 1.3l-1.6-.2-1.7-.4v-1.8l1.8.7 1.5.2a2.9 2.9 0 0 0 2.2-.8 4 4 0 0 0 .7-2.6v-1.3a3.3 3.3 0 0 1-1.2 1.4 3.8 3.8 0 0 1-1.9.5 3.8 3.8 0 0 1-3.2-1.6 7.1 7.1 0 0 1-1.2-4.3 6.8 6.8 0 0 1 1.2-4.2 3.8 3.8 0 0 1 3.2-1.6 3.4 3.4 0 0 1 1.8.4 2.9 2.9 0 0 1 1.3 1.4v-1.5h1.8zm-1.8-5.1a5.3 5.3 0 0 0-.7-3.1 2.1 2.1 0 0 0-2-1.1 2.3 2.3 0 0 0-2.1 1.1 5.3 5.3 0 0 0-.7 3.1 5.6 5.6 0 0 0 .7 3.2 2.3 2.3 0 0 0 2.1 1.1 2.1 2.1 0 0 0 2-1.1 5.6 5.6 0 0 0 .7-3.2zm22.5-5.8a4.3 4.3 0 0 1 3.6 1.5 6.4 6.4 0 0 1 1.3 4.4 6.5 6.5 0 0 1-1.3 4.5 5.1 5.1 0 0 1-7.2 0 7.1 7.1 0 0 1-1.2-4.5 7 7 0 0 1 1.2-4.4 4.3 4.3 0 0 1 3.6-1.5zm0 1.6a2.3 2.3 0 0 0-2.1 1.1 5.6 5.6 0 0 0-.8 3.2 5.7 5.7 0 0 0 .8 3.3 2.3 2.3 0 0 0 2.1 1.1 2.3 2.3 0 0 0 2.2-1.1 5.8 5.8 0 0 0 .7-3.3 5.6 5.6 0 0 0-.7-3.2 2.3 2.3 0 0 0-2.2-1.1zm12.5-4.6v3.3h4.2v1.4h-4.2v6.2a2.5 2.5 0 0 0 .5 1.7c.3.4.8.5 1.6.5h2.1v1.5h-2.2a4.7 4.7 0 0 1-3-.8 4 4 0 0 1-.9-2.9v-6.2h-3v-1.4h3v-3.3zm16.9 7.6v7h-1.9v-7a3.7 3.7 0 0 0-.5-2.3 2.1 2.1 0 0 0-1.7-.7 2.5 2.5 0 0 0-2 .9 4.3 4.3 0 0 0-.7 2.7v6.4h-1.9v-15.8h1.9v6.2a2.9 2.9 0 0 1 1.4-1.5 3.9 3.9 0 0 1 2-.5 3.3 3.3 0 0 1 2.6 1.1 6.5 6.5 0 0 1 .8 3.5zm13.2.4v.9h-8.1a5 5 0 0 0 .9 3.3 3.7 3.7 0 0 0 2.8 1 5.7 5.7 0 0 0 1.8-.3 6 6 0 0 0 2.1-.8v1.8l-2.1.7-1.9.2a5.3 5.3 0 0 1-4.1-1.6 6 6 0 0 1-1.5-4.4 6.1 6.1 0 0 1 1.5-4.3 4.7 4.7 0 0 1 3.9-1.6 4.3 4.3 0 0 1 3.4 1.5 5.2 5.2 0 0 1 1.3 3.6zm-1.8-.5a4 4 0 0 0-.9-2.1 2.9 2.9 0 0 0-2.1-.8 2.8 2.8 0 0 0-2.2.9 3.2 3.2 0 0 0-1 2zm14.7-1.9l-1.3-.7-1.3-.2a3.4 3.4 0 0 0-2.7 1.1 4.9 4.9 0 0 0-.9 3.2v5.6h-1.9v-11.3h1.9v2.2a4.5 4.5 0 0 1 1.4-1.9 4.4 4.4 0 0 1 2.3-.6 2.7 2.7 0 0 1 1.3.2l1.2.5zm10.6-1.9v1.8a5.6 5.6 0 0 0-1.6-.7 4.4 4.4 0 0 0-1.6-.2 3.2 3.2 0 0 0-1.9.4 1.2 1.2 0 0 0-.7 1.2 1.3 1.3 0 0 0 .5 1.1 6.3 6.3 0 0 0 2.3.8h.8a3.6 3.6 0 0 1 2.1 1.1 2.7 2.7 0 0 1 .7 2 3.3 3.3 0 0 1-1.2 2.7 5.4 5.4 0 0 1-3.3.9l-1.8-.2-2-.5v-1.9l2 .8a5.5 5.5 0 0 0 1.8.2 2.7 2.7 0 0 0 1.9-.5 1.5 1.5 0 0 0 .7-1.4c0-.8-.8-1.4-2.5-1.8h-.8a4.5 4.5 0 0 1-2.3-1.1 2.6 2.6 0 0 1-.7-2 2.8 2.8 0 0 1 1.1-2.5 4.6 4.6 0 0 1 3.1-.9 5.5 5.5 0 0 1 1.8.2 4.9 4.9 0 0 1 1.6.5z"/></svg>